<svg width="142" height="61" viewBox="0 0 142 61" fill="none" xmlns="http://www.w3.org/2000/svg">
<path fill-rule="evenodd" clip-rule="evenodd" d="M8.5 20C8.5 13.3726 13.8726 8 20.5 8H41.5C48.1274 8 53.5 13.3726 53.5 20V41C53.5 47.6274 48.1274 53 41.5 53H20.5C13.8726 53 8.5 47.6274 8.5 41V20ZM31 17C35.0979 17.0029 40.3998 19 43.0866 24.212C45.7754 29.4279 44.923 38.5615 37.957 39.3696C33.8684 39.844 32.3571 37.0769 33.2613 35.8707C33.5067 35.5435 33.9053 35.1708 34.3559 34.7494L34.3559 34.7494C35.5663 33.6177 37.1521 32.1349 37.1521 30.2389C37.1521 27.6395 34.1225 26.2886 30.9997 26.2861C27.8772 26.2887 24.8479 27.6396 24.8479 30.2389C24.8479 32.1349 26.4337 33.6177 27.6441 34.7494C28.0947 35.1708 28.4933 35.5435 28.7387 35.8707C29.6429 37.0769 28.1316 39.844 24.043 39.3696C17.077 38.5615 16.2246 29.4279 18.9134 24.212C21.6002 19 26.9021 17.0029 31 17ZM31 17L30.991 17H31.009L31 17ZM28.1982 40.7966C26.1396 41.8668 23.308 41.442 22 40.5459C24.2219 42.5276 27.3878 44 31.0776 44C34.7674 44 37.9333 42.5276 40.1552 40.5459C38.8472 41.442 36.0155 41.8668 33.957 40.7966C32.6417 40.1129 31.7055 39.1037 31.1481 37.7692L31.0776 37.5932C30.5304 39.0154 29.5706 40.0832 28.1982 40.7966Z" fill="black"/>
<path d="M131.867 42.1124C132.318 42.1124 132.676 42.2149 132.94 42.4197C133.205 42.6246 133.359 42.8853 133.402 43.2017H132.765L132.746 43.1299C132.702 42.9889 132.615 42.8627 132.485 42.7514C132.333 42.6216 132.127 42.5567 131.867 42.5567C131.628 42.5567 131.438 42.6145 131.295 42.7301C131.151 42.8457 131.08 43.009 131.08 43.22C131.08 43.3863 131.126 43.5212 131.22 43.6247C131.313 43.7281 131.429 43.8092 131.568 43.8681C131.707 43.9269 131.897 43.9928 132.14 44.0658C132.435 44.1551 132.673 44.2403 132.853 44.3214C133.033 44.4026 133.186 44.5253 133.311 44.6896C133.437 44.8539 133.5 45.072 133.5 45.3438C133.5 45.5466 133.448 45.7353 133.344 45.9097C133.24 46.0842 133.081 46.2262 132.869 46.3357C132.656 46.4452 132.394 46.5 132.082 46.5C131.778 46.5 131.508 46.4483 131.272 46.3448C131.035 46.2414 130.847 46.0994 130.706 45.9188C130.565 45.7383 130.483 45.5324 130.462 45.3012H131.093L131.104 45.3738C131.125 45.4702 131.165 45.5647 131.226 45.6572C131.302 45.7728 131.411 45.8681 131.551 45.9432C131.692 46.0182 131.863 46.0558 132.062 46.0558C132.322 46.0558 132.522 45.9909 132.661 45.861C132.8 45.7312 132.869 45.5649 132.869 45.362C132.869 45.1876 132.82 45.0456 132.723 44.9361C132.625 44.8265 132.505 44.7403 132.361 44.6774C132.218 44.6145 132.023 44.5466 131.776 44.4736C131.485 44.3843 131.252 44.3001 131.077 44.221C130.901 44.1419 130.751 44.0232 130.628 43.865C130.504 43.7068 130.442 43.4979 130.442 43.2382C130.442 43.0151 130.5 42.8183 130.615 42.6479C130.73 42.4776 130.894 42.3457 131.109 42.2524C131.324 42.1591 131.576 42.1124 131.867 42.1124ZM122.785 42.1246C123.344 42.1246 123.806 42.2534 124.171 42.511C124.535 42.7686 124.787 43.1206 124.925 43.5668H124.301L124.253 43.4631C124.135 43.2272 123.962 43.0356 123.735 42.8883C123.475 42.72 123.156 42.6358 122.778 42.6358C122.479 42.6358 122.211 42.7037 121.975 42.8396C121.739 42.9755 121.552 43.1703 121.415 43.4238C121.279 43.6774 121.21 43.9746 121.21 44.3153C121.21 44.6521 121.279 44.9462 121.415 45.1977C121.552 45.4493 121.739 45.643 121.975 45.7789C122.211 45.9148 122.479 45.9827 122.778 45.9827C123.156 45.9827 123.475 45.8986 123.735 45.7302C123.995 45.5618 124.184 45.3357 124.301 45.0517H124.925L124.885 45.171C124.74 45.5611 124.502 45.8733 124.171 46.1075C123.806 46.3651 123.344 46.4939 122.785 46.4939C122.356 46.4939 121.976 46.4016 121.646 46.217C121.317 46.0324 121.06 45.7748 120.875 45.4442C120.691 45.1135 120.599 44.7373 120.599 44.3153C120.599 43.8894 120.691 43.51 120.875 43.1774C121.06 42.8447 121.317 42.5861 121.646 42.4015C121.976 42.2169 122.356 42.1246 122.785 42.1246ZM114.926 42.1672V46.4574H114.334V42.1672H114.926ZM108.869 42.1672V42.6175H107.574V46.4574H106.982V42.6175H105.688V42.1672H108.869ZM97.6594 42.1672L98.7849 44.2423L99.9039 42.1672H100.581L99.0777 44.8326V46.4574H98.4791V44.8326L96.9698 42.1672H97.6594ZM90.2102 42.1672V46.0253H91.8367V46.4574H89.6182V42.1672H90.2102ZM82.4488 42.2463L84.1403 46.4574H83.5027L83.1189 45.4655H81.1021L80.7182 46.4574H80.0806L81.7787 42.2463H82.4488ZM71.6296 42.1672L74.0107 45.5629V42.1672H74.6027V46.4574H74.0107L71.6296 43.0678V46.4574H71.0375V42.1672H71.6296ZM63.8681 42.2463L65.5596 46.4574H64.9221L64.5382 45.4655H62.5214L62.1376 46.4574H61.5L63.198 42.2463H63.8681ZM82.1102 42.8673L81.2712 45.0334H82.9497L82.1102 42.8673ZM63.5294 42.8673L62.6906 45.0334H64.3691L63.5294 42.8673ZM85.7585 23.3921C87.9128 23.3921 89.6881 24.0762 91.0842 25.439C92.4835 26.7965 93.18 28.5225 93.18 30.6144C93.18 32.7859 92.4865 34.5437 91.0966 35.8853C89.7559 37.1848 88.0466 37.8549 85.9742 37.8981L85.7585 37.9004L85.7477 37.9008C85.7457 37.9033 85.7437 37.9046 85.7416 37.9046C85.7394 37.9046 85.7373 37.9032 85.7353 37.9004L85.7352 37.8999L85.5491 37.8982C83.4677 37.8545 81.7499 37.1552 80.3958 35.8005C79.0462 34.4472 78.3474 32.7868 78.3023 30.8191L78.3009 30.6498L78.3 30.6144C78.3 28.5861 79.0027 26.876 80.4081 25.4814C81.8135 24.0894 83.598 23.3921 85.7585 23.3921ZM85.7362 23.4004C85.6201 23.4003 85.8314 27.48 84.1583 29.1114C82.4851 30.7428 78.3006 30.5549 78.3009 30.6498C78.3012 30.7448 82.5788 30.6514 84.1594 32.1925C85.6837 33.6787 85.6289 37.6106 85.7297 37.889L85.7352 37.8999L85.7477 37.9008C85.8568 37.758 85.768 33.7064 87.3195 32.1936C88.8989 30.6536 93.1769 30.7846 93.1768 30.6552C93.1768 30.5257 88.8989 30.6536 87.3183 29.1125C85.7377 27.5714 85.8522 23.4004 85.7362 23.4004ZM109.711 23.3905C111.56 23.3905 113.085 23.9614 114.283 25.0973V23.7872H119.1V37.5021H114.332V35.9515H114.283C113.085 37.2496 111.56 37.8987 109.711 37.8987C107.697 37.8987 106.038 37.2016 104.736 35.8072C103.431 34.4069 102.78 32.691 102.78 30.6626C102.78 28.6282 103.431 26.9094 104.736 25.506C106.038 24.0967 107.697 23.3905 109.711 23.3905ZM130.383 23.3921C130.915 23.3921 131.441 23.4639 131.96 23.6074C132.486 23.7449 132.868 23.8825 133.112 24.026L133.5 24.2413L131.435 28.2237C130.824 27.7304 129.973 27.4822 128.881 27.4822C128.28 27.4822 127.767 27.6078 127.341 27.853C126.916 28.1011 126.615 28.4031 126.44 28.7619C126.265 29.1147 126.14 29.4166 126.065 29.6708C125.989 29.9189 125.952 30.1133 125.952 30.2568V37.4324H121.02V23.7868H125.952V25.7601H126.015C126.046 25.6883 126.105 25.6016 126.19 25.497C126.271 25.3864 126.453 25.198 126.728 24.9349C127.01 24.6658 127.307 24.4266 127.617 24.2173C127.933 24.0021 128.343 23.8107 128.843 23.6433C129.344 23.4759 129.857 23.3921 130.383 23.3921ZM100.86 14.5V37.4324H96.06V14.5H100.86ZM69.6826 15.436C71.9603 15.436 73.8044 16.0174 75.215 17.1741C76.6317 18.3249 77.34 20.0031 77.34 22.2087C77.34 24.4144 76.6225 26.1465 75.1905 27.3991C73.7647 28.6458 71.9297 29.2691 69.6826 29.2691H66.6172V37.4324H61.5V15.436H69.6826ZM111.154 27.4292C110.231 27.4292 109.458 27.7357 108.831 28.3428C108.202 28.9438 107.89 29.7191 107.89 30.6626C107.89 31.6092 108.186 32.3815 108.782 32.9825C109.384 33.5775 110.176 33.872 111.154 33.872C112.098 33.872 112.872 33.5685 113.477 32.9585C114.088 32.3515 114.393 31.5852 114.393 30.6626C114.393 29.7191 114.079 28.9438 113.452 28.3428C112.823 27.7357 112.059 27.4292 111.154 27.4292ZM68.1904 19.1801H66.78V25.2642H68.1904C69.3236 25.2642 70.2518 25.0268 70.9751 24.5521C71.6984 24.0773 72.06 23.3028 72.06 22.2284C72.06 21.1384 71.6984 20.3607 70.9751 19.8922C70.2518 19.4174 69.3236 19.1801 68.1904 19.1801Z" fill="black"/>
</svg>
