<svg width="115" height="26" viewBox="0 0 115 26" fill="currentColor" xmlns="http://www.w3.org/2000/svg">
<path fill-rule="evenodd" clip-rule="evenodd" d="M22.7346 26H24.3172C24.6839 26 24.9927 25.6946 25.012 25.3319V8.28487C25.012 6.60499 23.6417 5.24963 21.9434 5.24963H19.9169C19.5502 5.24963 19.2415 4.9442 19.2415 4.5815V3.03524C19.2415 1.35536 17.8712 0 16.1729 0H3.0686C1.37025 0 0 1.35536 0 3.03524V20.1586C0 21.8194 1.37025 23.1747 3.0686 23.1938H18.2572C18.3923 23.1938 18.5274 23.232 18.6432 23.3084L22.3487 25.8855C22.4644 25.9618 22.5995 26 22.7346 26ZM19.0485 20.7695H3.1072C2.72121 20.7695 2.43172 20.4831 2.43172 20.1013V3.07342C2.43172 2.71072 2.74051 2.40529 3.1072 2.40529H16.1343C16.5009 2.40529 16.8097 2.71072 16.8097 3.07342V4.5815C16.8097 4.9442 16.5009 5.24963 16.1343 5.24963H6.42668C6.06 5.24963 5.75121 5.55507 5.75121 5.91777V17.2761C5.75121 17.6388 6.06 17.9442 6.42668 17.9442H18.5467C18.9134 17.9442 19.2222 17.6388 19.2222 17.2761V8.32305C19.2222 7.96035 19.5309 7.65492 19.8976 7.65492H21.8855C22.2522 7.65492 22.5609 7.96035 22.5609 8.32305V22.2584C22.5609 22.6021 22.175 22.793 21.9048 22.6021L19.4344 20.884C19.3187 20.8076 19.1836 20.7695 19.0485 20.7695ZM16.4623 15.5198H8.51101C8.33732 15.5198 8.18293 15.3862 8.18293 15.1953V7.97944C8.18293 7.80764 8.31802 7.65492 8.51101 7.65492H16.4623C16.636 7.65492 16.7904 7.78855 16.7904 7.97944V15.1953C16.7904 15.3671 16.6553 15.5198 16.4623 15.5198ZM86.4849 3.62979C87.4983 3.62979 88.3198 2.81723 88.3198 1.81489C88.3198 0.812555 87.4983 0 86.4849 0C85.4716 0 84.6501 0.812555 84.6501 1.81489C84.6501 2.81723 85.4716 3.62979 86.4849 3.62979ZM65.5535 6.28288V5.2746H62.5974V17.8444H65.5535V9.25729L69.0023 7.8457V4.9049H68.9683L65.5535 6.28288ZM54.1002 5.26335C52.1804 5.26335 50.6174 5.88512 49.4282 7.14546C48.8845 7.73362 48.4598 8.4058 48.154 9.19562C47.8652 9.96863 47.7123 10.7921 47.7123 11.6491C47.7123 13.4136 48.2219 14.8756 49.2583 16.0015C50.3966 17.245 51.9596 17.85 53.9473 17.85C55.8841 17.85 57.4301 17.2282 58.6024 15.9679C59.7067 14.7747 60.2673 13.2791 60.2673 11.4642C60.2673 9.64934 59.7237 8.18735 58.6533 7.04463C57.5151 5.85151 56.003 5.26335 54.1002 5.26335ZM56.4108 14.2034C55.8501 14.8924 55.0686 15.2453 54.0832 15.2453C53.0299 15.2453 52.1634 14.8924 51.5179 14.1866C51.212 13.8673 50.9742 13.464 50.8043 13.0103C50.6344 12.5565 50.5495 12.086 50.5495 11.5819C50.5495 10.5736 50.8213 9.73337 51.3819 9.02757C51.9936 8.27137 52.826 7.88486 53.8963 7.88486C54.9497 7.88486 55.7822 8.23776 56.3768 8.96035C56.9374 9.63254 57.2262 10.5064 57.2262 11.5987C57.2432 12.6574 56.9714 13.5312 56.4108 14.2034ZM84.9875 5.27678H87.9266V17.8634H84.9875V5.27678ZM40.1373 5.26335C38.4553 5.26335 37.0792 5.75068 36.0089 6.72535C35.0065 7.6496 34.4969 8.80911 34.4969 10.2039C34.4969 11.4474 34.9386 12.4725 35.822 13.2959C35.0575 13.9009 34.6837 14.6235 34.6837 15.4805C34.6837 16.0015 34.7517 16.4552 34.8706 16.8417C34.9895 17.245 35.2274 17.5811 35.6012 17.8836C34.276 18.6062 33.6304 19.7825 33.6814 21.3957C33.7153 22.7905 34.327 23.8996 35.5162 24.7398C36.7055 25.5801 38.2854 26.0002 40.2222 26.0002C42.159 26.0002 43.6031 25.6305 44.5885 24.8911C45.5738 24.1517 46.0665 23.093 46.0665 21.6982C46.0665 20.3202 45.6758 19.2448 44.8943 18.4885C44.4695 18.0852 43.9259 17.7659 43.2633 17.4803C42.5837 17.2114 41.6663 16.9761 40.4771 16.7913C39.2878 16.6064 38.4384 16.4048 37.9287 16.1527C37.6908 16.0519 37.5379 15.9343 37.47 15.8166C37.402 15.699 37.368 15.5309 37.368 15.3125C37.368 15.094 37.5209 14.7915 37.8097 14.405C38.4723 14.6235 39.2029 14.7411 39.9844 14.7411C41.5814 14.7411 42.8895 14.2706 43.9259 13.3127C44.3846 12.8758 44.7414 12.3549 44.9962 11.7667C45.251 11.1786 45.37 10.5232 45.37 9.80058C45.37 9.07799 45.2001 8.389 44.8603 7.75043C44.8603 7.75043 44.8603 7.73362 44.8433 7.73362H46.0835V5.26335H40.1373ZM38.0816 18.8582L38.6932 18.9591C40.4091 19.2111 41.6323 19.5472 42.3289 20.001C42.9575 20.3875 43.2633 20.9084 43.2633 21.547C43.2633 22.8913 42.2949 23.5467 40.3581 23.5467C39.2199 23.5467 38.3024 23.3115 37.5889 22.8577C37.2661 22.6561 37.0113 22.404 36.8414 22.1183C36.6545 21.8327 36.5695 21.5134 36.5695 21.1269C36.5695 20.7404 36.6885 20.337 36.9263 19.9169C37.1811 19.48 37.5719 19.1439 38.0816 18.8582ZM41.7852 11.6491C41.3095 12.0692 40.7489 12.2877 40.1203 12.2877C39.2708 12.2877 38.5913 12.0524 38.0646 11.5819C37.8267 11.3802 37.6568 11.1281 37.5209 10.8761C37.402 10.6072 37.3341 10.3383 37.3341 10.0527C37.3341 9.76697 37.385 9.4813 37.5039 9.19562C37.8777 8.23776 38.7102 7.76723 40.0183 7.76723C40.7999 7.76723 41.4285 7.96889 41.8702 8.3722C42.3119 8.77551 42.5497 9.31325 42.5497 9.96863C42.5328 10.6072 42.2779 11.1786 41.7852 11.6491ZM100.906 8.00249C101.127 8.57385 101.246 9.24603 101.246 9.96863V17.8164H98.3575V17.2282C97.4911 17.6147 96.6926 17.8164 95.9621 17.8164C95.0446 17.8164 94.2801 17.7323 93.6345 17.5643C92.9889 17.3962 92.4453 17.1442 92.0036 16.8249C91.1031 16.1527 90.6444 15.1949 90.6444 13.9513C90.6444 12.8422 91.1881 11.9012 92.3094 11.1618C93.5156 10.3551 95.1636 9.95183 97.2363 9.95183L97.712 9.96863C97.761 9.96863 97.81 9.97251 97.8609 9.97655C97.9158 9.9809 97.973 9.98543 98.0347 9.98543C98.0917 9.99349 98.1448 9.99768 98.1959 10.0017C98.2514 10.0061 98.3045 10.0103 98.3575 10.019C98.2896 8.7755 97.7459 8.0361 96.7266 7.83445C96.4038 7.76723 96.03 7.73362 95.6562 7.73362C95.2655 7.73362 94.8917 7.76723 94.535 7.83445C94.1612 7.90167 93.8044 8.00249 93.4646 8.10332C92.7171 8.33859 92.1565 8.62426 91.8337 8.92675L91.7997 8.90994L91.4429 6.33884C92.8191 5.61625 94.3481 5.26335 95.996 5.26335C98.5614 5.26335 100.192 6.1708 100.906 8.00249ZM98.3575 14.842V13.2287V12.1364C98.1367 12.1028 97.9158 12.086 97.695 12.086H97.2193C95.4864 12.086 94.3821 12.4725 93.9064 13.2287C93.7704 13.4472 93.7025 13.6824 93.7025 13.9345C93.7025 14.1866 93.7535 14.405 93.8384 14.5899C93.9403 14.7747 94.0932 14.9428 94.2971 15.0604C94.7049 15.2957 95.3165 15.4133 96.115 15.4133C96.9135 15.4133 97.661 15.2117 98.3575 14.842ZM112.104 10.8257C112.597 11.0609 113.004 11.3466 113.31 11.6827C113.871 12.2877 114.16 13.0943 114.16 14.1362C114.16 15.2285 113.718 16.1191 112.835 16.8081C111.917 17.5307 110.626 17.8836 108.961 17.8836C106.956 17.8836 105.393 17.5475 104.289 16.8921V13.8001C104.289 13.7833 104.357 13.8505 104.476 13.9849C104.595 14.1194 104.833 14.2706 105.155 14.4723C105.478 14.6739 105.869 14.842 106.294 14.9932C107.228 15.3125 108.196 15.4637 109.216 15.4637C110.575 15.4637 111.255 15.01 111.255 14.1194C111.255 13.8337 111.119 13.6152 110.864 13.4808C110.405 13.2455 109.725 13.0607 108.825 12.943C107.925 12.8086 107.194 12.6406 106.616 12.4053C106.039 12.17 105.563 11.8843 105.206 11.5651C104.544 10.9433 104.204 10.1367 104.204 9.1452C104.204 7.93528 104.68 6.97742 105.614 6.28843C106.549 5.59944 107.84 5.26335 109.488 5.26335C111.119 5.26335 112.512 5.71707 113.667 6.64132L113.667 6.64154C113.616 6.84312 113.565 7.0447 113.497 7.22948C113.31 7.75043 113.174 8.12013 113.089 8.33858L112.818 9.02757C112.801 9.09479 112.784 9.1284 112.784 9.1284C112.767 9.1284 112.699 9.04438 112.597 8.87633C112.104 8.30498 111.322 7.93528 110.286 7.75043C109.963 7.68321 109.641 7.6496 109.301 7.6496C107.874 7.6496 107.16 8.06971 107.16 8.92675C107.16 9.21242 107.296 9.44769 107.602 9.59893C108.162 9.90141 108.927 10.1199 109.895 10.2543C110.864 10.4055 111.594 10.5904 112.104 10.8257ZM76.3397 5.26335C74.6577 5.26335 73.2816 5.75068 72.2113 6.72535C71.2089 7.6496 70.6992 8.80911 70.6992 10.2039C70.6992 11.4474 71.141 12.4725 72.0244 13.2959C71.2599 13.9009 70.8861 14.6235 70.8861 15.4805C70.8861 16.0015 70.9541 16.4552 71.073 16.8417C71.1919 17.245 71.4298 17.5811 71.8035 17.8836C70.4784 18.6062 69.8328 19.7825 69.8837 21.3957C69.9177 22.7905 70.5293 23.8996 71.7186 24.7398C72.9078 25.5801 74.4878 26.0002 76.4246 26.0002C78.3614 26.0002 79.8055 25.6305 80.7908 24.8911C81.7762 24.1517 82.2689 23.093 82.2689 21.6982C82.2689 20.3202 81.8781 19.2448 81.0966 18.4885C80.6719 18.0852 80.1283 17.7659 79.4657 17.4803C78.7861 17.2114 77.8687 16.9761 76.6794 16.7913C75.4902 16.6064 74.6407 16.4048 74.1311 16.1527C73.8932 16.0519 73.7403 15.9343 73.6723 15.8166C73.6044 15.699 73.5704 15.5309 73.5704 15.3125C73.5704 15.094 73.7233 14.7915 74.0121 14.405C74.6747 14.6235 75.4053 14.7411 76.1868 14.7411C77.7837 14.7411 79.0919 14.2706 80.1283 13.3127C80.587 12.8758 80.9437 12.3549 81.1986 11.7667C81.4534 11.1786 81.5723 10.5232 81.5723 9.80058C81.5723 9.07799 81.4025 8.389 81.0627 7.75043C81.0627 7.75043 81.0627 7.73362 81.0457 7.73362H82.2859V5.26335H76.3397ZM74.284 18.8582L74.8956 18.9591C76.6115 19.2111 77.8347 19.5472 78.5313 20.001C79.1599 20.3875 79.4657 20.9084 79.4657 21.547C79.4657 22.8913 78.4973 23.5467 76.5605 23.5467C75.4222 23.5467 74.5048 23.3115 73.7913 22.8577C73.4685 22.6561 73.2136 22.404 73.0437 22.1183C72.8569 21.8327 72.7719 21.5134 72.7719 21.1269C72.7719 20.7404 72.8908 20.337 73.1287 19.9169C73.3835 19.48 73.7743 19.1439 74.284 18.8582ZM77.9876 11.6491C77.5119 12.0692 76.9513 12.2877 76.3227 12.2877C75.4732 12.2877 74.7936 12.0524 74.267 11.5819C74.0291 11.3802 73.8592 11.1281 73.7233 10.8761C73.6044 10.6072 73.5364 10.3383 73.5364 10.0527C73.5364 9.76697 73.5874 9.4813 73.7063 9.19562C74.0801 8.23776 74.9126 7.76723 76.2207 7.76723C77.0022 7.76723 77.6308 7.96889 78.0726 8.3722C78.5143 8.77551 78.7521 9.31325 78.7521 9.96863C78.7351 10.6072 78.4803 11.1786 77.9876 11.6491Z" fill="currentColor"></path>
</svg>