<svg xmlns="http://www.w3.org/2000/svg" viewBox="0 0 300.03 114"><defs><style>.d{fill:currentColor;}</style></defs><g id="a"></g><g id="b"><g id="c"><path class="d" d="M29.77,20.55l-2.75-4.59c-1.08-2.09-1.24-4.64,.42-6.31,2.53-2.54,6.58-6.25,11.14-9.03,.87-.52,1.89-.73,2.9-.58,1,.15,1.92,.65,2.59,1.41,2.15,2.42,5.25,6.69,7.56,13.08,.25,.69,.28,1.43,.09,2.14-.19,.7-.6,1.33-1.17,1.79-2.42,1.96-7.54,4.8-12.66,7.62-.57,.31-1,.82-1.22,1.43-.76,2.13-.7,7.17,2.84,7.44,3.26,.25,10.6,.54,12.77-4.07,2.61-5.55,4.89-5.43,7.47-1.22,0,0,3.89-1.35,4.08,1.09,.14,1.76-1.77,3.12-1.77,3.12,0,0,1.75,4.48-5.43,4.07-7.06,.27-14.67-.27-18.75,2.17-1.65,.99-1.02,3.78,0,5.97,3.53,7.6,5.03,13.44,12.91,12.89,7.88-.54,9.78-4.61,9.78-4.61,0,0,0-10.04,5.43-4.34,0,0,8.69-3.53,5.16,5.16,0,0,6.79,5.16-8.97,4.34,0,0-3.82,1.42-6.8,2.66-1.77,.74-3.54,.96-4.66,1.54-.16,.08-.3,.2-.42,.34-.11,.14-.2,.3-.25,.48-.05,.17-.06,.36-.04,.53,.03,.18,.09,.35,.18,.5,2.29,3.67,9.81,16.57,9.81,27.62,0,12.92-13.22,25.17-37.01,19.3-.01,0-.03-.01-.04-.03,0-.01-.01-.03-.01-.04,0-.01,0-.03,.02-.04,.01-.01,.03-.02,.04-.02,4.04,.18,25.84,.37,27.08-16.87,1.13-15.76-8.71-24.31-11.75-26.76-.35-.27-.76-.43-1.19-.49-.43-.06-.88,0-1.28,.17-4.79,1.83-6.98,1.36-15.66,1.56,0,0-2.17,8.42-7.06,2.44,0,0-8.7-3.8-2.45-7.06,0,0,.54-10.04,10.05,.54,0,0,7.09,.49,10.6-2.94,.15-.15,.24-.35,.25-.56,0-.21-.06-.42-.2-.58-1.94-2.26-8.97-11.26-7.77-21.76,.01-.1,0-.19-.03-.29-.03-.09-.07-.18-.14-.25-.06-.07-.14-.14-.23-.18-.09-.04-.18-.07-.28-.08-1.76-.13-6.3-.86-11.05-4.85-.84-.7-1.91-1.07-3.01-1.05-1.3,.02-3.15,.03-5-.05-3-.12-7.06-4.61,0-5.97,0,0-2.17-4.89,.54-5.43,2.72-.54,4.08,1.36,4.62,2.44,0,0,2.17-1.63,4.62-1.09,2.45,.54,.54,6.79,.54,6.79,0,0,3.01,5.01,8.3,4.2,.2-.03,.39-.12,.55-.25,.16-.13,.28-.3,.35-.49,.75-2,3.31-8.46,6.17-11.5,.19-.2,.31-.45,.34-.72,.03-.27-.03-.54-.17-.78Zm95.8,51.74c0,2.64-.5,3.06-.82,3.4-.36,.31-1.99,1.77-7.69,1.77-7.99,0-13.49-2.73-13.49-14.61v-25.19h-6.46c-.69,0-1.69-.41-1.69-3.26,0-3.3,1.25-3.3,1.74-3.3h6.41v-10.25c0-.56,.13-1.53,4.2-1.53s4.26,.99,4.26,1.53v10.25h11.84c.7,0,1.69,.26,1.69,3.3s-1.06,3.26-1.69,3.26h-11.84v24.04c0,8.31,3.73,9,6.46,9,3.1,0,4.68-1.34,5.9-1.34,.67,0,1.18,.46,1.18,2.92h0Zm40.08-16.91h-27.76c-.02,2.18-.32,15.67,13.78,15.67,8.2,0,12.01-3.26,13.93-3.26,1.1,0,1.27,1.26,1.27,3.07,0,1.71-.22,2.32-.57,2.8-.48,.74-6.54,3.81-15.35,3.81-13.83,0-21.07-7.92-21.07-23.47s8.72-23.91,20.23-23.91c13.3,0,18.54,9.08,18.54,22.29h0c0,1.66-1.34,3-3,3Zm-4.77-5.8c.09-4.15-.91-13.32-11.16-13.32s-11.77,11.6-11.82,13.32h22.99Zm55.16-15.43c0,2.1-.56,3.2-1.63,3.2h-6.2c1.07,1.08,3.03,3.46,3.03,8.24,0,12.02-9.28,15.75-16.76,15.75-4.95,0-7.6-1.65-8.69-2.47-.58,.58-1.97,2.12-1.97,4.56,0,3.15,3.99,3.96,5.72,4.02l11.29,.48c2,.04,14.75,.54,14.75,11.83,0,14.93-17.42,14.93-21.04,14.93-3.49,0-19.4,0-19.4-11.73,0-6.67,5.28-10.25,6.24-11-1.42-.67-4.61-2.7-4.61-7.03,0-5.06,2.99-8.22,4.18-9.45-1-1.21-3.22-4.15-3.22-9.5,0-9.79,6.74-15.9,16.76-15.9,3.5,0,5.82,.55,6.87,.82h13.06c1.15,0,1.63,1.12,1.63,3.25Zm-8.4,46.05c0-5.09-5.86-5.9-8.45-5.96l-11.19-.39c-.9,.7-5.09,3.61-5.09,8.34,0,2.1,1.45,6.4,12.01,6.4,9.02,0,12.73-3.82,12.73-8.39h0Zm-3.99-34.56c0-2.97-1.08-9.45-9.32-9.45-8.74,0-9.08,8.49-9.08,9.74,0,2.88,1.08,9.26,9.22,9.26,8.9,0,9.18-8.32,9.17-9.55h0Zm57.62,29.78c0,.85-.49,1.44-3.75,1.44-2.96,0-3.75-.47-3.75-1.44v-5.52c-2.57,2.63-7.73,7.56-15.18,7.56-10.85,0-16.08-6.35-16.08-18.46v-25.33c0-.88,.69-1.44,4.15-1.44s4.15,.58,4.15,1.44v24.31c0,4.81,.99,12.9,9.49,12.9,5.43,0,10.39-5.4,12.69-8.03v-29.18c0-.91,.74-1.44,4.15-1.44s4.15,.58,4.15,1.44v41.75Zm38.76-11.8c0,8.32-5.93,13.84-16.71,13.84-5.73,0-10.63-1.94-12.45-3.5-.37-.36-.99-.93-.99-3.69,0-3.14,.78-3.26,1.33-3.26,1.61,0,5.24,4.12,12.26,4.12,2.72,0,8.85-.78,8.85-6.9,0-4.61-7.5-7.27-10.67-8.53-7.22-2.86-10.72-6.62-10.72-12.84,0-6.58,4.95-12.79,15.52-12.79,6.66,0,10.73,2.89,10.96,3.5,.11,.2,.45,.84,.45,2.83,0,3.41-1.04,3.11-1.23,3.11-1.31,0-4.36-3.31-10.27-3.31-7.81,0-7.96,5.37-7.95,6.23,0,4.23,3.83,5.97,10.81,8.67,5,1.94,10.81,4.9,10.81,12.5h0Z"></path></g></g></svg>