<svg id="Livello_1" data-name="Livello 1" xmlns="http://www.w3.org/2000/svg" viewBox="0 0 381.7 124.31"><defs><style>.cls-1{fill:black;}</style></defs><path class="cls-1" d="M274.38,359.62h31.24l5.85-124H290.28V345.73h-4.52v-.56c0-46.67-4.79-103.52-5.31-109.51H261.11c-.52,6-5.31,62.84-5.31,109.51v.56h-4.52V235.66H230.09l5.84,124h31.25c0-54.31,1.38-63.83,1.44-64.21l.07-.48h4.18l.07.48C273,295.79,274.37,305.31,274.38,359.62Z" transform="translate(-230.09 -235.48)"/><path class="cls-1" d="M322.63,359.62h20v-124h-20Z" transform="translate(-230.09 -235.48)"/><path class="cls-1" d="M354.43,359.62h34.85V345.73H374.4V235.66h-20Z" transform="translate(-230.09 -235.48)"/><path class="cls-1" d="M511,359.62h20.13c-.29-8.56-3.62-107.7-6.16-124.14H489.14c-2.37,16.46-5.69,115.58-6,124.14h20.12v-55H511Zm-.17-68.93h-7.57v-.56c.18-15.67.7-28.83,1.61-40.25l0-.51h4.44l0,.52c.75,11.71,1.44,24.68,1.44,40.24Z" transform="translate(-230.09 -235.48)"/><path class="cls-1" d="M539.74,264.46h10.49l6.31-28.8H542.27Z" transform="translate(-230.09 -235.48)"/><path class="cls-1" d="M565.21,311.6v33.75a14.46,14.46,0,0,0,14.45,14.44h17.69a14.47,14.47,0,0,0,14.45-14.44V305.14c0-7.19-4.64-14.45-15-14.45H584.63v-.56c.17-15.9.87-28.73,1.61-40.24l0-.52h4.45l0,.53c.56,10.07,1.23,24,1.25,33.78H611.8V249.93a14.47,14.47,0,0,0-14.45-14.45H579.66a14.46,14.46,0,0,0-14.45,14.45v40.2c0,7.19,4.58,14.45,14.81,14.45H592.2v.57c-.16,14-.73,25.78-1.23,36.15l-.23,4.61h-4.45l0-.52c-.68-9.14-1.41-23.49-1.44-33.79Z" transform="translate(-230.09 -235.48)"/><path class="cls-1" d="M431.27,235.66H400l-5.84,124h21.18V249.55h4.52v.56c0,46.67,4.8,103.52,5.31,109.51h19.34c.52-6,5.32-62.84,5.32-109.51v-.56h4.52V359.62h21.18l-5.84-124H438.47c0,54.31-1.38,63.83-1.43,64.21l-.08.47h-4.18l-.07-.47C432.65,299.49,431.28,290,431.27,235.66Z" transform="translate(-230.09 -235.48)"/></svg>