<svg width="169" height="40" viewBox="0 0 169 40" fill="none" xmlns="http://www.w3.org/2000/svg">
<g clip-path="url(#clip0_1_10)">
<path d="M113.366 39.9309C111.482 38.9701 110.17 37.8799 109.431 36.6604C108.692 35.4038 108.322 33.6669 108.322 31.4495V8.70312C108.322 7.70533 108.119 6.8923 107.713 6.26405C107.343 5.63579 106.659 4.95211 105.661 4.21298L110.484 0C112.369 0.960859 113.681 2.06953 114.42 3.32604C115.159 4.54559 115.528 6.26405 115.528 8.4814V31.2278C115.528 32.2256 115.713 33.0386 116.083 33.6669C116.489 34.2952 117.191 34.9789 118.19 35.7179L113.366 39.9309Z" fill="black"/>
<path d="M60.1771 39.3345C56.8534 31.6848 53.4769 21.186 51.9469 13.4834V12.9558H59.0692C60.2299 20.0781 63.0788 29.4162 65.4001 34.4809C67.7215 29.4162 70.5703 20.0781 71.6783 12.9558H78.8533V13.4834C77.3233 21.186 73.9468 31.6848 70.6231 39.3345H60.1771Z" fill="black"/>
<path d="M158.086 39.7923C155.195 39.7923 152.881 39.3442 151.147 38.448C149.442 37.5229 148.184 36.3665 147.374 34.9788C146.594 33.5911 146.145 32.2035 146.03 30.8158H152.708C152.853 31.5674 153.157 32.2613 153.619 32.8973C154.11 33.5044 154.746 33.9814 155.527 34.3283C156.336 34.6752 157.305 34.8486 158.432 34.8486C159.82 34.8486 160.817 34.6174 161.424 34.1549C162.031 33.6634 162.335 33.0418 162.335 32.2902C162.335 31.5964 162.046 31.0182 161.468 30.5556C160.919 30.0641 160.008 29.616 158.736 29.2113L155.614 28.1706C154.11 27.6502 152.723 27.0864 151.45 26.4793C150.178 25.8433 149.152 25.0338 148.371 24.0509C147.62 23.068 147.244 21.7959 147.244 20.2348C147.244 17.9221 148.126 16.0574 149.889 14.6408C151.653 13.1953 154.154 12.4725 157.391 12.4725C159.733 12.4725 161.642 12.8339 163.116 13.5567C164.619 14.2794 165.746 15.2479 166.498 16.4621C167.249 17.6474 167.683 18.9628 167.799 20.4083H161.381C161.236 19.3675 160.803 18.5725 160.081 18.0232C159.358 17.445 158.375 17.1559 157.132 17.1559C156.004 17.1559 155.151 17.3728 154.573 17.8064C154.023 18.2401 153.749 18.8327 153.749 19.5843C153.749 20.336 154.053 20.9576 154.66 21.449C155.267 21.9405 156.192 22.3886 157.435 22.7933L160.558 23.7907C162.061 24.2532 163.434 24.8026 164.677 25.4386C165.949 26.0457 166.961 26.8551 167.713 27.867C168.464 28.85 168.84 30.1364 168.84 31.7264C168.84 34.1549 167.914 36.1062 166.064 37.5807C164.243 39.0551 161.584 39.7923 158.086 39.7923Z" fill="black"/>
<path fill-rule="evenodd" clip-rule="evenodd" d="M131.916 39.7923C127.811 39.7923 124.674 38.5636 122.506 36.1062C120.367 33.6489 119.297 30.3099 119.297 26.0891C119.297 23.2559 119.774 20.8274 120.728 18.8038C121.711 16.7801 123.128 15.219 124.978 14.1204C126.857 13.0218 129.141 12.4725 131.829 12.4725C135.704 12.4725 138.667 13.6435 140.719 15.9851C142.801 18.3267 143.842 21.767 143.842 26.3059V27.7803H126.149C126.294 29.9774 126.857 31.712 127.84 32.984C128.852 34.2271 130.21 34.8486 131.916 34.8486C133.275 34.8486 134.359 34.444 135.169 33.6345C136.007 32.825 136.557 31.8854 136.816 30.8158H143.494C143.235 32.4058 142.656 33.8803 141.76 35.239C140.864 36.5977 139.606 37.6963 137.987 38.5347C136.369 39.3731 134.345 39.7923 131.916 39.7923ZM126.149 23.357H136.99C136.874 21.3912 136.383 19.8734 135.515 18.8038C134.648 17.7052 133.405 17.1559 131.786 17.1559C130.197 17.1559 128.91 17.6764 127.926 18.7171C126.973 19.7289 126.38 21.2756 126.149 23.357Z" fill="black"/>
<path fill-rule="evenodd" clip-rule="evenodd" d="M92.6502 39.7923C88.5455 39.7923 85.4088 38.5636 83.2405 36.1062C81.1011 33.6489 80.0315 30.3099 80.0315 26.0891C80.0315 23.2559 80.5085 20.8274 81.4625 18.8038C82.4455 16.7801 83.8621 15.219 85.7123 14.1204C87.5914 13.0218 89.8753 12.4725 92.5636 12.4725C96.4381 12.4725 99.4009 13.6435 101.454 15.9851C103.535 18.3267 104.576 21.767 104.576 26.3059V27.7803H86.8831C87.0277 29.9774 87.5914 31.712 88.574 32.984C89.5862 34.2271 90.9446 34.8486 92.6502 34.8486C94.0095 34.8486 95.0935 34.444 95.903 33.6345C96.7411 32.825 97.2909 31.8854 97.5507 30.8158H104.229C103.969 32.4058 103.39 33.8803 102.494 35.239C101.598 36.5977 100.34 37.6963 98.7212 38.5347C97.103 39.3731 95.0788 39.7923 92.6502 39.7923ZM86.8831 23.357H97.7247C97.6087 21.3912 97.1169 19.8734 96.2502 18.8038C95.3827 17.7052 94.1394 17.1559 92.5204 17.1559C90.9307 17.1559 89.6442 17.6764 88.6615 18.7171C87.7074 19.7289 87.1143 21.2756 86.8831 23.357Z" fill="black"/>
<path d="M44.8244 4.11011H37.9067C37.5715 5.75663 37.173 7.35537 36.7236 8.90338C32.3654 8.55181 27.4696 8.35583 22.3061 8.35583C17.2297 8.35583 12.413 8.54525 8.11188 8.88554C7.66445 7.34309 7.26769 5.75031 6.93376 4.11011H0.0160217C0.801626 8.43151 1.98249 12.4556 3.38341 16.1429C8.73283 15.5142 15.2727 15.149 22.3061 15.149C29.4356 15.149 36.058 15.5242 41.4475 16.1688C42.8527 12.4745 44.0371 8.44165 44.8244 4.11011Z" fill="#F9B413"/>
<path d="M12.7385 20.4845C10.1361 20.6194 7.69031 20.8075 5.45148 21.04C7.37881 25.1817 9.51646 28.7866 11.5385 31.7813C13.7728 35.0907 15.8822 37.6791 17.4442 39.4512C17.5419 39.562 17.6375 39.6697 17.7309 39.7742H27.1095C27.203 39.6697 27.2985 39.5621 27.3962 39.4512C28.9583 37.6791 31.0677 35.0907 33.3023 31.7813C35.3205 28.7921 37.4541 25.195 39.3786 21.0629C37.1445 20.8266 34.7 20.6346 32.0962 20.4962C30.6608 23.3015 29.1391 25.8074 27.6722 27.98C25.6834 30.9256 23.8102 33.2359 22.4203 34.8227C21.0303 33.2359 19.1572 30.9256 17.1685 27.98C15.6996 25.8044 14.1758 23.2945 12.7385 20.4845Z" fill="#F9B413"/>
</g>
<defs>
<clipPath id="clip0_1_10">
<rect width="168.918" height="40" fill="white"/>
</clipPath>
</defs>
</svg>
