<svg width="130" height="28" viewBox="0 0 130 28" fill="none" xmlns="http://www.w3.org/2000/svg">
<g clip-path="url(#clip0_2227_3184)">
<path d="M30.4791 13.5826C30.4572 11.8423 30.7455 10.112 31.3307 8.47293C31.8725 6.9715 32.7258 5.60166 33.8345 4.45334C34.9656 3.31489 36.3235 2.42703 37.82 1.84741C39.5074 1.16048 41.3121 0.807632 43.134 0.808452C44.9441 0.779389 46.7427 1.10037 48.431 1.75374C49.9275 2.33336 51.2854 3.22121 52.4166 4.35966C53.5252 5.50798 54.3785 6.87783 54.9203 8.37925C55.5055 10.0184 55.7938 11.7486 55.7719 13.4889C55.794 15.2292 55.5056 16.9595 54.9203 18.5986C54.3744 20.0955 53.5216 21.4618 52.4166 22.6096C51.2936 23.7642 49.9339 24.6619 48.431 25.2411C46.7427 25.8945 44.9441 26.2155 43.134 26.1864C41.324 26.2148 39.5255 25.8939 37.837 25.2411C36.3341 24.6619 34.9745 23.7642 33.8515 22.6096C32.7573 21.4892 31.9051 20.1558 31.3478 18.6922C30.7566 17.0542 30.4624 15.3239 30.4791 13.5826ZM35.7676 13.5826C35.7574 14.6515 35.9302 15.7144 36.2786 16.725C36.5996 17.6436 37.1004 18.4889 37.7519 19.2117C38.3886 19.8932 39.1639 20.4304 40.0256 20.7872C41.0018 21.1816 42.0473 21.3756 43.1 21.3578C44.1526 21.3756 45.1981 21.1816 46.1743 20.7872C47.0748 20.4322 47.8839 19.8792 48.5417 19.1691C49.196 18.4484 49.6972 17.6024 50.015 16.6824C50.3731 15.6878 50.5603 14.6397 50.5686 13.5826C50.5778 12.5185 50.4021 11.461 50.0491 10.4572C49.7275 9.51106 49.2144 8.64136 48.5417 7.90235C47.8937 7.19649 47.0966 6.64377 46.2083 6.2843C45.2322 5.88992 44.1867 5.69588 43.134 5.71372C42.0699 5.69127 41.0124 5.8854 40.0256 6.2843C39.1386 6.64601 38.342 7.19842 37.6922 7.90235C37.0447 8.62158 36.5442 9.46057 36.219 10.372C35.8891 11.3799 35.7364 12.4374 35.7676 13.4974V13.5826Z" fill="#070A37"/>
<path d="M56.5383 25.8373L66.5617 1.23438H72.2164L82.2739 25.8373H76.7299L74.7372 20.6851H64.041L62.0823 25.8373H56.5383ZM73.068 16.0609L69.4061 6.64209L65.7101 16.0609H73.068Z" fill="#FE5200"/>
<path d="M94.9288 1.23428C96.7149 1.19338 98.4933 1.48207 100.175 2.08589C101.634 2.64208 102.951 3.5146 104.033 4.64071C105.098 5.73491 105.922 7.04044 106.451 8.47295C107.04 10.1111 107.328 11.842 107.303 13.5826C107.317 15.2834 107.029 16.9733 106.451 18.573C105.932 20.0192 105.114 21.3396 104.05 22.4479C102.968 23.574 101.651 24.4465 100.192 25.0027C98.5103 25.6065 96.732 25.8952 94.9459 25.8543H85.2971V1.23428H94.9288ZM90.5601 20.8979H94.9288C95.9539 20.926 96.9748 20.7554 97.935 20.3955C98.7746 20.0645 99.5327 19.5561 100.158 18.9052C100.777 18.2383 101.25 17.4493 101.546 16.5888C101.877 15.6305 102.038 14.6219 102.023 13.6082C102.04 12.5804 101.879 11.5574 101.546 10.5849C101.25 9.72445 100.777 8.93542 100.158 8.26857C99.5396 7.59295 98.7809 7.061 97.935 6.71012C96.9717 6.33642 95.9448 6.15418 94.9118 6.17361H90.543L90.5601 20.8979Z" fill="#FE5200"/>
<path d="M126.285 8.06439C125.537 7.22052 124.616 6.54681 123.585 6.08865C122.471 5.64379 121.277 5.43221 120.077 5.46698C118.907 5.40594 117.739 5.6249 116.67 6.10569C116.314 6.24932 116.008 6.49467 115.79 6.81115C115.571 7.12764 115.451 7.50128 115.444 7.88555C115.445 8.15569 115.505 8.42241 115.618 8.66773C115.731 8.91306 115.895 9.13129 116.1 9.30773C116.904 9.85612 117.826 10.209 118.791 10.3382L123.551 11.4027C124.616 11.6088 125.635 12.0071 126.558 12.5779C127.298 13.0455 127.938 13.6564 128.44 14.3748C128.912 15.036 129.254 15.7819 129.445 16.572C129.622 17.3716 129.711 18.1884 129.709 19.0076C129.729 20.0714 129.48 21.1231 128.985 22.0648C128.492 22.9697 127.806 23.7548 126.975 24.3642C126.05 25.0193 125.014 25.5011 123.918 25.7864C122.638 26.1134 121.321 26.2737 120 26.2633C117.681 26.3475 115.375 25.8896 113.264 24.9262C111.485 24.0792 110.03 22.6775 109.117 20.9322L113.451 17.8409C114.077 19.101 115.068 20.1429 116.296 20.83C117.469 21.4057 118.761 21.6974 120.068 21.6816C121.178 21.7539 122.284 21.5024 123.253 20.9577C123.604 20.7387 123.889 20.4295 124.08 20.0625C124.27 19.6955 124.358 19.2841 124.335 18.8713C124.335 17.4747 123.33 16.5209 121.312 16.0269L115.836 14.6729C114.124 14.3639 112.576 13.4589 111.467 12.118C110.594 10.9486 110.13 9.52393 110.147 8.06439C110.123 6.9638 110.375 5.87467 110.879 4.8964C111.377 3.98613 112.083 3.20686 112.94 2.62261C113.927 1.97731 115.024 1.51837 116.176 1.26855C117.521 0.950053 118.899 0.795638 120.281 0.80868C122.055 0.779294 123.821 1.06771 125.493 1.66029C126.952 2.19128 128.262 3.06788 129.308 4.21511L126.285 8.06439Z" fill="#FE5200"/>
<path d="M20.4386 18.4028C22.5198 17.8649 24.3333 16.5863 25.5392 14.8068C26.7451 13.0273 27.2605 10.8691 26.9889 8.73669C26.7173 6.60433 25.6772 4.64426 24.0637 3.22392C22.4502 1.80358 20.374 1.0205 18.2245 1.02149H0.246994V8.41345L20.8474 26.2972L29.4827 26.2461L20.4386 18.4028ZM14.5966 13.3698L6.41264 6.33552H18.2245C19.1573 6.33552 20.0519 6.70608 20.7114 7.36567C21.371 8.02526 21.7416 8.91986 21.7416 9.85267C21.7416 10.7855 21.371 11.6801 20.7114 12.3397C20.0519 12.9993 19.1573 13.3698 18.2245 13.3698H14.5966Z" fill="#070A37"/>
<path d="M3.1283e-05 22.5498C-0.00220908 23.16 0.115905 23.7647 0.347615 24.3292C0.579325 24.8937 0.920081 25.407 1.35038 25.8397C1.78069 26.2723 2.29209 26.6159 2.85532 26.8507C3.41855 27.0855 4.02256 27.207 4.63278 27.2081C5.5827 27.2135 6.51132 26.9268 7.29283 26.3868C8.07434 25.8468 8.67096 25.0796 9.00186 24.1892C9.33275 23.2987 9.38192 22.3281 9.1427 21.4088C8.90349 20.4895 8.38745 19.6659 7.66451 19.0497C6.99333 18.4688 6.1694 18.093 5.29076 17.9669C4.41212 17.8408 3.51576 17.9698 2.70833 18.3385C1.9009 18.7073 1.2164 19.3002 0.736263 20.0468C0.256131 20.7934 0.000584727 21.6621 3.1283e-05 22.5498Z" fill="#FE5200"/>
</g>
<defs>
<clipPath id="clip0_2227_3184">
<rect width="129.7" height="26.3828" fill="white" transform="translate(0 0.808594)"/>
</clipPath>
</defs>
</svg>
