<svg xmlns="http://www.w3.org/2000/svg" width="100%" viewBox="0 0 120 20" fill="none" class="ico_logo-main"><path d="M8.51319 4.39468C6.09305 4.39468 4.04305 5.43037 2.7618 7.08188V0H0V19.5941H2.7618V8.95731C3.72986 7.44577 5.52361 6.41008 7.65902 6.41008C10.4208 6.41008 12.2146 8.0056 12.2146 10.7768V19.5941H14.9764V10.3289C14.9764 6.74598 12.4139 4.39468 8.51319 4.39468Z" fill="currentColor"></path><path d="M24.3444 4.33867C20.2159 4.33867 17.3402 6.55001 16.7139 9.74105H19.2764C19.8458 7.55771 21.6111 6.27009 24.259 6.27009C26.7361 6.27009 28.2736 7.27779 28.2736 8.53741C28.2736 9.93699 26.4798 10.4688 24.0027 11.0007C20.3868 11.7564 16.2868 12.3723 16.2868 15.7872C16.2868 18.3065 18.5076 19.874 22.0666 19.874C24.6007 19.874 26.85 19.0063 28.302 17.3548V19.5941H31.0069V9.40515C31.0069 6.13013 28.3875 4.33867 24.3444 4.33867ZM28.302 15.7033C27.1062 17.1868 24.8 18.0546 22.6076 18.0546C20.5291 18.0546 18.9916 17.2708 18.9916 15.7872C18.9916 13.7998 21.6111 13.38 24.3159 12.7921C25.9104 12.4562 27.3909 12.0644 28.302 11.3086V15.7033Z" fill="currentColor"></path><path d="M35.5334 0H32.8V19.5941H35.5334V0Z" fill="currentColor"></path><path d="M45.1861 4.28269C40.4597 4.28269 36.9861 7.41775 36.9861 12.1483C36.9861 16.8789 40.4027 19.986 45.1291 19.986C49.1437 19.986 52.1048 17.8026 53.0159 14.2757H50.3395C49.5993 16.627 47.6631 17.9986 45.1576 17.9986C42.0256 17.9986 39.8048 15.9272 39.6625 12.4842H53.2722V12.0923C53.2722 7.2498 49.7416 4.28269 45.1861 4.28269ZM39.8048 10.6928C40.3458 7.94959 42.4243 6.27009 45.1291 6.27009C47.834 6.27009 49.9124 7.9216 50.4534 10.6928H39.8048Z" fill="currentColor"></path><path d="M62.3535 11.0568C59.6202 10.609 57.1146 10.2451 57.1146 8.50958C57.1146 7.16599 58.5667 6.24226 61.1862 6.24226C63.9764 6.24226 65.8271 7.33394 66.482 9.62925H69.073C68.2757 6.18628 65.3716 4.33883 61.1577 4.33883C56.9438 4.33883 54.4667 6.18628 54.4667 8.70553C54.4667 11.9805 58.1112 12.5684 61.3855 13.0722C64.0619 13.4641 66.5105 13.828 66.5105 15.5915C66.5105 17.075 64.9445 18.0547 62.2112 18.0547C59.25 18.0547 57.4278 16.8511 56.8014 14.3318H54.182C54.9223 18.0827 57.8834 19.9302 62.2396 19.9302C66.5959 19.9302 69.1584 17.9987 69.1584 15.3395C69.1584 12.2045 65.5993 11.5887 62.3535 11.0568Z" fill="currentColor"></path><path d="M73.3438 4.67472H70.6105V19.5942H73.3438V4.67472Z" fill="currentColor"></path><path d="M73.373 0.503999H70.5827V3.13521H73.373V0.503999Z" fill="currentColor"></path><path d="M82.7972 4.33883C78.6687 4.33883 75.793 6.55017 75.1666 9.74121H77.7291C78.2986 7.55787 80.0639 6.27026 82.7118 6.27026C85.1888 6.27026 86.7263 7.27795 86.7263 8.53758C86.7263 9.93716 84.9326 10.469 82.4555 11.0008C78.8395 11.7566 74.7395 12.3724 74.7395 15.7874C74.7395 18.3066 76.9604 19.8742 80.5194 19.8742C83.0534 19.8742 85.3027 19.0064 86.7548 17.3549V19.5943H89.4597V9.40532C89.4597 6.1303 86.8402 4.33883 82.7972 4.33883ZM86.7548 15.7034C85.559 17.187 83.2527 18.0547 81.0604 18.0547C78.868 18.0547 77.4444 17.271 77.4444 15.7874C77.4444 13.8 80.0639 13.3801 82.7687 12.7923C84.3632 12.4564 85.8437 12.0645 86.7548 11.3087V15.7034Z" fill="currentColor"></path><path d="M111.839 17.9846L107.938 19.986L105.774 15.8713C105.048 14.4997 103.325 13.9678 101.93 14.6816L97.5456 16.921V12.0644L99.9088 10.8608C101.304 10.147 101.845 8.45349 101.119 7.0819L97.3463 2.56271e-05H102.315L106.315 7.57175L111.839 17.9846Z" fill="currentColor"></path><path d="M119.996 5.44439L115.953 7.50178C114.557 8.21556 114.017 9.90905 114.743 11.2806L116.921 15.3954L113.034 17.3828L109.532 10.8048L107.511 6.96993L103.823 2.56271e-05H108.763L110.087 2.49128C110.813 3.86287 112.536 4.39471 113.917 3.68092L119.981 0.587849V5.44439H119.996Z" fill="currentColor"></path></svg>