<svg width="100%" height="100%" viewBox="0 0 121 42" fill="none" xmlns="http://www.w3.org/2000/svg">
  <g clip-path="url(#clip0_12650_13899)">
    <path d="M38.076 8.70002C34.956 6.43202 31.008 5.18402 26.952 5.18402H17.628C13.572 5.18402 9.624 6.43202 6.516 8.70002C2.376 11.712 0 16.332 0 21.384C0 26.436 2.376 31.056 6.504 34.068C9.612 36.336 13.56 37.584 17.616 37.584H26.94C30.996 37.584 34.944 36.336 38.052 34.068C42.192 31.056 44.556 26.436 44.556 21.384C44.556 16.332 42.204 11.712 38.076 8.70002ZM34.536 25.872C32.412 27.456 29.676 28.32 26.856 28.32H17.724C14.904 28.32 12.168 27.444 10.044 25.872C7.32 23.856 5.832 20.868 5.832 17.472C5.832 14.076 7.332 11.1 10.044 9.07202C12.168 7.48802 14.904 6.62402 17.724 6.62402H26.856C29.676 6.62402 32.412 7.50002 34.536 9.07202C37.26 11.088 38.748 14.076 38.748 17.472C38.748 20.868 37.26 23.856 34.536 25.872Z" fill="currentColor"></path>
    <path d="M26.8577 8.0639H17.7257C14.3537 8.0639 10.5977 10.0559 10.5977 14.1599C10.5977 18.2639 14.3537 20.2559 17.7257 20.2559H26.8577C30.2297 20.2559 33.9857 18.2639 33.9857 14.1599C33.9857 10.0559 30.2297 8.0639 26.8577 8.0639Z" fill="currentColor"></path>
    <path d="M68.65 20.544C69.526 20.064 70.246 19.284 70.798 18.204C71.35 17.124 71.626 15.96 71.626 14.712C71.626 12.156 70.858 10.176 69.322 8.74802C67.798 7.33202 65.554 6.62402 62.602 6.62402H51.418V36.084H63.286C66.01 36.084 68.182 35.292 69.802 33.72C71.422 32.148 72.226 30.012 72.226 27.312C72.226 24.048 71.038 21.792 68.65 20.544ZM58.438 12.708H61.918C62.686 12.708 63.286 12.936 63.73 13.416C64.174 13.884 64.39 14.544 64.39 15.396C64.39 16.248 64.174 16.908 63.73 17.376C63.286 17.844 62.686 18.084 61.918 18.084H58.438V12.708ZM64.162 29.1C63.67 29.64 63.01 29.904 62.182 29.904H58.438V24.072H62.17C63.022 24.072 63.682 24.324 64.174 24.84C64.654 25.356 64.894 26.064 64.894 26.964C64.906 27.852 64.654 28.56 64.162 29.1ZM85.114 30.42C83.806 30.42 82.738 30.108 81.922 29.484C81.094 28.86 80.614 28.008 80.47 26.928H95.674C95.734 26.16 95.758 25.284 95.758 24.288C95.758 20.856 94.762 18.096 92.758 16.032C90.754 13.956 88.03 12.924 84.562 12.924C81.274 12.924 78.586 14.04 76.498 16.284C74.41 18.528 73.366 21.36 73.366 24.804C73.366 28.404 74.434 31.248 76.582 33.336C78.73 35.424 81.55 36.468 85.078 36.468C87.658 36.468 89.77 35.916 91.402 34.812C92.89 33.804 94.006 32.616 94.774 31.236L89.494 28.14C88.378 29.652 86.926 30.42 85.114 30.42ZM81.814 19.656C82.51 18.972 83.422 18.636 84.562 18.636C85.75 18.636 86.71 18.972 87.43 19.632C88.15 20.304 88.558 21.132 88.642 22.128H80.638C80.734 21.156 81.118 20.328 81.814 19.656ZM115.978 21.096V36.084H109.126V21.912C109.126 21.06 108.922 20.388 108.514 19.884C108.106 19.392 107.494 19.14 106.702 19.14C105.934 19.14 105.334 19.38 104.914 19.86C104.494 20.34 104.278 21.012 104.278 21.864V36.084H97.426V13.308H104.278V14.76C105.526 13.62 107.062 13.056 108.874 13.056C111.37 13.056 113.182 13.8 114.298 15.264C115.414 16.74 115.978 18.684 115.978 21.096Z" fill="currentColor"></path>
  </g>
  <defs>
    <clipPath id="clip0_12650_13899">
      <rect width="115.98" height="32.4" fill="currentColor" transform="translate(0 5.18402)"></rect>
    </clipPath>
  </defs>
</svg>