<svg width="17" height="16" viewBox="0 0 17 16" fill="none" xmlns="http://www.w3.org/2000/svg">
<path d="M8.51738 0.317102L10.8968 5.03115L15.4764 5.48484C15.7915 5.51103 16.0257 5.78767 15.9995 6.10274C15.9882 6.2386 15.9288 6.36597 15.832 6.46193L12.063 10.1975L13.4604 15.2735C13.5424 15.5821 13.3586 15.8987 13.05 15.9806C12.9134 16.0169 12.7682 16.0019 12.6419 15.9384L7.99897 13.6393L3.36244 15.9355C3.07717 16.079 2.72963 15.964 2.58619 15.6787C2.52268 15.5524 2.50765 15.4073 2.54393 15.2706L3.94129 10.1946L0.169485 6.45908C-0.0550713 6.23653 -0.0566948 5.87408 0.165859 5.64952C0.261822 5.55269 0.389191 5.49329 0.525048 5.482L5.10469 5.0283L7.48056 0.317103C7.62715 0.0307927 7.97809 -0.0824695 8.2644 0.0641246C8.37318 0.119821 8.46168 0.208323 8.51738 0.317102Z" fill="#FFC200"/>
</svg>