<svg xmlns="http://www.w3.org/2000/svg" width="100%" height="314" viewBox="0 0 600 314" fill="none" class="text-black h-full w-full md:max-w-[8.625rem]" data-v-944fcabb=""><path d="M448.351 208.092C448.351 217.479 460.349 221.419 468.388 221.419V224.681H406.035V221.419C414.32 221.419 426.073 217.479 426.073 208.092V124.467C426.073 94.5509 424.508 88.149 401.892 104.154L399.499 100.43L440.158 71.8057H448.351V208.092ZM386.703 217.849C368.874 253.982 337.513 259.984 315.665 257.368C302.992 255.86 293.51 250.72 286.698 244.318C266.537 282.36 211.118 313.969 154.135 313.969C70.8843 314 0 267.771 0 212.678C0 168.85 34.2454 140.411 73.8301 140.411C108.075 140.411 157.111 170.019 184.882 170.019C201.422 170.019 208.51 159.955 208.51 149.275C208.51 137.425 199.642 129.73 186.662 129.73C173.682 129.73 157.725 138.041 135.877 138.041C94.543 138.041 64.4096 114.926 64.4096 80.5775C64.3789 27.2388 121.669 0 183.102 0C222.073 0 259.295 14.8044 259.295 46.8138C259.295 66.358 246.898 75.8377 237.447 75.8377C230.359 75.8377 224.467 71.6826 224.467 63.4033C224.467 49.1837 242.786 47.3985 242.786 33.7945C242.786 17.2051 221.521 7.14056 201.452 7.14056C154.196 7.14056 107.554 45.6442 107.554 93.6275C107.554 115.542 115.839 133.332 140.633 133.332C173.129 133.332 193.198 98.3674 219.772 98.3674C234.532 98.3674 248.709 109.632 248.709 129.176C248.709 163.525 215.046 175.375 190.252 175.375C161.315 175.375 138.27 157.616 111.696 157.616C74.4745 157.616 55.572 180.73 55.572 219.818C55.572 276.697 104.608 308.675 154.196 308.675C267.611 308.675 255.797 202.029 283.537 202.029C293.326 202.029 295.658 211.324 296.947 217.295C297.99 222.127 298.696 226.251 299.708 230.899C302.102 241.825 306.06 252.32 318.918 254.844C341.196 259.245 367.279 233.33 367.279 195.534C367.279 164.418 358.809 137.333 340.613 133.301C316.248 127.884 293.418 154.815 287.649 151.06C279.793 145.92 294.891 133.516 319.93 122.128C367.678 100.491 365.591 49.1221 342.055 46.1674C326.804 44.2592 312.443 55.0316 305.662 74.7297C298.297 96.1821 289.091 115.511 280.745 112.31C263.131 105.477 313.026 36.6877 351.322 36.6877C370.194 36.6877 381.333 50.9073 381.333 63.157C381.333 92.458 350.187 113.972 324.902 122.528C360.957 110.34 412.663 165.372 386.733 217.91L386.703 217.849ZM565.54 184.916H600V161.155H565.018V38.9037H556.702L465.443 181.13V184.916H543.262V250.689H565.57V184.916H565.54ZM483.701 161.155L543.231 69.4666V161.155H483.701Z" fill="currentColor"/></svg>