<svg xmlns="http://www.w3.org/2000/svg" width="180" height="34" viewBox="0 0 180 34" fill="none">
<path d="M152.29 15.8645C151.338 15.8645 150.387 15.8645 149.435 15.8645C149.323 15.8645 149.209 15.8645 149.097 15.8695C148.903 15.8795 148.867 15.8995 148.821 16.0893C148.756 16.3558 148.705 16.6256 148.647 16.8954C148.464 17.7465 148.275 18.5976 148.096 19.4504C147.871 20.5113 147.66 21.5756 147.434 22.6365C147.199 23.7308 146.947 24.82 146.714 25.9143C146.452 27.1434 146.2 28.3742 145.947 29.6034C145.843 30.108 145.739 30.611 145.644 31.1174C145.62 31.2473 145.57 31.3006 145.426 31.3006C143.135 31.2972 140.844 31.2972 138.553 31.3006C138.421 31.3006 138.376 31.2656 138.4 31.1373C138.478 30.7193 138.538 30.2979 138.628 29.8815C138.773 29.2103 138.948 28.5458 139.091 27.8746C139.34 26.6987 139.564 25.5195 139.813 24.3437C139.98 23.5509 140.179 22.7664 140.351 21.9736C140.551 21.0409 140.737 20.1049 140.931 19.1722C141.103 18.3461 141.28 17.52 141.452 16.6939C141.499 16.4657 141.53 16.2342 141.583 16.0061C141.61 15.8928 141.564 15.8728 141.469 15.8728C141.356 15.8728 141.244 15.8678 141.13 15.8661C140.482 15.8628 139.833 15.8578 139.186 15.8595C139.049 15.8595 139.057 15.7895 139.074 15.7013C139.158 15.2849 139.241 14.8668 139.324 14.4504C139.506 13.5427 139.687 12.6334 139.874 11.7257C139.935 11.4309 140.024 11.1394 140.085 10.8446C140.116 10.698 140.189 10.663 140.334 10.663C141.052 10.6697 141.772 10.6664 142.49 10.6664C142.786 10.6664 142.783 10.6664 142.847 10.3899C142.893 10.19 142.96 9.99351 143.002 9.79198C143.079 9.42223 143.135 9.04915 143.213 8.67941C143.489 7.39862 143.736 6.11117 144.345 4.92365C144.643 4.34571 144.927 3.76611 145.325 3.2448C146.418 1.81578 147.854 0.89974 149.629 0.491686C150.169 0.368437 150.726 0.31181 151.265 0.18523C152.131 -0.0179643 153.013 0.0203428 153.889 0.00868414C154.523 0.000356519 155.157 0.0536533 155.79 0.0852983C155.859 0.0886293 155.925 0.135264 155.991 0.160247C156.029 0.173571 156.068 0.188561 156.107 0.195223C156.361 0.24852 156.618 0.293489 156.869 0.353448C157.137 0.416738 157.149 0.436724 157.099 0.689884C157.006 1.16123 156.907 1.63091 156.812 2.10225C156.655 2.87672 156.505 3.65119 156.344 4.42399C156.245 4.89367 156.134 5.36168 156.02 5.82803C155.969 6.03622 155.964 6.01124 155.753 5.95794C155.401 5.86967 155.042 5.78806 154.681 5.74808C154.291 5.70478 153.895 5.70811 153.501 5.69479C153.11 5.68146 152.724 5.74642 152.361 5.87799C151.851 6.06287 151.434 6.36766 151.131 6.834C150.741 7.43359 150.552 8.09148 150.429 8.77934C150.334 9.30564 150.212 9.82695 150.103 10.3516C150.091 10.4049 150.079 10.4599 150.074 10.5131C150.063 10.6048 150.113 10.6564 150.205 10.6647C150.261 10.6697 150.317 10.668 150.373 10.668C152.397 10.668 154.419 10.668 156.442 10.668C156.463 10.668 156.485 10.668 156.505 10.668C156.837 10.6614 156.858 10.6447 156.922 10.3366C157.091 9.53049 157.261 8.72438 157.431 7.91993C157.623 7.00722 157.817 6.09618 158.008 5.1818C158.073 4.87035 158.068 4.86535 158.388 4.86369C160.609 4.86369 162.828 4.86369 165.049 4.86369C165.078 4.86369 165.105 4.86369 165.134 4.86535C165.32 4.87535 165.326 4.88534 165.284 5.06189C165.166 5.55655 165.035 6.04788 164.933 6.5442C164.727 7.54518 164.538 8.55116 164.339 9.55381C164.281 9.84361 164.217 10.1317 164.155 10.4199C164.116 10.6048 164.116 10.6081 164.317 10.6381C164.428 10.6547 164.54 10.6664 164.652 10.6664C165.942 10.668 167.233 10.6664 168.523 10.6664C168.579 10.6664 168.635 10.6664 168.691 10.6664C168.793 10.6647 168.819 10.693 168.795 10.8013C168.587 11.754 168.395 12.7083 168.187 13.6593C168.043 14.3155 167.888 14.9701 167.723 15.623C167.66 15.8695 167.641 15.8645 167.389 15.8628C166.014 15.8611 164.64 15.8595 163.265 15.8578C162.966 15.8578 162.959 15.8745 162.899 16.1609C162.729 16.9737 162.554 17.7848 162.377 18.5959C162.026 20.2065 161.669 21.8154 161.323 23.426C161.25 23.7674 161.196 24.1172 161.179 24.4653C161.158 24.875 161.259 25.273 161.492 25.6211C161.756 26.0159 162.171 26.1691 162.629 26.2007C163.498 26.2624 164.358 26.1641 165.209 25.9925C165.257 25.9825 165.304 25.9659 165.35 25.9492C165.522 25.8909 165.554 25.9059 165.52 26.0825C165.445 26.4805 165.359 26.8753 165.27 27.27C165.018 28.4026 164.763 29.5334 164.509 30.6643C164.487 30.7643 164.436 30.8659 164.44 30.9641C164.448 31.1823 164.326 31.2273 164.138 31.2739C163.405 31.4521 162.656 31.5254 161.911 31.6253C161.342 31.702 160.772 31.7153 160.202 31.6936C159.034 31.6487 157.887 31.4754 156.812 31.0124C155.311 30.3645 154.357 29.262 153.981 27.693C153.716 26.5838 153.765 25.4746 153.935 24.3587C154.15 22.9596 154.524 21.5939 154.819 20.2115C155.093 18.929 155.346 17.6433 155.608 16.3591C155.63 16.2509 155.663 16.146 155.685 16.0394C155.707 15.9328 155.671 15.8661 155.545 15.8678C155.426 15.8695 155.305 15.8628 155.186 15.8628C154.221 15.8628 153.255 15.8628 152.29 15.8628V15.8595V15.8645Z" fill="black"/>
<path d="M30.1031 10.6676C29.9482 11.3321 29.8002 11.96 29.6538 12.5879C29.6436 12.6279 29.6283 12.6679 29.6266 12.7078C29.6198 12.8111 29.63 12.9144 29.6147 13.016C29.5993 13.1059 29.5585 13.1925 29.5551 13.2991C29.7083 13.1525 29.8682 13.0143 30.0112 12.8594C30.5541 12.2765 31.1532 11.7552 31.8459 11.3488C33.17 10.5726 34.6047 10.1779 36.1569 10.2712C37.1559 10.3311 38.1039 10.6043 38.9446 11.1389C39.7871 11.6752 40.4406 12.3864 40.798 13.3241C40.8371 13.4257 40.8848 13.5256 40.9393 13.6472C41.1758 13.3957 41.4005 13.1625 41.6217 12.9244C42.1085 12.4031 42.6548 11.9484 43.2539 11.5586C44.1048 11.004 45.0443 10.6393 46.045 10.4261C46.8994 10.2445 47.764 10.2012 48.6286 10.3062C49.7961 10.4461 50.9108 10.7592 51.8707 11.4454C53.0025 12.2532 53.6918 13.3507 53.9845 14.6898C54.1717 15.5492 54.2568 16.4136 54.1513 17.288C54.0968 17.7377 54.0186 18.1841 53.9301 18.6288C53.6697 19.9412 53.4042 21.252 53.1302 22.5611C52.9549 23.4005 52.7557 24.2349 52.5804 25.0744C52.3081 26.3701 52.0528 27.6693 51.7805 28.965C51.6256 29.6962 51.4487 30.424 51.2853 31.1535C51.2631 31.2535 51.2325 31.3084 51.11 31.3068C49.7144 31.3001 48.3188 31.2984 46.9232 31.2968C46.0484 31.2968 45.1754 31.2968 44.3006 31.2968C44.0742 31.2968 44.047 31.2601 44.0929 31.0436C44.4129 29.5546 44.7277 28.064 45.0494 26.575C45.1481 26.1187 45.2673 25.6673 45.3643 25.2109C45.6502 23.8485 45.9276 22.4828 46.2118 21.1187C46.3633 20.3942 46.5386 19.6731 46.6765 18.9452C46.7769 18.4156 46.7837 17.876 46.6509 17.3497C46.5131 16.8084 46.2322 16.3487 45.7455 16.0272C45.5191 15.8773 45.2673 15.7757 45.0001 15.7624C44.6069 15.7424 44.2104 15.7308 43.8206 15.7657C43.4275 15.8007 43.0854 16.0023 42.7739 16.2271C42.437 16.4703 42.1629 16.7701 41.9604 17.1348C41.5128 17.9376 41.2269 18.7937 41.0482 19.6897C40.8048 20.9222 40.5478 22.1514 40.2857 23.3805C40.1308 24.105 39.947 24.8245 39.7939 25.549C39.4875 26.9997 39.1982 28.452 38.8935 29.9027C38.805 30.3258 38.691 30.7438 38.594 31.1652C38.5702 31.2718 38.5191 31.3068 38.4051 31.3068C36.1773 31.3018 33.9512 31.3001 31.7233 31.2984C31.6876 31.2984 31.6536 31.2984 31.6178 31.2984C31.3778 31.2984 31.3574 31.2834 31.4034 31.0503C31.5123 30.499 31.6314 29.9477 31.7489 29.3981C31.9446 28.4854 32.1505 27.576 32.3394 26.6616C32.3956 26.3868 32.4109 26.1037 32.4467 25.8255C32.4552 25.7639 32.4535 25.6923 32.4875 25.6456C32.6696 25.3975 32.6679 25.1043 32.7275 24.8245C33.0066 23.5154 33.2908 22.208 33.5716 20.8989C33.6788 20.4026 33.8201 19.9096 33.8712 19.4066C33.9324 18.807 33.9103 18.2007 33.929 17.5978C33.9409 17.1798 33.7776 16.8217 33.5325 16.4919C33.1513 15.9823 32.6202 15.7624 31.9888 15.7241C31.2689 15.6825 30.6086 15.8174 30.0214 16.2554C29.6164 16.5585 29.3492 16.9566 29.1211 17.383C28.813 17.9576 28.6224 18.5788 28.4642 19.2034C28.2361 20.1011 28.054 21.0105 27.8634 21.9165C27.6711 22.8376 27.5009 23.7619 27.3034 24.6813C27.1673 25.3125 26.9869 25.9338 26.8524 26.5633C26.6414 27.556 26.4508 28.5536 26.2516 29.5496C26.1495 30.0609 26.0474 30.5723 25.9487 31.0836C25.9079 31.2934 25.9079 31.2968 25.6951 31.2968C23.4111 31.2968 21.1272 31.2968 18.8432 31.2968C18.7819 31.2968 18.7189 31.2884 18.644 31.2851C18.7428 30.8154 18.8381 30.3591 18.9351 29.9044C19.0763 29.2332 19.2159 28.5603 19.3606 27.8908C19.4712 27.3745 19.592 26.8598 19.7043 26.3435C20.0158 24.8945 20.3255 23.4438 20.6336 21.9931C20.734 21.5235 20.8208 21.0505 20.9212 20.5824C21.1697 19.4282 21.4267 18.2757 21.6752 17.1215C21.8164 16.4636 21.9492 15.8041 22.087 15.1462C22.1926 14.6432 22.2981 14.1385 22.407 13.6372C22.5466 12.9943 22.6912 12.3514 22.8308 11.7069C22.8937 11.4187 22.9601 11.1306 23.0078 10.8408C23.0316 10.6959 23.1014 10.6676 23.2358 10.6676C25.3003 10.6676 27.3664 10.6676 29.4308 10.6676C29.6487 10.6676 29.8648 10.6676 30.1099 10.6676H30.1031Z" fill="black"/>
<path d="M74.6239 10.6881C74.5099 11.221 74.401 11.7273 74.2904 12.2353C74.2427 12.4568 74.1865 12.6767 74.1406 12.8982C74.1083 13.0531 74.098 13.2097 74.1831 13.3795C74.2274 13.3462 74.2682 13.3229 74.2955 13.2913C74.8758 12.6201 75.5413 12.0421 76.2867 11.5491C76.9283 11.1244 77.6329 10.833 78.3648 10.6031C79.1766 10.35 80.0105 10.2217 80.8632 10.2667C82.4987 10.3549 83.9505 10.8713 85.084 12.0688C85.7103 12.73 86.1221 13.5095 86.3587 14.3839C86.6208 15.3549 86.6242 16.3342 86.5715 17.3268C86.5255 18.1763 86.3162 18.9957 86.1528 19.8218C85.9775 20.7029 85.7562 21.5756 85.5724 22.455C85.3512 23.5093 85.1589 24.5702 84.9359 25.6245C84.7061 26.7121 84.4474 27.7947 84.2177 28.8806C84.0628 29.6117 83.9352 30.3496 83.7973 31.0841C83.7599 31.2856 83.7531 31.2956 83.5403 31.2956C81.2631 31.2956 78.9877 31.2956 76.7105 31.2956C76.525 31.2956 76.5199 31.2923 76.5556 31.1141C76.6577 30.6094 76.7667 30.1064 76.8688 29.6034C76.9981 28.9722 77.1156 28.3376 77.2517 27.7081C77.4883 26.6088 77.7385 25.5112 77.975 24.412C78.0805 23.9223 78.1622 23.4277 78.2678 22.938C78.4907 21.9054 78.7256 20.8744 78.9485 19.8418C79.1119 19.0856 79.1766 18.3245 79.0575 17.5517C78.94 16.7955 78.2439 15.9095 77.3402 15.7829C76.5505 15.673 75.7829 15.673 75.0562 16.051C74.5593 16.3109 74.1763 16.6873 73.8717 17.142C73.5092 17.6816 73.259 18.2729 73.1109 18.8974C72.8029 20.1865 72.5101 21.4773 72.2259 22.7714C71.9894 23.844 71.7749 24.9216 71.5469 25.9959C71.2797 27.2517 71.0073 28.5042 70.7401 29.76C70.638 30.2363 70.541 30.7143 70.4491 31.1923C70.4321 31.2823 70.393 31.3056 70.3096 31.3006C70.204 31.2956 70.0985 31.2973 69.993 31.2973C67.7873 31.2973 65.5816 31.2973 63.3742 31.3023C63.2244 31.3023 63.2091 31.254 63.233 31.1357C63.3283 30.666 63.4202 30.1947 63.5155 29.7233C63.6346 29.1387 63.7554 28.5541 63.8763 27.9695C63.9801 27.4666 64.0805 26.9619 64.1911 26.4606C64.4566 25.2397 64.7289 24.0222 64.9944 22.8014C65.1272 22.1918 65.2446 21.5789 65.3757 20.9677C65.5697 20.075 65.7756 19.1856 65.9645 18.2928C66.1773 17.2935 66.3764 16.2909 66.5857 15.2899C66.7355 14.5721 66.8938 13.8542 67.0504 13.138C67.2206 12.3602 67.3942 11.5841 67.5609 10.8046C67.5848 10.6897 67.6494 10.6664 67.7533 10.6664C68.0919 10.6664 68.4306 10.6597 68.7676 10.6581C70.233 10.6547 71.7 10.6497 73.1654 10.6497C73.6096 10.6497 74.0538 10.6614 74.498 10.6681C74.5456 10.6681 74.5933 10.6797 74.629 10.6847L74.6239 10.6881Z" fill="black"/>
<path d="M116.124 22.401C116.149 21.1202 116.307 19.8611 116.707 18.6452C117.349 16.6949 118.362 14.9561 119.892 13.5221C121.343 12.1597 123.03 11.2187 124.977 10.709C126.286 10.3659 127.615 10.2127 128.97 10.2693C129.753 10.3026 130.524 10.4176 131.288 10.5891C132.428 10.8456 133.51 11.242 134.491 11.8749C135.279 12.3829 135.97 12.9941 136.542 13.7303C136.907 14.2033 137.214 14.7096 137.452 15.2576C137.711 15.8505 137.988 16.4351 138.114 17.0747C138.233 17.6826 138.288 18.2955 138.34 18.9117C138.41 19.7195 138.332 20.5173 138.254 21.3151C138.16 22.2844 137.837 23.1988 137.503 24.1132C136.896 25.782 135.934 27.2277 134.635 28.4535C133.767 29.273 132.789 29.9475 131.694 30.4738C130.745 30.9318 129.763 31.2633 128.726 31.4515C127.7 31.638 126.665 31.7712 125.619 31.7046C124.259 31.6197 122.914 31.4215 121.639 30.9302C120.676 30.5587 119.793 30.0391 119.022 29.3662C118.202 28.6501 117.558 27.7973 117.083 26.8196C116.661 25.9486 116.389 25.0375 116.263 24.0882C116.19 23.5319 116.166 22.9673 116.12 22.4077L116.124 22.401ZM131.548 20.0293C131.548 19.8644 131.557 19.6995 131.548 19.5346C131.526 19.1716 131.514 18.8035 131.366 18.4637C130.895 17.3828 130.13 16.6216 128.91 16.3751C128.26 16.2436 127.61 16.2652 126.96 16.3968C126.373 16.515 125.819 16.7182 125.343 17.0747C124.683 17.5677 124.138 18.1539 123.729 18.8751C122.999 20.1675 122.766 21.5383 123.027 22.9739C123.227 24.0765 123.847 24.9193 124.928 25.3856C125.751 25.742 126.619 25.7704 127.477 25.5971C128.971 25.2957 130.044 24.4096 130.763 23.1255C131.3 22.1678 131.637 21.1452 131.548 20.031V20.0293Z" fill="black"/>
<path d="M99.1721 24.5062C100.159 24.5062 101.145 24.5062 102.132 24.5062C102.297 24.5062 102.316 24.5195 102.322 24.6961C102.35 25.4039 102.63 25.9985 103.17 26.4732C103.587 26.8396 104.092 27.0295 104.635 27.1111C105.359 27.2193 106.084 27.186 106.79 26.9912C107.265 26.8596 107.67 26.6198 107.925 26.1917C108.248 25.6521 108.114 24.9143 107.624 24.5079C107.249 24.1964 106.831 23.9582 106.371 23.7934C105.976 23.6518 105.566 23.5502 105.166 23.4186C104.446 23.1821 103.725 22.9539 103.015 22.6924C102.43 22.4776 101.853 22.2378 101.289 21.9729C100.532 21.6149 99.8852 21.1052 99.361 20.4623C99.138 20.1892 98.9457 19.8944 98.8198 19.5613C98.6428 19.0916 98.4488 18.6252 98.3841 18.1239C98.2956 17.4327 98.3092 16.7415 98.4624 16.057C98.6138 15.3775 98.8266 14.7196 99.1602 14.1017C99.6197 13.2489 100.289 12.5844 101.077 12.0214C102.222 11.2037 103.531 10.7973 104.908 10.5408C105.929 10.3509 106.955 10.251 107.993 10.2626C109.375 10.2793 110.703 10.5441 111.988 11.0371C113.068 11.4518 114.003 12.0781 114.786 12.9075C115.432 13.592 115.912 14.3848 116.198 15.2742C116.382 15.8455 116.484 16.4351 116.484 17.038C116.484 17.2428 116.443 17.2795 116.237 17.2795C114.447 17.2795 112.656 17.2778 110.866 17.2762C110.718 17.2762 110.57 17.2762 110.422 17.2695C110.223 17.2612 110.211 17.2478 110.178 17.0613C110.151 16.9064 110.124 16.7499 110.085 16.5983C109.826 15.5873 109.094 15.0893 108.1 14.9028C107.529 14.7962 106.946 14.8245 106.378 14.9394C105.881 15.0394 105.449 15.2609 105.173 15.7006C104.901 16.1336 104.928 16.6249 105.245 17.028C105.554 17.4227 105.964 17.6809 106.439 17.8408C107.11 18.0673 107.787 18.2771 108.458 18.5053C109.401 18.8268 110.352 19.1266 111.276 19.493C112.136 19.8344 112.919 20.3207 113.553 20.9919C114.369 21.8514 114.835 22.8623 114.901 24.0465C114.944 24.7927 114.922 25.5272 114.724 26.2533C114.389 27.4842 113.764 28.5484 112.776 29.3945C111.872 30.1673 110.822 30.687 109.69 31.055C108.905 31.3099 108.094 31.4398 107.277 31.5464C106.586 31.6363 105.895 31.7096 105.195 31.7129C104.411 31.7163 103.636 31.6446 102.862 31.5247C102.059 31.3998 101.269 31.2266 100.523 30.9151C98.9355 30.2539 97.6046 29.2829 96.7843 27.7573C96.3894 27.0228 96.1426 26.235 96.0899 25.4006C96.0746 25.1474 96.0644 24.8943 96.0507 24.6394C96.0456 24.5428 96.0831 24.5112 96.1869 24.5112C97.1808 24.5145 98.1748 24.5129 99.1687 24.5129C99.1687 24.5112 99.1687 24.5095 99.1687 24.5079L99.1721 24.5062Z" fill="black"/>
<path d="M61.6923 10.6701C62.8411 10.6701 63.9899 10.6701 65.1387 10.6701C65.3038 10.6701 65.297 10.6751 65.2629 10.8334C65.1404 11.4246 65.0281 12.0176 64.9004 12.6072C64.6315 13.8546 64.3558 15.1021 64.0818 16.3479C63.7891 17.6887 63.4912 19.0294 63.2019 20.3702C62.8343 22.074 62.4735 23.7812 62.111 25.485C61.8574 26.6725 61.6038 27.8617 61.3502 29.0492C61.2038 29.7337 61.0592 30.4183 60.9145 31.1028C60.8737 31.2977 60.872 31.296 60.666 31.296C58.4314 31.296 56.1968 31.296 53.9622 31.296C53.9128 31.296 53.8634 31.2927 53.8141 31.296C53.7018 31.3043 53.6422 31.2777 53.6677 31.1478C53.7239 30.8646 53.7562 30.5782 53.8192 30.2984C54.0575 29.2258 54.3162 28.1582 54.5459 27.0856C54.8029 25.8914 55.0344 24.6922 55.2811 23.4964C55.3458 23.1799 55.4309 22.8685 55.5007 22.5537C55.5892 22.1589 55.6709 21.7625 55.756 21.3661C55.9432 20.4951 56.1321 19.6223 56.3176 18.7513C56.4657 18.0601 56.6121 17.3689 56.7584 16.6777C56.8758 16.1281 56.9933 15.5785 57.1124 15.0288C57.3252 14.0445 57.5413 13.0585 57.7506 12.0742C57.8374 11.6645 57.9208 11.2547 57.9923 10.8417C58.0178 10.7001 58.0842 10.6668 58.2187 10.6668C59.1071 10.6668 59.9955 10.6618 60.8822 10.6602C61.1494 10.6602 61.4183 10.6602 61.6855 10.6602C61.6855 10.6635 61.6855 10.6668 61.6855 10.6701H61.6923Z" fill="black"/>
<path d="M89.6484 31.3018C88.5421 31.3018 87.4359 31.3018 86.3279 31.3018C86.0454 31.3018 86.0318 31.2868 86.0913 31.022C86.43 29.508 86.7704 27.9957 87.1074 26.4818C87.1465 26.3086 87.1635 26.1287 87.1993 25.9538C87.3388 25.2826 87.4784 24.6114 87.6231 23.9402C87.8443 22.9059 88.0707 21.8733 88.2936 20.8406C88.3787 20.4442 88.4587 20.0479 88.5421 19.6515C88.7548 18.6521 88.9693 17.6528 89.1837 16.6535C89.3777 15.7475 89.5701 14.8414 89.7641 13.9354C89.9887 12.8961 90.2168 11.8568 90.438 10.8175C90.4653 10.6909 90.5283 10.6709 90.6423 10.6709C91.0865 10.6709 91.5307 10.6626 91.9749 10.6643C93.8215 10.6659 95.6681 10.6693 97.5147 10.6726C97.5351 10.6726 97.5572 10.6726 97.5776 10.6726C97.7461 10.6776 97.7478 10.6793 97.7104 10.8358C97.5742 11.3888 97.4245 11.9401 97.3053 12.4964C97.079 13.5423 96.8798 14.5949 96.6518 15.6409C96.4169 16.7201 96.1514 17.7927 95.9182 18.872C95.697 19.898 95.5098 20.9322 95.2885 21.9582C95.0332 23.1457 94.749 24.3266 94.4954 25.5141C94.2078 26.8565 93.9423 28.2023 93.6615 29.5463C93.5662 30.0027 93.459 30.4574 93.3534 30.9121C93.3296 31.012 93.2871 31.1069 93.253 31.2052C93.2241 31.2885 93.1662 31.3151 93.0743 31.3151C91.9323 31.3135 90.7904 31.3151 89.6501 31.3151C89.6501 31.3101 89.6501 31.3068 89.6501 31.3018H89.6484Z" fill="black"/>
<path d="M91.4012 3.69892C91.3536 2.7479 91.871 1.83353 92.6862 1.0524C93.0061 0.74594 93.4078 0.552739 93.8146 0.376193C94.594 0.0397573 95.4144 -0.0884881 96.2483 0.0630747C97.0363 0.204644 97.7613 0.517763 98.3706 1.05073C99.0344 1.632 99.4632 2.33985 99.5994 3.19926C99.7509 4.16526 99.6402 5.10462 99.0786 5.92905C98.4897 6.79346 97.6967 7.41137 96.6244 7.6612C95.3412 7.96099 94.1396 7.77279 93.081 7.03996C91.9952 6.28881 91.3978 5.23453 91.4029 3.69725L91.4012 3.69892Z" fill="black"/>
<path d="M67.2547 3.85602C67.2087 5.52654 66.431 6.69241 64.9809 7.39027C63.8406 7.93989 62.6408 7.93489 61.4562 7.46522C60.253 6.98888 59.4667 6.11947 59.1348 4.91363C58.8761 3.97261 58.9357 3.01993 59.4207 2.1322C59.9449 1.17453 60.7533 0.568277 61.8068 0.226844C62.4689 0.0119916 63.1343 -0.0463018 63.8049 0.0586263C64.5452 0.176879 65.2311 0.465014 65.8234 0.931361C66.5058 1.46766 66.95 2.15552 67.1458 2.98495C67.2172 3.28974 67.2241 3.60953 67.2547 3.85769V3.85602Z" fill="black"/>
<path d="M9.37495 23.7267C13.2175 23.7267 16.3324 20.6784 16.3324 16.918C16.3324 13.1577 13.2175 10.1094 9.37495 10.1094C5.53245 10.1094 2.41748 13.1577 2.41748 16.918C2.41748 20.6784 5.53245 23.7267 9.37495 23.7267Z" fill="black"/>
<mask id="mask0_141_34536" style="mask-type:luminance" maskUnits="userSpaceOnUse" x="0" y="21" width="15" height="11">
<path d="M14.5866 25.1835C14.5866 28.9393 11.4687 31.9905 7.63082 31.9905C3.79298 31.9905 0.675049 28.9393 0.675049 25.1835C0.675049 23.6329 1.20265 22.2039 2.09786 21.0547C3.5513 23.5113 6.27268 25.1619 9.37699 25.1619C11.2474 25.1619 12.9868 24.559 14.3824 23.5397C14.5151 24.0643 14.5883 24.6172 14.5883 25.1835H14.5866Z" fill="white"/>
</mask>
<g mask="url(#mask0_141_34536)">
<path d="M7.6291 31.9923C11.4716 31.9923 14.5866 28.944 14.5866 25.1837C14.5866 21.4233 11.4716 18.375 7.6291 18.375C3.7866 18.375 0.671631 21.4233 0.671631 25.1837C0.671631 28.944 3.7866 31.9923 7.6291 31.9923Z" fill="black"/>
<path opacity="0.93" d="M7.6291 31.9923C11.4716 31.9923 14.5866 28.944 14.5866 25.1837C14.5866 21.4233 11.4716 18.375 7.6291 18.375C3.7866 18.375 0.671631 21.4233 0.671631 25.1837C0.671631 28.944 3.7866 31.9923 7.6291 31.9923Z" fill="black"/>
<path d="M7.6291 31.9923C11.4716 31.9923 14.5866 28.944 14.5866 25.1837C14.5866 21.4233 11.4716 18.375 7.6291 18.375C3.7866 18.375 0.671631 21.4233 0.671631 25.1837C0.671631 28.944 3.7866 31.9923 7.6291 31.9923Z" fill="black"/>
</g>
<path d="M171.395 11.4338V10.8259H174.928V11.4338H171.395ZM172.823 15.3078V11.199H173.499V15.3078H172.823ZM175.572 15.3078V10.8259H176.259V15.3078H175.572ZM177.786 14.112L175.648 11.0274L175.943 10.9092L176.302 10.8242L178.133 13.4707L177.784 14.1103L177.786 14.112ZM177.786 14.112L177.459 13.4724L179.28 10.8259L179.639 10.9108L179.934 11.0174L177.786 14.112ZM179.323 15.3078V10.8259H179.998V15.3078H179.323Z" fill="black"/>
</svg>