<svg xmlns="http://www.w3.org/2000/svg" id="Calque_1" viewBox="0 0 850.62 206.28"><defs><style>.cls-1{fill:currentColor;}.cls-2{opacity:.3;}</style></defs><g class="cls-2"><path class="cls-1" d="m211.3,43.98c-6.01,2.94-13.04,2.94-19.04,0L107.48,0l94.11,94.11L296.09,0l-84.78,43.98Z"/><path class="cls-1" d="m103.83,156.15c-6.01,2.94-13.04,2.94-19.04,0L0,112.17l94.11,94.11,94.5-94.11-84.78,43.98Z"/><path class="cls-1" d="m316.7,156.15c-6.01,2.94-13.04,2.94-19.04,0l-84.78-43.98,94.11,94.11,94.5-94.11-84.78,43.98Z"/><path class="cls-1" d="m424.17,50.26c-6.01,2.94-13.04,2.94-19.04,0L320.35,6.29l94.11,94.11L508.96,6.29l-84.78,43.98Z"/></g><path class="cls-1" d="m46.06,111.34h11.21v.82c0,3.32.62,5.62,1.86,6.92,1.24,1.3,3.06,1.95,5.46,1.95s4.26-.71,5.49-2.12c1.24-1.41,1.86-3.9,1.86-7.46v-36.9h11.4v35.93c0,6.16-1.67,10.9-5.01,14.22-3.34,3.32-7.88,4.97-13.62,4.97s-10.22-1.46-13.59-4.38c-3.37-2.92-5.05-7.37-5.05-13.36v-.59Z"/><path class="cls-1" d="m94.32,99.91c0-8.64,2.26-15.2,6.78-19.69,4.52-4.49,10.34-6.74,17.46-6.74s12.93,2.25,17.48,6.74,6.83,11.06,6.83,19.69v3.34c0,8.64-2.28,15.2-6.83,19.69-4.55,4.49-10.38,6.74-17.48,6.74s-12.95-2.25-17.46-6.74c-4.52-4.49-6.78-11.06-6.78-19.69v-3.34Zm15.09,16.93c2.26,2.75,5.31,4.12,9.15,4.12s6.87-1.37,9.17-4.12c2.3-2.75,3.45-6.92,3.45-12.51v-5.46c0-5.62-1.15-9.79-3.45-12.53-2.3-2.73-5.36-4.1-9.17-4.1s-6.89,1.37-9.15,4.1c-2.26,2.73-3.4,6.91-3.4,12.53v5.46c0,5.59,1.13,9.76,3.4,12.51Z"/><path class="cls-1" d="m153.54,74.56h11.4v34.82c0,4.28.91,7.28,2.73,9,1.82,1.72,4.22,2.58,7.22,2.58s5.36-.86,7.18-2.58c1.82-1.72,2.73-4.72,2.73-9v-34.82h11.13v34.23c0,7.23-2.04,12.52-6.11,15.87-4.07,3.35-9.09,5.03-15.05,5.03s-10.99-1.68-15.09-5.03c-4.1-3.35-6.14-8.64-6.14-15.87v-34.23Z"/><path class="cls-1" d="m208.7,74.56h20.16c5.99,0,10.69,1.16,14.11,3.49s5.12,5.93,5.12,10.8c0,2.97-.69,5.41-2.06,7.33-1.37,1.92-3.06,3.22-5.07,3.92v.15c2.47.72,4.52,2.15,6.14,4.31s2.43,4.99,2.43,8.5c0,4.92-1.8,8.75-5.4,11.47-3.6,2.72-8.33,4.08-14.2,4.08h-21.23v-54.05Zm19.93,22.2c2.89,0,4.98-.62,6.25-1.86,1.28-1.24,1.91-2.98,1.91-5.23s-.64-3.95-1.91-5.16c-1.27-1.21-3.36-1.82-6.25-1.82h-8.65v14.07h8.65Zm1.04,23.79c2.95,0,5.1-.73,6.46-2.19,1.36-1.46,2.04-3.44,2.04-5.94s-.68-4.4-2.04-5.87c-1.36-1.46-3.51-2.19-6.46-2.19h-9.69v16.18h9.69Z"/><path class="cls-1" d="m260.46,74.56h36.42v8.65h-25.09v13.33h21.71v8.54h-21.71v14.92h25.46v8.61h-36.79v-54.05Z"/><path class="cls-1" d="m307.31,74.56h19.71c6.31,0,11.23,1.49,14.76,4.47,3.53,2.98,5.29,7.18,5.29,12.6s-1.78,9.7-5.33,12.77c-3.55,3.07-8.47,4.6-14.76,4.6h-8.28v19.6h-11.4v-54.05Zm19.3,26.02c3.32,0,5.65-.8,7.02-2.39s2.04-3.75,2.04-6.48-.68-4.81-2.04-6.35c-1.36-1.53-3.7-2.3-7.02-2.3h-7.91v17.52h7.91Zm-2.45,3.12l12.03-.56,13.44,25.46h-12.73l-12.73-24.91Z"/><path class="cls-1" d="m350.08,74.56h43.54v8.65h-16.07v45.4h-11.4v-45.4h-16.07v-8.65Z"/><path class="cls-1" d="m545.89,99.91c0-8.64,2.26-15.2,6.78-19.69,4.52-4.49,10.34-6.74,17.46-6.74s12.93,2.25,17.48,6.74,6.83,11.06,6.83,19.69v3.34c0,8.64-2.28,15.2-6.83,19.69-4.55,4.49-10.38,6.74-17.48,6.74s-12.95-2.25-17.46-6.74c-4.52-4.49-6.78-11.06-6.78-19.69v-3.34Zm15.09,16.93c2.26,2.75,5.31,4.12,9.15,4.12s6.87-1.37,9.17-4.12c2.3-2.75,3.45-6.92,3.45-12.51v-5.46c0-5.62-1.15-9.79-3.45-12.53-2.3-2.73-5.36-4.1-9.17-4.1s-6.89,1.37-9.15,4.1c-2.26,2.73-3.4,6.91-3.4,12.53v5.46c0,5.59,1.13,9.76,3.4,12.51Z"/><path class="cls-1" d="m616.76,109.49l-18.78-34.93h12.66l10.47,20.16c.35.69.66,1.37.93,2.04.27.67.53,1.34.78,2h.26c.22-.67.47-1.33.74-1.99.27-.66.59-1.34.97-2.06l10.65-20.16h11.1l-18.34,34.3v19.75h-11.43v-19.12Z"/><path class="cls-1" d="m665.51,74.29h11.99l20.9,54.31h-12.25l-13.92-38.2c-.3-.84-.53-1.65-.71-2.41s-.33-1.53-.48-2.3h-.33c-.12.77-.28,1.54-.46,2.32-.19.78-.43,1.58-.72,2.39l-13.92,38.2h-10.62l20.53-54.31Zm-6.2,33.93h23.87l2.64,8.46h-29.14l2.64-8.46Z"/><path class="cls-1" d="m702.78,99.91c0-8.66,2.24-15.23,6.72-19.71,4.48-4.48,10.38-6.72,17.71-6.72,6.66,0,11.92,1.63,15.79,4.9s5.82,7.36,5.85,12.29v.52h-11.47v-.41c0-2.33-.89-4.34-2.67-6.03-1.78-1.69-4.43-2.54-7.94-2.54-3.71,0-6.69,1.37-8.93,4.12-2.24,2.75-3.36,6.87-3.36,12.36v5.79c0,5.64,1.21,9.81,3.62,12.49,2.41,2.69,5.71,4.03,9.89,4.03,2.08,0,3.86-.22,5.34-.65,1.49-.43,2.93-1.14,4.34-2.13v-9.61h-10.43v-8.46h21.64v21.9c-1.88,1.91-4.57,3.66-8.07,5.25s-7.79,2.39-12.86,2.39c-7.82,0-13.97-2.24-18.45-6.72-4.48-4.48-6.72-11.05-6.72-19.71v-3.34Z"/><path class="cls-1" d="m760.07,74.56h36.42v8.65h-25.09v13.33h21.71v8.54h-21.71v14.92h25.46v8.61h-36.79v-54.05Z"/><path class="cls-1" d="m803.91,112.27h11.62v.85c0,2.65.85,4.63,2.56,5.96,1.71,1.32,4.1,1.99,7.16,1.99s5.38-.62,7.02-1.86c1.63-1.24,2.45-2.88,2.45-4.94s-.77-3.77-2.32-4.92c-1.55-1.15-4.96-2.41-10.23-3.77-5.67-1.46-9.99-3.45-12.96-5.98-2.97-2.52-4.47-6-4.49-10.43,0-4.78,1.82-8.59,5.47-11.43s8.56-4.27,14.72-4.27,11.06,1.47,14.77,4.42c3.71,2.95,5.57,6.87,5.57,11.77v.93h-11.43v-.78c0-2.3-.74-4.16-2.23-5.57-1.48-1.41-3.7-2.12-6.64-2.12s-5.11.56-6.5,1.67c-1.39,1.11-2.08,2.62-2.08,4.53s.74,3.26,2.23,4.21,4.86,2.13,10.13,3.54c5.57,1.48,9.88,3.53,12.95,6.12,3.07,2.6,4.62,6.35,4.64,11.25,0,5.12-1.92,9.11-5.77,11.95-3.85,2.85-8.94,4.27-15.28,4.27s-11.45-1.4-15.42-4.19c-3.97-2.8-5.96-6.88-5.96-12.25v-.96Z"/><path class="cls-1" d="m499.83,83.11c-6.01,2.94-13.04,2.94-19.04,0l-84.78-43.98,94.11,94.11,94.5-94.11-84.78,43.98Zm-48.07-2.94l34.65,17.97c2.46,1.2,5.33,1.2,7.78,0l34.65-17.97-38.62,38.46-38.46-38.46Z"/></svg>