<svg xmlns="http://www.w3.org/2000/svg" viewBox="0 0 1017.99 331.23">
  <defs>
    <style>
      .cls-1 {
        fill: #1d1d1b;
      }
    </style>
  </defs>
  <g id="_VOTRE_TEXTE_ICI_" data-name="[VOTRE TEXTE ICI]">
    <g>
      <g>
        <polygon class="cls-1" points="426.11 98.67 426.85 98.67 467.48 157.29 478.57 157.29 478.57 77.36 466.62 77.36 466.62 136.06 465.88 136.06 425.21 77.36 414.05 77.36 414.05 157.29 426.11 157.29 426.11 98.67"/>
        <path class="cls-1" d="M505.73,154.64a30,30,0,0,0,29.43,0,26.08,26.08,0,0,0,9.76-10.82,35.93,35.93,0,0,0,3.47-16.23,36.32,36.32,0,0,0-3.47-16.32,26.1,26.1,0,0,0-9.76-10.85,30,30,0,0,0-29.43,0A26.1,26.1,0,0,0,496,111.27a36.32,36.32,0,0,0-3.47,16.32A35.93,35.93,0,0,0,496,143.82,26.08,26.08,0,0,0,505.73,154.64ZM506,117a17.26,17.26,0,0,1,5.35-7.75,15.59,15.59,0,0,1,18.17,0,17.38,17.38,0,0,1,5.33,7.75,33.16,33.16,0,0,1,0,21.14,17.14,17.14,0,0,1-5.33,7.69,15.77,15.77,0,0,1-18.17,0,17,17,0,0,1-5.35-7.69A33.16,33.16,0,0,1,506,117Z"/>
        <path class="cls-1" d="M565.41,142.11a15.58,15.58,0,0,0,2.46,9,14.58,14.58,0,0,0,6.44,5.31,20.46,20.46,0,0,0,8.58,1.64,24.57,24.57,0,0,0,4.69-.45,20.47,20.47,0,0,0,2.88-.8l-2.1-9.64-1.64.31a13.75,13.75,0,0,1-2.46.2,9.8,9.8,0,0,1-3.53-.61,5.17,5.17,0,0,1-2.64-2.3,10.09,10.09,0,0,1-1-5.09v-33h12.29V97.34H577.08V83H565.41V97.34h-8.79v9.37h8.79Z"/>
        <rect class="cls-1" x="602.25" y="97.34" width="11.67" height="59.95"/>
        <path class="cls-1" d="M608.14,88.09a7.29,7.29,0,0,0,5.21-2,6.66,6.66,0,0,0,0-9.84,7.67,7.67,0,0,0-10.42,0,6.68,6.68,0,0,0,0,9.84A7.3,7.3,0,0,0,608.14,88.09Z"/>
        <path class="cls-1" d="M640.15,154.64a30,30,0,0,0,29.43,0,26,26,0,0,0,9.75-10.82,35.8,35.8,0,0,0,3.48-16.23,36.19,36.19,0,0,0-3.48-16.32,26,26,0,0,0-9.75-10.85,30,30,0,0,0-29.43,0,26.1,26.1,0,0,0-9.76,10.85,36.19,36.19,0,0,0-3.47,16.32,35.79,35.79,0,0,0,3.47,16.23A26.08,26.08,0,0,0,640.15,154.64Zm.29-37.65a17.26,17.26,0,0,1,5.35-7.75,15.59,15.59,0,0,1,18.17,0,17.37,17.37,0,0,1,5.32,7.75,33,33,0,0,1,0,21.14,17.12,17.12,0,0,1-5.32,7.69,15.77,15.77,0,0,1-18.17,0,17,17,0,0,1-5.35-7.69,33,33,0,0,1,0-21.14Z"/>
        <path class="cls-1" d="M707.47,121.69a17,17,0,0,1,1.82-8.13,12.59,12.59,0,0,1,5-5.14,14.55,14.55,0,0,1,7.21-1.75q5.92,0,9.32,3.69t3.4,10.2v36.73h11.67V119.16a27.47,27.47,0,0,0-2.54-12.45,17.29,17.29,0,0,0-7.14-7.59,21.7,21.7,0,0,0-10.73-2.56,20.07,20.07,0,0,0-11.19,2.89,17,17,0,0,0-6.49,7.65H707V97.34H695.8v59.95h11.67Z"/>
        <polygon class="cls-1" points="466.23 243.73 429.12 243.73 429.12 224.64 463.31 224.64 463.31 210.71 429.12 210.71 429.12 191.66 466.08 191.66 466.08 177.73 412.21 177.73 412.21 257.66 466.23 257.66 466.23 243.73"/>
        <polygon class="cls-1" points="495.43 257.66 514.16 257.66 535.12 197.71 517.52 197.71 505.11 240.6 504.48 240.6 492.03 197.71 474.47 197.71 495.43 257.66"/>
        <path class="cls-1" d="M591.34,250.15a21.08,21.08,0,0,0,4.79-9.66l-15.38-1a10.32,10.32,0,0,1-2.5,3.83,10.54,10.54,0,0,1-3.94,2.34,15.78,15.78,0,0,1-5.08.78,14.22,14.22,0,0,1-7.22-1.76,11.87,11.87,0,0,1-4.7-5,16.65,16.65,0,0,1-1.66-7.69v0h40.83v-4.57A37.93,37.93,0,0,0,594.33,214a25.9,25.9,0,0,0-6-9.51,25.11,25.11,0,0,0-9-5.68,31.76,31.76,0,0,0-11.06-1.89,29.42,29.42,0,0,0-15.36,3.9,26.57,26.57,0,0,0-10.13,10.89,38.91,38.91,0,0,0,0,32.65,25.5,25.5,0,0,0,10.25,10.7,31.75,31.75,0,0,0,15.9,3.76,35,35,0,0,0,13.1-2.28A24,24,0,0,0,591.34,250.15Zm-29.46-39.07a12.76,12.76,0,0,1,6.69-1.74,12.6,12.6,0,0,1,6.38,1.58,11.4,11.4,0,0,1,4.31,4.35,12.77,12.77,0,0,1,1.57,6.37H555.69a13.11,13.11,0,0,1,1.64-5.92A12.43,12.43,0,0,1,561.88,211.08Z"/>
        <path class="cls-1" d="M640.46,211.57a22,22,0,0,1,3.24.62V197.44a18.65,18.65,0,0,0-2.53-.43,23.86,23.86,0,0,0-2.7-.16,14.57,14.57,0,0,0-8.9,2.87,15.59,15.59,0,0,0-5.5,8.45h-.62V197.71H607.33v60H624V223.74a12.6,12.6,0,0,1,1.66-6.48,11.87,11.87,0,0,1,4.53-4.39,13.35,13.35,0,0,1,6.54-1.58A27.85,27.85,0,0,1,640.46,211.57Z"/>
        <path class="cls-1" d="M679.26,241.74l-12.41-44H649.36l21.51,61.67-1,2.53a8.19,8.19,0,0,1-2.83,4A6.76,6.76,0,0,1,663,267a20.53,20.53,0,0,1-5.29-1l-3.74,12.41a21.51,21.51,0,0,0,4.54,1.23,33.53,33.53,0,0,0,5.92.49,25.62,25.62,0,0,0,10.54-2,19.15,19.15,0,0,0,7.24-5.58,28.48,28.48,0,0,0,4.54-8.45L710,197.71h-17.6l-12.53,44Z"/>
        <path class="cls-1" d="M751.5,256.92l-2.61-12.37-1.8.33a13.22,13.22,0,0,1-2.34.21,8.1,8.1,0,0,1-3-.5,3.87,3.87,0,0,1-2-1.78,7.46,7.46,0,0,1-.7-3.57v-29h11.28V197.71H739.13V183.35H722.5v14.36h-8.19V210.2h8.19v31.22a17.51,17.51,0,0,0,2.46,9.76,14.67,14.67,0,0,0,7,5.7,25.1,25.1,0,0,0,10.52,1.6,29.63,29.63,0,0,0,5.5-.64C749.5,257.48,750.67,257.18,751.5,256.92Z"/>
        <path class="cls-1" d="M818,257.66V219.49a25.92,25.92,0,0,0-2.56-12.08,18.57,18.57,0,0,0-7.26-7.77,21.28,21.28,0,0,0-10.91-2.71,20,20,0,0,0-11.35,3,17.08,17.08,0,0,0-6.56,8.34h-.7V177.73H762.47v79.93h16.62V223a14.21,14.21,0,0,1,1.51-6.61,10,10,0,0,1,4.06-4.2,12.12,12.12,0,0,1,6-1.44,10.21,10.21,0,0,1,7.9,3.08c1.89,2.06,2.82,4.93,2.79,8.63v35.2Z"/>
        <path class="cls-1" d="M839.47,190a8.92,8.92,0,0,0,6.35-2.48,8,8,0,0,0,0-11.88,9.41,9.41,0,0,0-12.71,0,8,8,0,0,0,0,11.88A9,9,0,0,0,839.47,190Z"/>
        <rect class="cls-1" x="831.08" y="197.71" width="16.63" height="59.95"/>
        <path class="cls-1" d="M916.24,257.66V219.49a26.31,26.31,0,0,0-2.57-12,18.65,18.65,0,0,0-7.22-7.79,21.12,21.12,0,0,0-10.89-2.73A20.31,20.31,0,0,0,884.2,200a16.83,16.83,0,0,0-6.67,8.3h-.71V197.71H861v60H877.6V223a14.59,14.59,0,0,1,1.47-6.61,9.86,9.86,0,0,1,4-4.2,11.81,11.81,0,0,1,5.91-1.44,10.13,10.13,0,0,1,7.85,3.1c1.9,2.07,2.83,4.94,2.81,8.61v35.2Z"/>
        <path class="cls-1" d="M985.64,258.25V197.71H969.13v10.07h-.63a22.92,22.92,0,0,0-3.22-4.94,16.63,16.63,0,0,0-5.48-4.21,18.75,18.75,0,0,0-8.43-1.7,22.64,22.64,0,0,0-12.12,3.4,23.77,23.77,0,0,0-8.84,10.22q-3.31,6.84-3.32,17,0,9.94,3.26,16.45a22.06,22.06,0,0,0,8.78,9.64,24.37,24.37,0,0,0,12.28,3.14,21.68,21.68,0,0,0,8.19-1.4,16.69,16.69,0,0,0,5.63-3.63A15.8,15.8,0,0,0,968.5,247h.71v11q0,6.17-3.54,8.8a14.54,14.54,0,0,1-8.95,2.64,17.34,17.34,0,0,1-6.15-1,11,11,0,0,1-4-2.52,10,10,0,0,1-2.22-3.35l-15.38,2.07a18.24,18.24,0,0,0,4.41,8.5,23,23,0,0,0,9.15,6,38.75,38.75,0,0,0,13.84,2.2,41.42,41.42,0,0,0,15.2-2.59,22.72,22.72,0,0,0,10.36-7.75A21.18,21.18,0,0,0,985.64,258.25Zm-17.86-21.72a12.65,12.65,0,0,1-4.29,5.77,12.57,12.57,0,0,1-13.7,0,12.6,12.6,0,0,1-4.25-5.81,24.63,24.63,0,0,1-1.47-9,25.78,25.78,0,0,1,1.45-9,13.47,13.47,0,0,1,4.25-6.1,11.92,11.92,0,0,1,13.74-.06,13.37,13.37,0,0,1,4.29,6,25.59,25.59,0,0,1,1.48,9.15A24.44,24.44,0,0,1,967.78,236.53Z"/>
        <path class="cls-1" d="M1008.63,240a9.05,9.05,0,0,0-6.62,2.73,8.93,8.93,0,0,0-2.75,6.56,9.41,9.41,0,0,0,9.37,9.37,8.86,8.86,0,0,0,4.64-1.27,10.11,10.11,0,0,0,3.42-3.4,9.1,9.1,0,0,0-1.51-11.26A9.11,9.11,0,0,0,1008.63,240Z"/>
      </g>
      <g>
        <path class="cls-1" d="M57.72,171.53c0,1-.13,2-.13,3,0,15.39,0,30.8-.06,46.18,0,2.88.59,4.44,3,5.52a17.09,17.09,0,0,1,3.73,2.55,6.38,6.38,0,0,1,2,2.52c.2.88-.22,2.2-.78,2.39-1.31.46-2.85,1.06-4.32.38-7.06-3.29-14.13-7-21.15-10.5-.57-4.63.62-6.1,4.66-5.17,1.67.38,2.22,0,2.21-2.11q-.06-32.79,0-65.6c0-.46-.09-1-.17-1.85a17,17,0,0,1-3.74-2A30.13,30.13,0,0,1,39.76,143c.85-1.15,1.48-2.72,2.62-3.29.76-.38,2.23.52,3.38,1.09,6.13,3,12.26,6.24,18.39,9.18,2.48,1.19,3.6,3.5,4.75,6.3q12.38,30.22,24.83,60.43c.4,1,.88,1.94,1.63,3.6V173.61a26.92,26.92,0,0,1-4-2.38c-1-.85-2.45-2.39-2.68-3.47a3,3,0,0,1,1.3-2.91,4.3,4.3,0,0,1,3.66,0c6.6,3.17,13.2,6.6,19.72,9.9,1.22,5.81.65,6.14-7.18,4.51v3.8q0,34.68.06,69.35c0,2.67-.67,3.59-2.72,3-1-.28-1.88-.39-2.82-.59-6.73-1.38-9.9-4.29-13.63-13.29q-12.34-29.77-24.5-59.66l-4.2-10.26Z"/>
        <path d="M296.16,64.78,178,5.38a50.94,50.94,0,0,0-45.56,0L14.2,64.78A29.41,29.41,0,0,0,0,80.24a19.71,19.71,0,0,1,26.44-8.72l118.32,60.4c9.55,4.8,16.26,15,16.26,24.66V308.46a19.66,19.66,0,0,1-25.35,18.88A50.9,50.9,0,0,0,178,325.85l118.21-59.4A29.43,29.43,0,0,0,312.47,240V91.11A29.42,29.42,0,0,0,296.16,64.78Zm-24.3,156.34L204.36,255v-6.57l9-5.43V177.22l-9,3.61v-6.57l64.52-32.65c.39,9.28.59,13.93,1,23.22l-6.72,3.39c-2-14-15.4-9.67-23.92-4.45l-9.09,4.6v29.11L235,195c9.21-4.65,11.95-9.38,13.82-20.15l5.48-2.77v34.23l-5.73,2.88c-2-10.79-4.36-11.79-14.57-6.64l-3.86,1.94v30.14l8.84-4.44c15.31-7.34,24.66-17,27.16-34.11l6.72-3.39Q272.36,206.93,271.86,221.12Z"/>
      </g>
    </g>
  </g>
</svg>