<svg width="336" height="74" viewBox="0 0 336 74" fill="none" xmlns="http://www.w3.org/2000/svg">
<path d="M68.3223 22.7796C65.148 16.3453 59.8711 11.696 53.4551 9.69065C47.5358 7.83841 40.7726 8.28654 35.5853 10.6504C28.0153 5.31772 19.1644 2.22941 5.51466 0L4.15155 8.35749C15.0378 10.135 22.421 12.4429 28.4859 16.1287C22.7496 22.5518 19.8404 31.4433 21.1027 39.4161C22.6338 49.0732 29.2888 53.3976 35.2118 53.4013C41.1273 53.3976 47.7823 49.0694 49.3135 39.4161C50.5085 31.8914 47.9802 23.5488 42.8714 17.2341C45.3324 16.827 48.1595 16.9054 50.9231 17.7718C55.1655 19.0975 58.5528 22.1261 60.7225 26.5251C63.7326 32.6308 63.8745 40.4543 61.1147 47.9902C58.676 54.6448 53.6418 59.9812 46.9346 63.0098C40.2423 66.0346 32.8478 66.3446 26.1144 63.8799C14.388 59.4547 7.80768 49.23 8.50604 36.5257H0.0398107C-0.669754 52.6619 8.14752 66.1578 23.1529 71.8117L23.1903 71.8266C27.1489 73.2755 31.2756 74 35.4135 74C40.5037 74 45.6125 72.9058 50.4301 70.7287C59.225 66.7553 65.8501 59.7161 69.0767 50.9067C72.632 41.2049 72.3594 30.9541 68.3298 22.7796H68.3223ZM40.9556 38.0867C40.2945 42.243 38.0389 44.9318 35.2155 44.9318C32.3848 44.9318 30.1291 42.243 29.4681 38.0867C28.5755 32.4702 30.8947 25.894 35.2118 21.3232C39.5252 25.8866 41.8444 32.4628 40.9518 38.083L40.9556 38.0867Z" fill="#222426"/>
<path d="M98.355 22.773V59.791H99.019C109.809 59.874 116.532 53.317 116.532 41.199C116.532 29.247 109.975 22.69 99.019 22.773H98.355ZM86.818 12.564H98.438C117.279 12.564 128.567 23.354 128.567 41.199C128.567 58.878 117.196 70 98.438 70H86.818V12.564Z" fill="#222426"/>
<path d="M143.197 47.839C143.197 55.309 148.177 60.704 155.315 60.704C162.619 60.704 167.35 55.226 167.35 47.839C167.35 40.452 162.37 34.891 155.232 34.891C147.928 34.891 143.197 40.369 143.197 47.839ZM132.075 47.922C132.075 34.725 141.869 24.848 155.232 24.848C169.259 24.848 178.472 34.642 178.472 47.756C178.472 60.787 168.927 70.747 155.232 70.747C141.371 70.747 132.075 61.036 132.075 47.922Z" fill="#222426"/>
<path d="M204.673 60.704C209.155 60.704 211.977 58.712 213.969 57.052L220.111 64.522C217.455 67.344 212.226 70.747 204.59 70.747C190.563 70.747 181.599 60.787 181.599 47.922C181.599 34.974 191.227 24.848 204.507 24.848C212.558 24.848 217.455 28.085 220.111 30.824L213.72 38.543C211.894 36.8 208.989 34.891 204.59 34.891C197.286 34.891 192.721 40.452 192.721 47.839C192.721 55.807 198.282 60.704 204.673 60.704Z" fill="#222426"/>
<path d="M237.223 18.623V25.595H244.029V34.974H237.223V55.641C237.223 58.961 238.302 60.372 241.456 60.372H244.029V69.834C243.78 69.834 241.788 70.415 237.97 70.415C229.587 70.415 226.101 66.182 226.101 58.795V34.974H221.951V25.595H226.101V18.623H237.223Z" fill="#222426"/>
<path d="M268.83 25.429V37.049H266.008C261.692 37.049 260.198 39.124 260.198 42.942V70H249.076V25.595H260.198V29.164C261.775 26.923 264.265 25.429 268.83 25.429Z" fill="#222426"/>
<path d="M284.514 25.595V70H273.392V25.595H284.514ZM278.953 22.773C275.301 22.773 272.313 19.868 272.313 16.216C272.313 12.481 275.301 9.493 278.953 9.493C282.688 9.493 285.593 12.481 285.593 16.216C285.593 19.868 282.688 22.773 278.953 22.773Z" fill="#222426"/>
<path d="M300.443 47.839C300.443 55.309 305.423 60.704 312.561 60.704C319.865 60.704 324.596 55.226 324.596 47.839C324.596 40.452 319.616 34.891 312.478 34.891C305.174 34.891 300.443 40.369 300.443 47.839ZM289.321 47.922C289.321 34.725 299.115 24.848 312.478 24.848C326.505 24.848 335.718 34.642 335.718 47.756C335.718 60.787 326.173 70.747 312.478 70.747C298.617 70.747 289.321 61.036 289.321 47.922Z" fill="#222426"/>
</svg>
