<svg width="100%" height="100%" viewBox="0 0 94 25" fill="none" xmlns="http://www.w3.org/2000/svg">
  <path d="M8.46118 24.5C7.18816 24.5 6.02489 24.3207 4.97136 23.9622C3.93977 23.6036 3.05085 23.0546 2.3046 22.3151C1.55835 21.5756 0.987687 20.6569 0.592612 19.5588C0.197537 18.4384 0 17.1274 0 15.626C0 14.1919 0.197537 12.9258 0.592612 11.8277C1.00964 10.7297 1.5803 9.81092 2.3046 9.07143C3.05085 8.30952 3.95075 7.73809 5.00428 7.35714C6.05781 6.95378 7.22109 6.7521 8.49411 6.7521C9.59154 6.7521 10.6231 6.92017 11.5889 7.2563C12.5546 7.59244 13.3886 8.09664 14.091 8.76891C14.8153 9.44118 15.375 10.2591 15.7701 11.2227C16.1871 12.1863 16.3956 13.3179 16.3956 14.6176C16.3956 14.9538 16.3846 15.3011 16.3627 15.6597C16.3407 15.9958 16.3078 16.3207 16.2639 16.6345H3.19352C3.19352 17.486 3.33619 18.2255 3.62152 18.8529C3.90685 19.458 4.29095 19.9734 4.77382 20.3992C5.25669 20.8249 5.8054 21.1387 6.41996 21.3403C7.03452 21.542 7.69298 21.6429 8.39534 21.6429C9.16354 21.6429 9.822 21.5532 10.3707 21.3739C10.9194 21.1947 11.3694 20.9594 11.7205 20.6681C12.0937 20.3767 12.379 20.0518 12.5765 19.6933C12.7741 19.3123 12.9277 18.9426 13.0375 18.584H16.1981C16.0225 19.6148 15.7152 20.5 15.2762 21.2395C14.8372 21.979 14.2776 22.5952 13.5972 23.0882C12.9167 23.5588 12.1376 23.9062 11.2596 24.1302C10.4036 24.3767 9.47082 24.5 8.46118 24.5ZM3.19352 14.1471H13.3338C13.3118 13.4972 13.1911 12.8922 12.9716 12.3319C12.7741 11.7717 12.4668 11.2899 12.0498 10.8866C11.6547 10.4832 11.1499 10.1695 10.5353 9.94538C9.94271 9.69888 9.24036 9.57563 8.42826 9.57563C7.7259 9.57563 7.06745 9.66527 6.45289 9.84454C5.83833 10.0014 5.30059 10.2703 4.83966 10.6513C4.37874 11.0098 3.99464 11.4804 3.68736 12.063C3.40203 12.6457 3.23742 13.3403 3.19352 14.1471Z" fill="currentColor"></path>
  <path d="M25.7033 18.7857C25.3301 18.0462 24.957 17.542 24.5839 17.2731C24.2108 17.0042 23.684 16.8697 23.0036 16.8697H21.0611V24.0294H17.7688V0.5H21.0611V13.979H23.0036C23.662 13.979 24.1998 13.8445 24.6168 13.5756C25.0558 13.3067 25.4289 12.7913 25.7362 12.0294L27.6786 7.22269H31.1685L29.1272 12.063C28.9078 12.6008 28.6883 13.049 28.4688 13.4076C28.2712 13.7661 28.0518 14.0574 27.8103 14.2815C27.5908 14.5056 27.3494 14.6737 27.086 14.7857C26.8226 14.8978 26.5263 14.9762 26.1971 15.021V15.5924C26.5483 15.6373 26.8556 15.7381 27.1189 15.895C27.4043 16.0294 27.6567 16.2199 27.8762 16.4664C28.1176 16.6905 28.3481 16.9818 28.5676 17.3403C28.809 17.6765 29.0504 18.0798 29.2919 18.5504L32.2549 24.0294H28.4029L25.7033 18.7857Z" fill="currentColor"></path>
  <path d="M31.5108 15.5924C31.5108 14.2031 31.7303 12.9706 32.1693 11.895C32.6082 10.7969 33.2118 9.86695 33.98 9.10504C34.7482 8.34314 35.6591 7.7605 36.7126 7.35714C37.7881 6.95378 38.9514 6.7521 40.2024 6.7521C41.4535 6.7521 42.6058 6.95378 43.6594 7.35714C44.7348 7.7605 45.6567 8.34314 46.4249 9.10504C47.1931 9.86695 47.7967 10.7969 48.2356 11.895C48.6746 12.9706 48.8941 14.2031 48.8941 15.5924C48.8941 17.049 48.6746 18.3375 48.2356 19.458C47.7967 20.556 47.1931 21.486 46.4249 22.2479C45.6567 22.9874 44.7348 23.5476 43.6594 23.9286C42.6058 24.3095 41.4535 24.5 40.2024 24.5C38.9514 24.5 37.7881 24.3095 36.7126 23.9286C35.6591 23.5476 34.7482 22.9874 33.98 22.2479C33.2118 21.486 32.6082 20.556 32.1693 19.458C31.7303 18.3375 31.5108 17.049 31.5108 15.5924ZM45.6347 15.6597C45.6347 14.6064 45.4811 13.6989 45.1738 12.937C44.8885 12.1751 44.4934 11.5588 43.9886 11.0882C43.5057 10.6176 42.935 10.2703 42.2766 10.0462C41.6181 9.79972 40.9268 9.67647 40.2024 9.67647C39.4781 9.67647 38.7868 9.79972 38.1283 10.0462C37.4698 10.2703 36.8882 10.6176 36.3834 11.0882C35.9005 11.5588 35.5054 12.1751 35.1982 12.937C34.9128 13.6989 34.7702 14.6064 34.7702 15.6597C34.7702 16.6905 34.9128 17.5868 35.1982 18.3487C35.5054 19.0882 35.9005 19.7045 36.3834 20.1975C36.8882 20.6681 37.4698 21.0154 38.1283 21.2395C38.7868 21.4636 39.4781 21.5756 40.2024 21.5756C40.9268 21.5756 41.6181 21.4636 42.2766 21.2395C42.935 21.0154 43.5057 20.6681 43.9886 20.1975C44.4934 19.7045 44.8885 19.0882 45.1738 18.3487C45.4811 17.5868 45.6347 16.6905 45.6347 15.6597Z" fill="currentColor"></path>
  <path d="M50.2763 0.5H53.5686V7.55882L53.4369 9.94538H54.0295C54.5344 8.80252 55.2587 7.98459 56.2025 7.4916C57.1682 6.9986 58.2766 6.7521 59.5277 6.7521C60.4495 6.7521 61.2616 6.89776 61.964 7.18907C62.6883 7.48039 63.3028 7.89496 63.8076 8.43277C64.3125 8.97059 64.6966 9.62045 64.9599 10.3824C65.2233 11.1443 65.355 11.9846 65.355 12.9034V24.0294H62.0957V13.9454C62.0957 13.1835 62.0188 12.5224 61.8652 11.9622C61.7116 11.402 61.4701 10.9538 61.1409 10.6176C60.8336 10.2591 60.4276 9.9902 59.9227 9.81092C59.4399 9.63165 58.8582 9.54202 58.1778 9.54202C57.4974 9.54202 56.8719 9.67647 56.3012 9.94538C55.7306 10.1919 55.2367 10.5504 54.8197 11.021C54.4246 11.4916 54.1173 12.063 53.8979 12.7353C53.6784 13.4076 53.5686 14.1471 53.5686 14.9538V24.0294H50.2763V0.5Z" fill="currentColor"></path>
  <path d="M76.054 11.6615C73.1271 11.6615 70.7539 9.24802 70.7539 6.2714V0.881256H81.354V6.2714C81.354 9.24802 78.9808 11.6615 76.054 11.6615Z" fill="url(#paint0_radial_2724_4580)"></path>
  <path d="M93.6007 11.6615H88.3007C85.3738 11.6615 83.0006 9.24802 83.0006 6.2714C83.0006 3.29479 85.3738 0.881256 88.3007 0.881256H93.6007V11.6615Z" fill="url(#paint1_radial_2724_4580)"></path>
  <path d="M81.354 18.7265C81.354 21.7031 78.9808 24.1167 76.054 24.1167H70.7539V13.3364H76.054C78.9808 13.3364 81.354 15.7499 81.354 18.7265Z" fill="url(#paint2_radial_2724_4580)"></path>
  <path d="M93.6006 18.7265C93.6006 15.7496 91.2277 13.3364 88.3006 13.3364C85.3735 13.3364 83.0006 15.7496 83.0006 18.7265C83.0006 21.7034 85.3735 24.1167 88.3006 24.1167C91.2277 24.1167 93.6006 21.7034 93.6006 18.7265Z" fill="url(#paint3_radial_2724_4580)"></path>
  <defs>
    <radialGradient id="paint0_radial_2724_4580" cx="0" cy="0" r="1" gradientUnits="userSpaceOnUse" gradientTransform="translate(70.7539 0.881256) rotate(45.4829) scale(32.7861 32.7814)">
      <stop stop-color="#D0C8F8"></stop>
      <stop offset="0.33" stop-color="#F29797"></stop>
      <stop offset="0.66" stop-color="#F6E686"></stop>
      <stop offset="1" stop-color="#FAECE5"></stop>
    </radialGradient>
    <radialGradient id="paint1_radial_2724_4580" cx="0" cy="0" r="1" gradientUnits="userSpaceOnUse" gradientTransform="translate(70.7539 0.881256) rotate(45.4829) scale(32.7861 32.7814)">
      <stop stop-color="#D0C8F8"></stop>
      <stop offset="0.33" stop-color="#F29797"></stop>
      <stop offset="0.66" stop-color="#F6E686"></stop>
      <stop offset="1" stop-color="#FAECE5"></stop>
    </radialGradient>
    <radialGradient id="paint2_radial_2724_4580" cx="0" cy="0" r="1" gradientUnits="userSpaceOnUse" gradientTransform="translate(70.7539 0.881256) rotate(45.4829) scale(32.7861 32.7814)">
      <stop stop-color="#D0C8F8"></stop>
      <stop offset="0.33" stop-color="#F29797"></stop>
      <stop offset="0.66" stop-color="#F6E686"></stop>
      <stop offset="1" stop-color="#FAECE5"></stop>
    </radialGradient>
    <radialGradient id="paint3_radial_2724_4580" cx="0" cy="0" r="1" gradientUnits="userSpaceOnUse" gradientTransform="translate(70.7539 0.881256) rotate(45.4829) scale(32.7861 32.7814)">
      <stop stop-color="#D0C8F8"></stop>
      <stop offset="0.33" stop-color="#F29797"></stop>
      <stop offset="0.66" stop-color="#F6E686"></stop>
      <stop offset="1" stop-color="#FAECE5"></stop>
    </radialGradient>
  </defs>
</svg>