<svg width="118" height="21" viewBox="0 0 118 21" fill="none" xmlns="http://www.w3.org/2000/svg">
<g id="Group 32">
<g id="Customer">
<path d="M8.165 18.911C7.04567 18.911 5.98767 18.7117 4.991 18.313C4.00967 17.9143 3.14333 17.3547 2.392 16.634C1.64067 15.898 1.05033 15.0317 0.621 14.035C0.207 13.0383 0 11.942 0 10.746C0 9.55 0.207 8.46134 0.621 7.48C1.05033 6.48334 1.64067 5.62467 2.392 4.904C3.14333 4.168 4.00967 3.60067 4.991 3.202C5.98767 2.80334 7.04567 2.604 8.165 2.604C9.315 2.604 10.373 2.80334 11.339 3.202C12.3203 3.58534 13.1637 4.15267 13.869 4.904C14.5743 5.65534 15.0957 6.57534 15.433 7.664L12.995 8.423C12.5963 7.33434 11.9907 6.47567 11.178 5.847C10.3653 5.21834 9.384 4.904 8.234 4.904C7.176 4.904 6.22533 5.14167 5.382 5.617C4.554 6.09234 3.89467 6.767 3.404 7.641C2.92867 8.515 2.691 9.55 2.691 10.746C2.691 11.942 2.921 12.9847 3.381 13.874C3.85633 14.748 4.508 15.4303 5.336 15.921C6.164 16.3963 7.107 16.634 8.165 16.634C9.223 16.634 10.2043 16.3273 11.109 15.714C12.029 15.0853 12.7037 14.2573 13.133 13.23L15.617 13.805C15.249 14.909 14.6817 15.8443 13.915 16.611C13.1483 17.3623 12.2667 17.9373 11.27 18.336C10.2733 18.7193 9.23833 18.911 8.165 18.911Z" fill="currentColor"></path>
<path d="M25.3861 17.278V6.077H28.0081V18.75H26.8581C26.4287 18.75 26.0761 18.612 25.8001 18.336C25.5241 18.06 25.3861 17.7073 25.3861 17.278ZM21.3841 18.911C20.4027 18.911 19.5364 18.7117 18.7851 18.313C18.0337 17.899 17.4511 17.2933 17.0371 16.496C16.6231 15.6987 16.4161 14.7097 16.4161 13.529V6.077H19.0151V12.977C19.0151 14.1423 19.3064 15.047 19.8891 15.691C20.4717 16.3197 21.2384 16.634 22.1891 16.634C22.8331 16.634 23.3927 16.4653 23.8681 16.128C24.3587 15.7907 24.7344 15.3307 24.9951 14.748C25.2557 14.1653 25.3861 13.4983 25.3861 12.747L25.8461 13.414C25.8001 14.6713 25.5624 15.7063 25.1331 16.519C24.7191 17.3317 24.1824 17.9373 23.5231 18.336C22.8637 18.7193 22.1507 18.911 21.3841 18.911Z" fill="currentColor"></path>
<path d="M34.0206 18.911C33.1313 18.911 32.3339 18.7577 31.6286 18.451C30.9233 18.129 30.3406 17.6997 29.8806 17.163C29.4206 16.6263 29.1063 16.0437 28.9376 15.415L31.4446 14.863C31.5979 15.4303 31.9046 15.8827 32.3646 16.22C32.8399 16.542 33.3766 16.703 33.9746 16.703C34.7413 16.703 35.3163 16.565 35.6996 16.289C36.0983 15.9977 36.2976 15.6373 36.2976 15.208C36.2976 14.794 36.1213 14.472 35.7686 14.242C35.4159 14.012 34.9559 13.8203 34.3886 13.667C33.8366 13.5137 33.2463 13.3527 32.6176 13.184C31.9889 13.0153 31.3909 12.793 30.8236 12.517C30.2716 12.241 29.8193 11.873 29.4666 11.413C29.1139 10.9377 28.9376 10.3167 28.9376 9.55C28.9376 8.87534 29.1369 8.262 29.5356 7.71C29.9343 7.158 30.4939 6.721 31.2146 6.399C31.9506 6.077 32.8169 5.916 33.8136 5.916C34.6723 5.916 35.4313 6.054 36.0906 6.33C36.7499 6.606 37.2943 6.997 37.7236 7.503C38.1529 7.99367 38.4443 8.584 38.5976 9.274L36.0906 9.918C35.9373 9.33534 35.6689 8.89067 35.2856 8.584C34.9023 8.27734 34.3809 8.124 33.7216 8.124C33.0163 8.124 32.4796 8.25434 32.1116 8.515C31.7589 8.76034 31.5826 9.09767 31.5826 9.527C31.5826 9.941 31.7589 10.2707 32.1116 10.516C32.4643 10.746 32.9166 10.9453 33.4686 11.114C34.0206 11.2673 34.6033 11.4283 35.2166 11.597C35.8453 11.7657 36.4356 11.988 36.9876 12.264C37.5396 12.5247 37.9919 12.8927 38.3446 13.368C38.6973 13.828 38.8736 14.4337 38.8736 15.185C38.8736 15.8443 38.6743 16.4577 38.2756 17.025C37.8923 17.5923 37.3326 18.0523 36.5966 18.405C35.8759 18.7423 35.0173 18.911 34.0206 18.911Z" fill="currentColor"></path>
<path d="M44.1266 18.911C43.1606 18.911 42.3556 18.5813 41.7116 17.922C41.0676 17.2627 40.7456 16.3657 40.7456 15.231V8.216H38.7906V6.077H46.4726V8.216H43.3906V15.392C43.3906 15.8213 43.4979 16.128 43.7126 16.312C43.9426 16.496 44.1879 16.588 44.4486 16.588C44.6786 16.588 44.8856 16.5497 45.0696 16.473C45.2536 16.3963 45.4299 16.2737 45.5986 16.105L46.9556 17.738C46.5262 18.152 46.0892 18.451 45.6446 18.635C45.1999 18.819 44.6939 18.911 44.1266 18.911ZM39.7336 7.066V6.077C40.0556 6.077 40.3009 5.985 40.4696 5.801C40.6536 5.617 40.7456 5.364 40.7456 5.042V2.926H43.3906V4.605C43.3906 4.81967 43.3369 5.03434 43.2296 5.249C43.1222 5.44834 42.9689 5.62467 42.7696 5.778C42.5856 5.916 42.3786 6.01567 42.1486 6.077L39.7336 7.066Z" fill="currentColor"></path>
<path d="M52.8049 18.911C51.6089 18.911 50.5279 18.6427 49.5619 18.106C48.6113 17.5693 47.8523 16.8103 47.2849 15.829C46.7329 14.8477 46.4569 13.7053 46.4569 12.402C46.4569 11.0833 46.7406 9.941 47.3079 8.975C47.8906 8.009 48.6726 7.25767 49.6539 6.721C50.6353 6.18434 51.7239 5.916 52.9199 5.916C54.1313 5.916 55.2199 6.18434 56.1859 6.721C57.1673 7.25767 57.9416 8.009 58.5089 8.975C59.0916 9.941 59.3829 11.0833 59.3829 12.402C59.3829 13.7053 59.0839 14.8477 58.4859 15.829C57.9033 16.8103 57.1136 17.5693 56.1169 18.106C55.1203 18.6427 54.0163 18.911 52.8049 18.911ZM52.8049 16.634C53.4643 16.634 54.0853 16.4807 54.6679 16.174C55.2659 15.852 55.7489 15.3767 56.1169 14.748C56.5003 14.1193 56.6919 13.3373 56.6919 12.402C56.6919 11.4513 56.5079 10.6693 56.1399 10.056C55.7719 9.42734 55.2966 8.95967 54.7139 8.653C54.1466 8.34634 53.5333 8.193 52.8739 8.193C52.2146 8.193 51.6013 8.34634 51.0339 8.653C50.4666 8.95967 50.0066 9.42734 49.6539 10.056C49.3013 10.6693 49.1249 11.4513 49.1249 12.402C49.1249 13.3373 49.2936 14.1193 49.6309 14.748C49.9683 15.3767 50.4129 15.852 50.9649 16.174C51.5323 16.4807 52.1456 16.634 52.8049 16.634Z" fill="currentColor"></path>
<path d="M60.1349 18.75V6.077H62.7569V8.722C62.9563 8.18534 63.2629 7.71 63.6769 7.296C64.1063 6.86667 64.5893 6.52934 65.1259 6.284C65.6779 6.03867 66.2223 5.916 66.7589 5.916C67.9549 5.916 68.9593 6.23034 69.7719 6.859C70.5846 7.48767 71.0906 8.32334 71.2899 9.366C71.4739 8.70667 71.7806 8.124 72.2099 7.618C72.6393 7.09667 73.1529 6.68267 73.7509 6.376C74.3643 6.06934 75.0236 5.916 75.7289 5.916C77.2163 5.916 78.4123 6.376 79.3169 7.296C80.2369 8.20067 80.6969 9.54234 80.6969 11.321V18.75H78.0979V11.942C78.0979 10.7767 77.8066 9.86434 77.2239 9.205C76.6413 8.53034 75.8746 8.193 74.9239 8.193C73.9579 8.193 73.1836 8.56867 72.6009 9.32C72.0183 10.0713 71.7269 11.022 71.7269 12.172V18.75H69.1279V11.942C69.1279 10.7767 68.8366 9.86434 68.2539 9.205C67.6713 8.53034 66.9046 8.193 65.9539 8.193C65.3099 8.193 64.7503 8.36934 64.2749 8.722C63.7996 9.05934 63.4239 9.527 63.1479 10.125C62.8873 10.723 62.7569 11.4053 62.7569 12.172V18.75H60.1349Z" fill="currentColor"></path>
<path d="M88.0814 18.911C87.054 18.911 86.1187 18.75 85.2754 18.428C84.4474 18.106 83.7344 17.6537 83.1364 17.071C82.5537 16.4883 82.1014 15.8137 81.7794 15.047C81.4727 14.265 81.3194 13.414 81.3194 12.494C81.3194 11.4973 81.4957 10.6003 81.8484 9.803C82.2164 8.99034 82.707 8.29267 83.3204 7.71C83.949 7.12734 84.6697 6.68267 85.4824 6.376C86.295 6.06934 87.146 5.916 88.0354 5.916C88.8327 5.916 89.561 6.02334 90.2204 6.238C90.8797 6.45267 91.447 6.75167 91.9224 7.135C92.413 7.51834 92.7887 7.963 93.0494 8.469C93.31 8.975 93.4404 9.51934 93.4404 10.102C93.4404 10.9147 93.2027 11.5893 92.7274 12.126C92.252 12.6627 91.631 13.0843 90.8644 13.391C90.0977 13.6977 89.2544 13.9047 88.3344 14.012C87.4144 14.1193 86.502 14.15 85.5974 14.104C85.444 14.0887 85.2524 14.081 85.0224 14.081C84.7924 14.0657 84.5854 14.058 84.4014 14.058C84.2327 14.0427 84.1407 14.035 84.1254 14.035C84.2327 14.541 84.4704 15.001 84.8384 15.415C85.2217 15.8137 85.697 16.128 86.2644 16.358C86.8317 16.588 87.4374 16.703 88.0814 16.703C88.6027 16.703 89.1164 16.611 89.6224 16.427C90.1437 16.243 90.619 15.99 91.0484 15.668C91.4777 15.346 91.838 14.978 92.1294 14.564L94.0844 15.967C93.5784 16.6417 93.0034 17.2013 92.3594 17.646C91.7307 18.0753 91.056 18.3973 90.3354 18.612C89.6147 18.8113 88.8634 18.911 88.0814 18.911ZM85.8274 12.011C86.3947 12.011 86.9697 11.988 87.5524 11.942C88.135 11.8807 88.6717 11.781 89.1624 11.643C89.6684 11.4897 90.0747 11.2827 90.3814 11.022C90.688 10.7613 90.8414 10.424 90.8414 10.01C90.8414 9.65734 90.7264 9.343 90.4964 9.067C90.2817 8.77567 89.975 8.54567 89.5764 8.377C89.1777 8.20834 88.71 8.124 88.1734 8.124C87.376 8.124 86.663 8.30034 86.0344 8.653C85.4057 9.00567 84.9074 9.47334 84.5394 10.056C84.1867 10.6387 83.995 11.2673 83.9644 11.942C84.179 11.9573 84.4474 11.9727 84.7694 11.988C85.0914 12.0033 85.444 12.011 85.8274 12.011Z" fill="currentColor"></path>
<path d="M94.5936 18.75V6.077H97.2156V18.75H94.5936ZM96.4566 12.356L97.2156 8.86C97.5223 7.95534 98.0206 7.24234 98.7106 6.721C99.4159 6.18434 100.213 5.916 101.103 5.916V8.63C100.98 8.59934 100.857 8.584 100.735 8.584C100.627 8.56867 100.512 8.561 100.39 8.561C99.7609 8.561 99.2089 8.70667 98.7336 8.998C98.2583 9.274 97.8826 9.69567 97.6066 10.263C97.3459 10.815 97.2156 11.5127 97.2156 12.356H96.4566Z" fill="currentColor"></path>
</g>
<path id="Vector 86 (Stroke)" fill-rule="evenodd" clip-rule="evenodd" d="M107.855 4.9068C106.514 5.26577 104.994 5.61201 103.651 5.61268C102.822 5.6131 102.15 4.94186 102.15 4.11344C102.149 3.28501 102.821 2.6131 103.649 2.61268C104.566 2.61223 105.753 2.3638 107.078 2.00894C107.539 1.88545 108.035 1.74341 108.53 1.60134C109.344 1.3681 110.158 1.13478 110.82 0.983292C111.369 0.857833 111.957 0.751516 112.487 0.750017C112.923 0.748786 113.85 0.810599 114.442 1.59591C115.063 2.42035 114.828 3.37148 114.636 3.89081C114.414 4.48802 114.014 5.16105 113.488 5.90546C112.176 7.7649 110.382 9.80159 108.668 11.6843C108.199 12.1989 107.738 12.7003 107.293 13.1851C106.175 14.4014 105.153 15.5128 104.351 16.463C104.774 16.2962 105.253 16.0962 105.794 15.8593C108.043 14.8741 109.975 14.2743 111.587 13.9929C113.175 13.7156 114.564 13.7276 115.657 14.0866C116.791 14.4591 117.761 15.2857 117.94 16.588C118.102 17.7632 117.544 18.8658 116.811 19.724C116.273 20.354 115.326 20.4287 114.696 19.8908C114.066 19.3529 113.992 18.4061 114.53 17.776C114.863 17.3861 114.941 17.1396 114.961 17.0423C114.92 17.0157 114.847 16.9783 114.721 16.9368C114.281 16.7923 113.443 16.7142 112.103 16.9482C110.788 17.1779 109.09 17.6906 106.998 18.6072C105.489 19.2682 104.3 19.7154 103.404 19.9489C102.96 20.0646 102.518 20.1467 102.109 20.1523C101.744 20.1573 101.125 20.1073 100.608 19.6626C99.997 19.136 99.9253 18.4226 99.9865 17.9521C100.043 17.5193 100.22 17.1264 100.38 16.8293C100.709 16.2153 101.241 15.5121 101.832 14.7982C102.716 13.7305 103.9 12.4425 105.137 11.0964C105.572 10.6239 106.013 10.1443 106.449 9.66461C108.165 7.78095 109.844 5.86669 111.037 4.17572C111.084 4.10937 111.128 4.04548 111.171 3.98399C110.656 4.1119 110.104 4.27074 109.499 4.44501C108.992 4.59113 108.447 4.74811 107.855 4.9068ZM112.59 3.75586C112.589 3.75667 112.575 3.75594 112.552 3.75121C112.579 3.75268 112.591 3.75504 112.59 3.75586ZM111.849 2.7693C111.852 2.74995 111.855 2.73922 111.856 2.73869C111.857 2.73816 111.855 2.74783 111.849 2.7693ZM115.005 17.0833C115.003 17.084 114.995 17.0773 114.987 17.0616C115.003 17.0748 115.007 17.0827 115.005 17.0833ZM102.045 17.1518C102.045 17.1515 102.052 17.1514 102.065 17.1526C102.051 17.1527 102.045 17.1521 102.045 17.1518Z" fill="url(#paint0_radial_2967_5714)"></path>
</g>
<defs>
<radialGradient id="paint0_radial_2967_5714" cx="0" cy="0" r="1" gradientUnits="userSpaceOnUse" gradientTransform="translate(114.034 2.66289) rotate(145.232) scale(23.6848 89.0414)">
<stop stop-color="#F42072"></stop>
<stop offset="1" stop-color="#FA9EC1"></stop>
</radialGradient>
</defs>
</svg>