<?xml version="1.0" encoding="UTF-8"?>
<svg id="Calque_2" data-name="Calque 2" xmlns="http://www.w3.org/2000/svg" viewBox="0 0 725.65 155.16">
  <defs>
    <style>
      .cls-1 {
        fill: #182025;
      }

      .cls-1, .cls-2 {
        stroke-width: 0px;
      }

      .cls-2 {
        fill: #ff660f;
      }
    </style>
  </defs>
  <g id="Logo">
    <g id="Logo-2" data-name="Logo">
      <path id="Texte" class="cls-1" d="M264.22,93.54c-4.27,4.18-10.29,6.6-16.46,6.6-13.22,0-22.09-9.06-22.09-22.56s8.88-22.56,22.09-22.56c6.27,0,11.39,2.09,15.68,6.39l1.2,1.2,9.98-9.2-1.29-1.29c-6.93-7.04-15.92-10.75-25.97-10.75-21.44,0-36.42,14.91-36.42,36.23s15.03,36.23,36.54,36.23c10.49,0,19.37-3.48,26.32-10.36l1.24-1.22-9.56-9.93-1.27,1.24ZM303.5,83.8h36.16v-13.38h-36.16v-14.16h37.78v-13.57h-52.29v69.81h52.88v-13.67h-38.34v-15.03h-.02ZM417.22,66.31c0-14.13-10.14-23.64-25.24-23.64h-32.82v69.81h14.63v-22.63h10.85l19.23,22.63h18.53l-20.85-24.09c9.77-3.19,15.73-11.43,15.73-22.09l-.05.02ZM402.68,66.31c0,6.27-3.95,9.86-10.82,9.86h-18.22v-19.75h18.22c6.88,0,10.82,3.59,10.82,9.86v.02ZM484.84,42.66h-57.6v13.76h21.48v56.05h14.63v-56.05h21.48v-13.76ZM515.43,42.66l-31.32,69.81h15.83l6.06-13.74h33.29l6.06,13.74h15.92l-31.23-69.81h-14.63.02ZM533.49,85.16h-21.67l10.85-25.1,10.85,25.1h-.02ZM587.66,42.66h-14.63v69.81h49.57v-13.88h-34.94v-55.93ZM651.01,42.66h-14.63v69.81h14.63V42.66ZM697.52,70.35c-12.68-1.83-14.39-5.17-14.39-8.19,0-4.34,5.49-7.51,13.08-7.51,6.29,0,12.75,2.18,17.77,5.99l1.46,1.1,7.63-10.73-1.34-1.03c-7.07-5.47-16.39-8.62-25.59-8.62-16.15,0-27.42,8.52-27.42,20.71s8.38,19.25,27.19,21.81c13.24,1.76,15.03,5.12,15.03,8.19,0,4.91-5.54,8.08-14.14,8.08-7.73,0-15.78-2.7-21.02-7.07l-1.48-1.24-7.84,11.29,1.34,1.03c7.98,6.13,18.55,9.65,29,9.65,17.26,0,28.86-8.85,28.86-22.02,0-12.14-8.4-18.55-28.13-21.44Z"/>
      <g id="Submark">
        <path id="Submark_2" data-name="Submark 2" class="cls-2" d="M0,128.75L155.16,53.75v17.35L0,128.75ZM155.16,92.84v-17.35L0,135.21l155.16-42.38ZM155.16,113.77v-17.35L0,141.5l155.16-27.73ZM155.16,135.55v-17.35L0,145.68l155.16-10.13ZM155.16,155.16v-15.28L0,151.68l155.16,3.47ZM0,84.05v17.35L155.16,26.4,0,84.05ZM0,62.32v17.35L155.16,19.94,0,62.32ZM0,41.39v17.35L155.16,13.66,0,41.39ZM0,19.61v17.35L155.16,9.48,0,19.61ZM0,0v15.28L155.16,3.47,0,0Z"/>
        <path id="Submark_1" data-name="Submark 1" class="cls-1" d="M155.16,32.77v-.32l-2.83,1.64L0,105.35v17.36l2.83-1.64L155.16,49.81v-17.04Z"/>
      </g>
    </g>
  </g>
</svg>