<svg width="100%" height="100%" viewBox="0 0 174 36" fill="none" xmlns="http://www.w3.org/2000/svg">
<g clip-path="url(#clip0_7477_2082)">
<path d="M89.2041 0.000213623H82.687V35.1461H89.2041V0.000213623Z" fill="currentColor"></path>
<path d="M103.527 29.1052C102.975 28.5874 102.699 27.7598 102.699 26.6242V12.8379H110.972V7.57359H102.699V0.000213623H96.1313V7.57359H90.8669V12.8379H96.1313V27.6767C96.1313 30.1501 96.7662 32.0132 98.036 33.266C99.3057 34.5188 101.193 35.1461 103.701 35.1461H111.121V29.8818H106.006C104.903 29.8818 104.077 29.6229 103.525 29.1052H103.527Z" fill="currentColor"></path>
<path d="M119.294 7.5736H112.777V35.148H119.294V7.5736Z" fill="currentColor"></path>
<path d="M119.394 0.000213623H112.726V5.81063H119.394V0.000213623Z" fill="currentColor"></path>
<path d="M140.2 22.6127C140.2 24.317 139.924 25.721 139.372 26.8245C138.82 27.928 138.085 28.7292 137.165 29.2318C136.247 29.7325 135.236 29.9838 134.132 29.9838C132.528 29.9838 131.275 29.4415 130.372 28.355C129.469 27.2685 129.019 25.5887 129.019 23.3175V7.5736H122.502V24.0676C122.502 26.4749 122.895 28.5043 123.681 30.1596C124.465 31.8148 125.561 33.0582 126.965 33.8952C128.369 34.7304 130.023 35.148 131.929 35.148C133.836 35.148 135.438 34.7304 136.842 33.8952C138.246 33.0601 139.367 31.8224 140.202 30.186H140.302V35.1499H146.719V7.5736H140.202V22.6145L140.2 22.6127Z" fill="currentColor"></path>
<path d="M170.756 20.7344C169.135 19.2133 166.737 18.4537 163.562 18.4537H160.254C158.95 18.4537 157.946 18.1949 157.245 17.6771C156.544 17.1594 156.193 16.3979 156.193 15.3964C156.193 14.2929 156.62 13.4237 157.472 12.7888C158.324 12.1539 159.486 11.8365 160.957 11.8365C162.561 11.8365 163.797 12.2371 164.666 13.0401C165.535 13.8432 165.987 14.9958 166.019 16.4999H172.687C172.621 14.5272 172.128 12.8058 171.207 11.3357C170.289 9.86565 168.961 8.72813 167.222 7.92696C165.484 7.12389 163.379 6.7233 160.906 6.7233C158.432 6.7233 156.476 7.09933 154.738 7.85137C153 8.60342 151.664 9.65591 150.728 11.0088C149.793 12.3618 149.324 13.9074 149.324 15.6458C149.324 18.0191 150.135 19.9162 151.756 21.3353C153.378 22.7563 155.624 23.4667 158.498 23.4667H161.506C163.111 23.4667 164.297 23.7672 165.066 24.37C165.835 24.9708 166.219 25.8079 166.219 26.8774C166.219 27.7126 166.019 28.4306 165.618 29.0334C165.218 29.6343 164.632 30.0953 163.863 30.4128C163.094 30.7302 162.158 30.889 161.055 30.889C159.383 30.889 158.064 30.4884 157.094 29.6853C156.125 28.8822 155.624 27.6635 155.59 26.0252H148.822C148.888 28.0641 149.408 29.8346 150.375 31.3387C151.342 32.8428 152.731 33.9954 154.536 34.7985C156.34 35.6015 158.53 36.0021 161.104 36.0021C163.678 36.0021 165.817 35.6091 167.621 34.823C169.426 34.037 170.805 32.9429 171.757 31.539C172.71 30.135 173.186 28.5138 173.186 26.6752C173.186 24.2358 172.375 22.2555 170.754 20.7344H170.756Z" fill="currentColor"></path>
<path d="M69.5018 0.000213623H62.6332L49.3987 35.1461H56.5186L59.4738 27.2969H72.6914L75.6372 35.1461H82.689L69.5018 0.000213623ZM61.5316 21.8323L66.0949 9.71447L70.6412 21.8323H61.5316Z" fill="currentColor"></path>
<path d="M45.5421 24.9462L31.8805 11.2846H13.6651L-0.000244141 24.9462L4.5555 29.5019L22.7709 11.2865L40.9901 29.5019L45.5402 24.9462H45.5421Z" fill="currentColor"></path>
<path d="M45.5423 13.6616L31.8807 0H13.6653L0 13.6616L4.55574 18.2173L22.7712 0L40.9903 18.2154L45.5404 13.6597L45.5423 13.6616Z" fill="currentColor"></path>
<path d="M22.771 23.5196C16.5902 23.5196 10.4076 25.8778 5.69312 30.5922L10.2489 35.148C13.7087 31.6882 18.2398 29.9649 22.7729 29.9649C27.3041 29.9649 31.8371 31.6882 35.2969 35.148L39.8527 30.5922C35.1382 25.8778 28.9556 23.5196 22.7748 23.5196H22.771Z" fill="currentColor"></path>
</g>
<defs>
<clipPath id="clip0_7477_2082">
<rect width="173.188" height="36" fill="white"></rect>
</clipPath>
</defs>
</svg>