<svg width="100%" height="100%" viewBox="0 0 683 88" fill="none" xmlns="http://www.w3.org/2000/svg" role="img" aria-label="Balkin" preserveAspectRatio="xMidYMid meet">
  <title>Balkin</title>
  <path d="M33.6894 22.0399C35.5043 22.0399 37.2058 21.6618 38.7938 20.9056C40.3819 20.1494 41.1759 18.5992 41.1759 16.2549C41.1759 15.045 40.949 14.0997 40.4953 13.4191C40.0416 12.6629 39.4744 12.0957 38.7938 11.7176C38.1132 11.2639 37.3192 10.9992 36.4117 10.9236C35.5043 10.7723 34.5968 10.6967 33.6894 10.6967H13.4984V22.0399H33.6894ZM33.4625 43.8189C36.9411 43.8189 39.3232 43.2518 40.6087 42.1174C41.8943 40.9831 42.5371 39.3951 42.5371 37.3533C42.5371 35.009 41.7052 33.2697 40.0416 32.1354C38.3779 31.0011 35.5799 30.4339 31.6476 30.4339H13.4984V43.8189H33.4625ZM2.60894 6.046C2.60894 5.44103 2.30646 5.02511 1.70148 4.79824C1.17213 4.49576 0.604972 4.34451 0 4.34451V2.30273H35.2774C38.151 2.30273 40.6087 2.64303 42.6505 3.32362C44.7679 4.00422 46.5072 4.94949 47.8684 6.15943C49.3052 7.29375 50.3639 8.61713 51.0445 10.1296C51.7251 11.642 52.0654 13.23 52.0654 14.8937C52.0654 16.2549 51.8385 17.5405 51.3848 18.7504C50.9311 19.8847 50.3261 20.9434 49.5699 21.9265C48.8893 22.834 48.0953 23.6658 47.1878 24.422C46.356 25.1782 45.4863 25.7832 44.5789 26.2369V26.3504C45.6376 26.8041 46.6963 27.4091 47.755 28.1653C48.8137 28.9215 49.7589 29.829 50.5908 30.8877C51.4226 31.9464 52.1032 33.1563 52.6325 34.5175C53.1619 35.8787 53.4266 37.3533 53.4266 38.9413C53.4266 40.7563 53.0863 42.4577 52.4057 44.0458C51.7251 45.6338 50.6286 47.0328 49.1161 48.2428C47.6793 49.4527 45.751 50.4358 43.3311 51.192C40.9868 51.8726 38.151 52.2129 34.8237 52.2129H0V50.1711C0.604972 50.1711 1.17213 50.0577 1.70148 49.8308C2.30646 49.5283 2.60894 49.0746 2.60894 48.4696V6.046Z" fill="currentColor"/>
  <path d="M100.992 31.3414L91.8039 12.2848L83.7502 31.3414H100.992ZM63.1055 50.1711C64.013 50.0199 64.7314 49.604 65.2607 48.9234C65.8657 48.1672 66.3194 47.4866 66.6219 46.8816L83.5233 10.0161C83.9771 8.95743 84.3174 8.12559 84.5442 7.52062C84.8467 6.84002 84.9979 6.19724 84.9979 5.59227C84.9979 5.13854 84.8845 4.87387 84.6576 4.79824C84.5064 4.647 84.3173 4.49576 84.0905 4.34451V2.30273H101.219V4.34451C100.992 4.49576 100.727 4.60919 100.425 4.68481C100.198 4.76043 100.084 5.06292 100.084 5.59227C100.084 6.046 100.236 6.61316 100.538 7.29375C100.916 7.89872 101.294 8.61713 101.672 9.44897L120.049 48.0159C120.427 48.6965 120.843 49.1881 121.296 49.4905C121.75 49.793 122.242 50.0199 122.771 50.1711V52.2129H106.663V50.5114C107.042 50.5114 107.42 50.398 107.798 50.1711C108.252 49.9443 108.478 49.5283 108.478 48.9234C108.478 48.4696 108.403 48.0537 108.252 47.6756C108.1 47.2975 107.911 46.806 107.684 46.201L104.622 39.7354H80.3472L77.1711 45.8607C76.8686 46.4657 76.604 47.0328 76.3771 47.5622C76.2259 48.0159 76.1502 48.4318 76.1502 48.8099C76.1502 49.4149 76.3393 49.793 76.7174 49.9443C77.0955 50.0955 77.6248 50.1711 78.3054 50.1711V52.2129H63.1055V50.1711Z" fill="currentColor"/>
  <path d="M149.503 2.30273V4.34451C147.763 4.34451 146.894 4.91168 146.894 6.046V43.8189H177.521C178.428 43.8189 179.184 43.6299 179.789 43.2518C180.394 42.798 180.697 42.1931 180.697 41.4369H182.738V53.3472H180.697C180.697 52.7423 180.394 52.402 179.789 52.3263C179.184 52.2507 178.428 52.2129 177.521 52.2129H133.055V50.1711C135.021 50.1711 136.004 49.604 136.004 48.4696V6.046C136.004 4.91168 135.021 4.34451 133.055 4.34451V2.30273H149.503Z" fill="currentColor"/>
  <path d="M208.563 48.4696C208.563 49.604 209.281 50.1711 210.718 50.1711V52.2129H195.858V50.1711C197.068 50.1711 197.673 49.604 197.673 48.4696V6.046C197.673 4.91168 197.068 4.34451 195.858 4.34451V2.30273H210.718V4.34451C209.281 4.34451 208.563 4.91168 208.563 6.046V24.5354C211.134 22.418 213.781 20.3006 216.503 18.1832C219.225 15.9902 221.683 13.9863 223.876 12.1713C226.069 10.3564 227.884 8.84399 229.321 7.63405C230.758 6.34848 231.476 5.55446 231.476 5.25197C231.476 4.87386 231.249 4.57138 230.796 4.34451C230.417 4.11765 230.039 4.00422 229.661 4.00422V2.30273H248.378V4.34451C247.47 4.647 246.109 5.51665 244.294 6.95346L225.351 22.2668L243.273 44.4995C244.181 45.6338 245.164 46.806 246.222 48.0159C247.281 49.1502 248.34 49.8686 249.398 50.1711V52.2129H232.61V50.1711C233.442 50.1711 233.858 49.9443 233.858 49.4905C233.858 49.1881 233.669 48.7721 233.291 48.2428C232.989 47.7134 232.346 46.8816 231.363 45.7473L217.411 28.7324L208.563 35.7652V48.4696Z" fill="currentColor"/>
  <path d="M260.704 50.1711C261.913 50.1711 262.745 50.0577 263.199 49.8308C263.653 49.5283 263.88 49.0746 263.88 48.4696V6.046C263.88 5.44103 263.653 5.02511 263.199 4.79824C262.745 4.49576 261.913 4.34451 260.704 4.34451V2.30273H277.945V4.34451C275.828 4.34451 274.769 4.91168 274.769 6.046V48.4696C274.769 49.604 275.828 50.1711 277.945 50.1711V52.2129H260.704V50.1711Z" fill="currentColor"/>
  <path d="M297.456 50.1711C298.818 50.1711 299.498 49.604 299.498 48.4696V6.046C299.498 4.91168 298.818 4.34451 297.456 4.34451V2.30273H314.131V4.34451C313.602 4.42014 313.337 4.60919 313.337 4.91168C313.337 5.28978 314.169 6.31067 315.833 7.97435L343.056 36.7861V6.046C343.056 4.91168 342.3 4.34451 340.788 4.34451V2.30273H354.626V4.34451C353.265 4.34451 352.585 4.91168 352.585 6.046V48.4696C352.585 49.604 353.265 50.1711 354.626 50.1711V52.2129H339.88V50.1711C340.41 50.1711 340.674 49.9821 340.674 49.604C340.674 49.3015 340.296 48.7721 339.54 48.0159C338.859 47.2597 338.065 46.3901 337.158 45.407L309.027 15.4609V48.4696C309.027 49.604 309.821 50.1711 311.409 50.1711V52.2129H297.456V50.1711Z" fill="currentColor"/>
  <path d="M61.984 71.9534V85.5534H58.864V75.6334L54.564 85.5534H52.424L48.124 75.6334V85.5534H45.144V71.9534H49.464L53.564 81.3934L57.644 71.9534H61.984Z" fill="currentColor"/>
  <path d="M72.1384 85.7934C67.6584 85.7934 64.6584 82.9734 64.6584 78.7534C64.6584 74.5334 67.6584 71.7134 72.1384 71.7134C76.6184 71.7134 79.6184 74.5334 79.6184 78.7534C79.6184 82.9734 76.6184 85.7934 72.1384 85.7934ZM72.1384 83.0334C74.6984 83.0334 76.4384 81.2934 76.4384 78.7534C76.4384 76.2134 74.6984 74.4734 72.1384 74.4734C69.5784 74.4734 67.8384 76.2134 67.8384 78.7534C67.8384 81.2934 69.5784 83.0334 72.1384 83.0334Z" fill="currentColor"/>
  <path d="M92.5125 71.9534H95.4925V85.5534H92.6125L85.2725 75.7134V85.5534H82.2925V71.9534H85.9925L92.5125 80.6934V71.9534Z" fill="currentColor"/>
  <path d="M109.614 85.5534L108.394 82.6734H102.254L101.034 85.5534H97.774L103.794 71.9534H106.994L113.014 85.5534H109.614ZM105.334 75.1334L103.354 80.0734H107.294L105.334 75.1334Z" fill="currentColor"/>
  <path d="M121.6 85.7934C116.68 85.7934 113.78 83.1534 113.78 78.8134C113.78 74.4134 116.76 71.7134 121.44 71.7134C123.34 71.7134 124.96 72.1534 126.42 73.0934L125.5 75.6134C124.16 74.8134 122.98 74.4734 121.68 74.4734C118.76 74.4734 116.96 76.1334 116.96 78.7734C116.96 81.4334 118.78 83.0334 121.8 83.0334C123.26 83.0334 124.56 82.6534 125.86 81.8534L126.88 84.3734C125.54 85.3134 123.7 85.7934 121.6 85.7934Z" fill="currentColor"/>
  <path d="M135.986 85.7934C131.506 85.7934 128.506 82.9734 128.506 78.7534C128.506 74.5334 131.506 71.7134 135.986 71.7134C140.466 71.7134 143.466 74.5334 143.466 78.7534C143.466 82.9734 140.466 85.7934 135.986 85.7934ZM135.986 83.0334C138.546 83.0334 140.286 81.2934 140.286 78.7534C140.286 76.2134 138.546 74.4734 135.986 74.4734C133.426 74.4734 131.686 76.2134 131.686 78.7534C131.686 81.2934 133.426 83.0334 135.986 83.0334Z" fill="currentColor"/>
  <path d="M175.566 85.5534H173.923L169.597 79.7249H163.789V85.5534H162.447V71.9337H170.579C173.343 71.9337 174.905 73.3357 174.905 75.8193C174.905 78.1226 173.583 79.5046 171.22 79.7049L175.566 85.5534ZM163.789 73.1154V78.5432H170.298C172.461 78.5432 173.523 77.662 173.523 75.8193C173.523 73.9967 172.461 73.1154 170.298 73.1154H163.789Z" fill="currentColor"/>
  <path d="M190.202 73.1154H179.847V78.0626H188.9V79.2443H179.847V84.3717H190.202V85.5534H178.505V71.9337H190.202V73.1154Z" fill="currentColor"/>
  <path d="M205.051 85.5534L203.188 81.6878H195.317L193.474 85.5534H192.052L198.602 71.9337H199.964L206.513 85.5534H205.051ZM199.263 73.3958L195.878 80.5061H202.628L199.263 73.3958Z" fill="currentColor"/>
  <path d="M210.692 84.3717H220.647V85.5534H209.351V71.9337H210.692V84.3717Z" fill="currentColor"/>
  <path d="M241.194 73.1154H230.839V78.0626H239.892V79.2443H230.839V84.3717H241.194V85.5534H229.497V71.9337H241.194V73.1154Z" fill="currentColor"/>
  <path d="M249.693 85.7937C247.11 85.7937 244.806 85.0727 243.204 83.7307L243.885 82.6692C245.347 83.8709 247.43 84.5519 249.713 84.5519C252.698 84.5519 254.4 83.5505 254.4 81.7679C254.4 80.1856 253.158 79.5847 249.613 79.3444C245.387 79.084 243.785 78.0626 243.785 75.6791C243.785 73.2156 245.988 71.6934 249.533 71.6934C251.656 71.6934 253.499 72.2542 254.961 73.3357L254.34 74.4373C253.058 73.4359 251.376 72.9352 249.393 72.9352C246.809 72.9352 245.167 73.9767 245.167 75.619C245.167 77.2013 246.389 77.8222 249.954 78.0425C254.16 78.3029 255.782 79.3244 255.782 81.7078C255.782 84.3316 253.579 85.7937 249.693 85.7937Z" fill="currentColor"/>
  <path d="M270.174 71.9337V73.1154H264.546V85.5534H263.204V73.1154H257.596V71.9337H270.174Z" fill="currentColor"/>
  <path d="M282.037 85.5534L280.174 81.6878H272.303L270.46 85.5534H269.038L275.588 71.9337H276.95L283.499 85.5534H282.037ZM276.249 73.3958L272.864 80.5061H279.614L276.249 73.3958Z" fill="currentColor"/>
  <path d="M294.937 71.9337V73.1154H289.308V85.5534H287.967V73.1154H282.358V71.9337H294.937Z" fill="currentColor"/>
  <path d="M309.476 73.1154H299.121V78.0626H308.174V79.2443H299.121V84.3717H309.476V85.5534H297.779V71.9337H309.476V73.1154Z" fill="currentColor"/>
  <path d="M629.665 13.8726C628.397 12.4597 626.259 11.1193 623.687 11.1193C615.427 11.1193 612.71 18.5096 612.71 25.4652C612.71 31.9498 615.536 38.3619 623.325 38.3619C625.462 38.3619 627.962 37.1302 628.759 35.7898V38.0359C628.759 42.0571 628.433 43.9771 623.216 43.9771C620.717 43.9771 617.782 43.0714 615.21 41.731L613.507 46.5492C616.877 48.2157 620.065 49.23 623.579 49.23C626.296 49.23 630.136 48.7953 632.599 46.6579C635.207 44.5205 635.316 40.7167 635.316 37.0215L635.352 11.0469L630.172 11.8801C630.172 11.8076 629.773 13.2929 629.665 13.8726ZM628.759 27.4577C628.759 28.6894 628.65 29.9211 628.179 30.9354C627.6 32.1671 626.477 32.9641 625.028 32.9641C620.861 32.9641 620.391 30.066 620.391 24.5595C620.391 19.6326 621.296 16.7345 624.919 16.7345C626.73 16.7345 628.071 17.6402 628.759 18.4009V27.4577Z" fill="currentColor"/>
  <path d="M604.086 77.3091L604.122 68.3611C604.122 65.6078 604.013 64.7746 603.651 63.6516C602.637 60.7534 599.594 59.0508 595.065 59.0508C592.566 59.0508 590.32 59.4855 587.711 60.6085C586.262 61.2244 584.849 62.0214 583.509 62.8184L586.081 67.383C589.269 65.3905 591.769 64.5935 594.015 64.5935C596.623 64.5935 597.239 65.7528 597.239 68.6509V69.6653H595.609C587.132 69.6653 582.857 72.5634 582.857 78.722C582.857 83.5039 585.465 86.4745 590.465 86.9455H593.29C594.884 86.7643 596.225 86.2572 597.311 85.5689C597.891 85.2428 598.434 84.6632 599.014 84.0836C599.594 85.2066 600.681 86.2572 601.912 86.9455L602.745 87.344L603.108 86.9455L606.694 83.1054C604.339 81.3303 604.086 80.0261 604.086 77.3091ZM593.399 82.0186C591.588 82.0186 590.356 80.5695 590.356 78.5408C590.356 75.3891 591.95 74.2298 596.804 74.2298H597.203V80.3884C596.152 81.5114 594.739 82.0186 593.399 82.0186Z" fill="currentColor"/>
  <path d="M475.953 2.13867H447.805V30.0696L461.969 44.1619L490.154 16.2309L475.953 2.13867Z" fill="currentColor"/>
  <path d="M447.805 58.2524V86.2196H475.953L490.154 72.1273L461.969 44.1602L447.805 58.2524Z" fill="currentColor"/>
  <path d="M504.321 86.2196H532.324V58.0351L518.341 44.1602L490.156 72.1273L504.321 86.2196Z" fill="currentColor"/>
  <path d="M490.156 16.2309L518.341 44.1619L532.324 30.287V2.13867H504.321L490.156 16.2309Z" fill="currentColor"/>
  <path d="M681.324 33.2931C680.092 33.6192 679.512 33.8727 678.86 33.8727C676.469 33.8727 675.817 32.9671 675.817 29.598V16.3752H680.201L682.012 11.557H675.817V4.27539L668.934 5.39842V11.557H666.217V16.3752H668.934V30.721C668.934 33.1844 668.934 33.6192 669.369 34.7784C670.166 37.1332 672.991 38.6909 676.469 38.6909C678.281 38.6909 680.201 38.2562 682.229 37.4592L681.324 33.2931Z" fill="currentColor"/>
  <path d="M553.226 19.274L564.13 38.0033H573.332L560.833 18.7306L572.1 2.13867H563.514L553.226 18.5132V2.13867H545.908V38.0033H553.226V19.274Z" fill="currentColor"/>
  <path d="M587.025 16.9174C588.945 16.9174 589.488 18.1491 589.488 21.1559V37.9652H596.263V18.7287C596.263 17.0261 596.154 15.9393 595.828 14.9249C595.031 12.6788 592.314 11.1211 589.38 11.1211C587.786 11.1211 586.011 11.4471 584.634 12.2441C583.511 12.8238 582.388 13.6932 581.591 14.7076L581.156 11.1935L575.287 12.1354V38.0014H582.279V22.4239C582.279 20.5039 582.859 19.1635 583.764 18.294C584.779 17.3883 585.902 16.9174 587.025 16.9174Z" fill="currentColor"/>
  <path d="M601.551 38.0007H608.579V11.0117L601.551 12.0985V38.0007Z" fill="currentColor"/>
  <path d="M655.023 10.9014C651.98 10.9014 649.372 12.0244 647.451 14.1256C647.451 13.7996 647.56 12.2056 647.56 11.4448V1.48242L640.46 2.64168V38.0353H647.56V23.4359C647.56 20.9725 647.886 19.5596 648.683 18.6177C649.734 17.386 651.509 16.6977 653.103 16.6977C655.132 16.6977 655.82 17.8207 655.82 20.2842V37.9991H662.594V19.5234C662.594 16.9513 662.486 16.1543 661.906 14.7052C661.109 12.3505 658.428 10.9014 655.023 10.9014Z" fill="currentColor"/>
  <path d="M605.101 0C602.71 0 600.79 1.92002 600.79 4.311C600.79 6.70197 602.71 8.622 605.101 8.622C607.492 8.622 609.412 6.70197 609.412 4.311C609.412 1.95625 607.492 0 605.101 0Z" fill="currentColor"/>
  <path d="M545.834 86.0374H552.935V70.1338H562.209V64.3375H552.935V55.9328H564.455L565.361 50.209H545.834V86.0374Z" fill="currentColor"/>
  <path d="M572.713 63.0693L572.025 59.4829L566.374 60.3885V86.0372H573.366V69.6626C573.366 68.3222 573.583 67.1992 574.38 66.3297C575.068 65.6052 576.191 65.098 577.459 65.098C578.256 65.098 579.162 65.3154 579.85 65.6414L581.625 59.4829C580.502 59.0481 580.031 58.9395 579.017 58.9395C576.409 58.9395 573.837 61.2942 572.713 63.0693Z" fill="currentColor"/>
  <path d="M636.185 50.8984V86.0385H643.177V71.0406V49.7754L636.185 50.8984Z" fill="currentColor"/>
  <path d="M658.536 59.5918H650.059L643.176 71.0395L652.268 86.0374H660.456L649.95 70.7134L658.536 59.5918Z" fill="currentColor"/>
  <path d="M624.013 59.1562C622.419 59.1562 620.608 59.4823 619.268 60.2793C618.145 60.8589 617.022 61.7284 616.225 62.7427L615.79 59.2287L609.921 60.1706V86.0366H616.913V70.459C616.913 68.539 617.493 67.1986 618.398 66.2929C619.413 65.3873 620.536 64.9525 621.659 64.9525C623.579 64.9525 624.158 66.1843 624.158 69.2273V86.0366H630.933V66.7639C630.933 65.0975 630.824 63.9744 630.498 62.9601C629.665 60.7502 626.948 59.1562 624.013 59.1562Z" fill="currentColor"/>
  <line x1="398.95" y1="2.33594" x2="398.95" y2="86.4228" stroke="currentColor" stroke-opacity="0.7" stroke-width="2.6049"/>
</svg>