<svg width="100%" height="100%" viewBox="0 0 160 25" fill="none" xmlns="http://www.w3.org/2000/svg" role="img" aria-label="Leverage" preserveAspectRatio="xMidYMid meet">
  <title>Leverage</title>
  <path d="M126.196 0C127.749 0 129.152 0.175457 130.404 0.526367C131.682 0.877367 132.784 1.37939 133.711 2.03125C134.638 2.68304 135.352 3.45985 135.853 4.3623C136.379 5.26477 136.655 6.28015 136.68 7.4082L130.969 9.17578C130.944 8.24846 130.706 7.47137 130.255 6.84473C129.804 6.21795 129.203 5.74097 128.451 5.41504C127.7 5.06404 126.86 4.88867 125.934 4.88867C124.631 4.88867 123.529 5.18935 122.627 5.79102C121.75 6.36766 120.994 7.25849 120.518 8.46191C120.067 9.6652 119.922 10.6052 119.922 12.4102C119.922 13.764 120.047 14.9555 120.298 15.9834C120.573 16.986 120.974 17.8261 121.5 18.5029C122.026 19.1797 122.665 19.694 123.416 20.0449C124.192 20.3708 126.074 20.5332 127.126 20.5332C128.178 20.5332 129.08 20.3707 129.831 20.0449C130.608 19.719 131.222 19.217 131.673 18.54C132.124 17.8631 132.362 16.9982 132.387 15.9453H125.411V11.6582H137.431V24.7832H132.524V18.0137H132.472C132.046 19.4678 131.495 20.6964 130.818 21.6992C130.142 22.7021 129.278 23.4667 128.226 23.9932C127.174 24.4945 125.871 24.7451 124.318 24.7451C122.289 24.7451 120.38 24.2811 118.752 23.3535C117.124 22.4259 115.834 21.0348 114.882 19.1797C113.955 17.2994 113.572 14.9424 113.572 12.1094C113.572 10.5189 113.754 9.30149 114.28 7.67188C114.831 6.04223 115.727 4.66337 116.804 3.53516C117.881 2.38202 119.195 1.50403 120.748 0.902344C122.326 0.300659 124.142 2.86227e-05 126.196 0ZM2.10645 22.7207H9.5918V24.7451H0V0H2.10645V22.7207ZM25.3896 2.4375H14.6816V10.873H24.0703V13.2725H14.6816V22.3086H25.3896V24.7451H11.9287V0H25.3896V2.4375ZM37.0088 21.7832H37.3838L42.9824 0H46.5898L39.6006 24.7451H34.6787L27.7275 0H31.335L37.0088 21.7832ZM63.2373 3.37402H52.8936V10.5352H61.8877V13.7227H52.8936V21.3711H63.2744V24.7451H48.8457V0H63.2373V3.37402ZM75.2627 0C76.5636 8.75128e-06 77.7524 0.112943 78.8281 0.337891C79.9287 0.537853 80.8923 0.837442 81.7178 1.2373C82.5682 1.6372 83.2811 2.13751 83.8564 2.7373C84.4318 3.31216 84.8697 3.98695 85.1699 4.76172C85.4701 5.5115 85.6201 6.34873 85.6201 7.27344C85.6201 8.14822 85.4822 8.94802 85.207 9.67285C84.9318 10.3727 84.5192 10.9858 83.9688 11.5107C83.4434 12.0355 82.7678 12.4724 81.9424 12.8223C81.1418 13.1472 78.5914 13.3852 77.5156 13.5352V14.0225C78.6665 14.1724 81.2168 14.4599 81.9424 14.8848C82.6929 15.3097 83.2938 15.8967 83.7441 16.6465C84.1945 17.3963 84.582 18.3594 84.9072 19.5342L86.4082 24.7451H81.1924L80.0283 19.9463C79.8032 18.9465 79.4529 18.1468 78.9775 17.5469C78.5273 16.9471 77.9524 16.5214 77.252 16.2715C76.5514 16.0215 75.7 15.8965 74.6992 15.8965H70.4219V24.7451H65.6934V0H75.2627ZM113.652 24.7451H107.783L106.287 19.8711H96.1201L94.6152 24.7451H88.7461L97.249 0H105.149L113.652 24.7451ZM159.969 0V4.83691H146.413V10.0859H158.086V14.4727H146.413V19.8711H160V24.7451H140.333V0H159.969ZM97.2539 16.1973H105.159L101.5 4.27441H100.936L97.2539 16.1973ZM70.4219 12.7441H74.9248C76.8011 12.7441 78.2274 12.3942 79.2031 11.6943C80.2038 10.9945 80.704 9.43595 80.7041 7.98633C80.7041 6.53674 80.2289 5.46159 79.2783 4.76172C78.3527 4.06187 76.9264 3.71193 75 3.71191H70.4219V12.7441Z" fill="currentColor"></path>
</svg>