<svg width="100%" height="100%" viewBox="0 0 84 25" fill="none" xmlns="http://www.w3.org/2000/svg">
<path d="M33.2555 0.528751L29.5516 17.955C29.4892 18.2472 29.2009 18.4837 28.9099 18.4837H22.6035C22.3112 18.4837 22.1252 18.2472 22.1863 17.955L24.0369 9.24119L16.7593 18.226C16.6304 18.3854 16.4365 18.4837 16.2505 18.4837H13.1656C12.9797 18.4837 12.8282 18.3854 12.7671 18.226L9.30895 9.24119L7.45566 17.955C7.39322 18.2472 7.10626 18.4837 6.81399 18.4837H0.506169C0.213894 18.4837 0.027901 18.2472 0.0903415 17.955L3.79426 0.528751C3.8567 0.236477 4.14366 0 4.43593 0H12.8136C12.9996 0 13.151 0.0983106 13.2121 0.257733L16.6729 9.24252L23.9519 0.257733C24.0808 0.0983106 24.2747 0 24.4607 0H32.8384C33.1293 0 33.3167 0.236477 33.2542 0.528751H33.2555Z" fill="#000000"></path>
<path d="M58.9956 0.528751L57.9926 5.245C57.9302 5.53728 57.6432 5.77375 57.3509 5.77375H41.8524C41.5761 5.77375 41.3383 5.96639 41.2811 6.23608L40.035 12.0988C39.9672 12.4164 40.209 12.7153 40.5345 12.7153H55.8763C56.1685 12.7153 56.3545 12.9518 56.2921 13.244L55.2904 17.955C55.2279 18.2472 54.941 18.4837 54.6487 18.4837H36.5968C33.6754 18.4837 31.8101 16.115 32.4319 13.1949L34.1111 5.28884C34.7329 2.36742 37.6038 0 40.5252 0H58.5772C58.8694 0 59.0554 0.236477 58.993 0.528751H58.9956Z" fill="#000000"></path>
<path d="M83.9054 5.10551C83.8775 5.23969 83.7353 5.38184 83.5958 5.38184H68.185C67.5991 5.38184 67.0943 5.79102 66.9721 6.36362L66.9428 6.50045C66.895 6.72763 67.0677 6.94152 67.3002 6.94152H78.9646C85.3296 6.94152 82.8758 18.4837 76.5109 18.4837H61.9941C58.5333 18.4837 57.3164 15.5105 57.7761 13.3902C57.8093 13.2347 57.9634 13.1059 58.1228 13.1059H73.7807C74.3666 13.1059 74.8715 12.6967 74.9937 12.1241L75.0242 11.9819C75.0721 11.7548 74.8994 11.5409 74.6669 11.5409H62.8855C56.4449 11.5422 59.0275 0 65.8242 0H79.6369C83.0352 0 84.3877 2.79786 83.9054 5.10551Z" fill="#000000"></path>
<path d="M2.95197 24.7902V23.2279L1.79882 24.7503L0.645661 23.2279V24.7902H0V22.2248H0.678874L1.80015 23.7075L2.92673 22.2248H3.60029V24.7902H2.95197Z" fill="#EBE71D"></path>
<path d="M7.45832 23.9785C7.45832 24.211 7.37063 24.4049 7.19394 24.559C7.01858 24.7131 6.80468 24.7902 6.55227 24.7902H4.92483C4.67374 24.7902 4.45985 24.7131 4.28315 24.559C4.10646 24.4049 4.01878 24.211 4.01878 23.9785V23.0366C4.01878 22.8041 4.10646 22.6101 4.28315 22.456C4.45852 22.3019 4.67241 22.2248 4.92483 22.2248H6.55227C6.80336 22.2248 7.01725 22.3019 7.19394 22.456C7.36931 22.6101 7.45832 22.8041 7.45832 23.0366V23.9785ZM6.81133 23.9785V23.0392C6.81133 22.8971 6.72497 22.8253 6.55227 22.8253H4.92483C4.75212 22.8253 4.66577 22.8971 4.66577 23.0392V23.9785C4.66577 24.1206 4.75212 24.1924 4.92483 24.1924H6.55227C6.72497 24.1924 6.81133 24.1206 6.81133 23.9785Z" fill="#EBE71D"></path>
<path d="M10.9497 22.824H9.69953V24.7902H9.05254V22.824H7.8024V22.2248H10.9497V22.824Z" fill="#EBE71D"></path>
<path d="M12.0165 24.7902H11.3695V22.2248H12.0165V24.7902Z" fill="#EBE71D"></path>
<path d="M15.8745 23.9785C15.8745 24.211 15.7868 24.4049 15.6101 24.559C15.4348 24.7131 15.2209 24.7902 14.9684 24.7902H13.341C13.0899 24.7902 12.876 24.7131 12.6993 24.559C12.5226 24.4049 12.435 24.211 12.435 23.9785V23.0366C12.435 22.8041 12.5226 22.6101 12.6993 22.456C12.8747 22.3019 13.0886 22.2248 13.341 22.2248H14.9684C15.2195 22.2248 15.4334 22.3019 15.6101 22.456C15.7855 22.6101 15.8745 22.8041 15.8745 23.0366V23.9785ZM15.2275 23.9785V23.0392C15.2275 22.8971 15.1412 22.8253 14.9684 22.8253H13.341C13.1683 22.8253 13.0819 22.8971 13.0819 23.0392V23.9785C13.0819 24.1206 13.1683 24.1924 13.341 24.1924H14.9684C15.1412 24.1924 15.2275 24.1206 15.2275 23.9785Z" fill="#EBE71D"></path>
<path d="M19.2529 24.7902H18.6059L16.9413 23.0631V24.7902H16.2943V22.2248H16.9413L18.6059 23.9413V22.2248H19.2529V24.7902Z" fill="#EBE71D"></path>
<path d="M26.0364 24.7902H23.8921C23.641 24.7902 23.4271 24.7131 23.2504 24.559C23.0738 24.4049 22.9861 24.211 22.9861 23.9785V23.0366C22.9861 22.8041 23.0738 22.6101 23.2504 22.456C23.4258 22.3019 23.6397 22.2248 23.8921 22.2248H26.0364V22.824H23.8921C23.7194 22.824 23.6331 22.8957 23.6331 23.0379V23.9771C23.6331 24.1193 23.7194 24.191 23.8921 24.191H26.0364V24.7902Z" fill="#EBE71D"></path>
<path d="M29.8944 23.9785C29.8944 24.211 29.8067 24.4049 29.63 24.559C29.4546 24.7131 29.2407 24.7902 28.9883 24.7902H27.3609C27.1098 24.7902 26.8959 24.7131 26.7192 24.559C26.5425 24.4049 26.4548 24.211 26.4548 23.9785V23.0366C26.4548 22.8041 26.5425 22.6101 26.7192 22.456C26.8946 22.3019 27.1085 22.2248 27.3609 22.2248H28.9883C29.2394 22.2248 29.4533 22.3019 29.63 22.456C29.8054 22.6101 29.8944 22.8041 29.8944 23.0366V23.9785ZM29.2487 23.9785V23.0392C29.2487 22.8971 29.1624 22.8253 28.9897 22.8253H27.3622C27.1895 22.8253 27.1032 22.8971 27.1032 23.0392V23.9785C27.1032 24.1206 27.1895 24.1924 27.3622 24.1924H28.9897C29.1624 24.1924 29.2487 24.1206 29.2487 23.9785Z" fill="#EBE71D"></path>
<path d="M33.2728 24.7902H32.6258L30.9612 23.0631V24.7902H30.3142V22.2248H30.9612L32.6258 23.9413V22.2248H33.2728V24.7902Z" fill="#EBE71D"></path>
<path d="M36.7655 22.824H35.5153V24.7902H34.8684V22.824H33.6182V22.2248H36.7655V22.824Z" fill="#EBE71D"></path>
<path d="M40.4402 24.7902H39.5567L38.1724 23.3527H39.837C39.9553 23.3527 40.0151 23.2651 40.0151 23.0884C40.0151 22.9117 39.9553 22.824 39.837 22.824H37.8323V24.7902H37.1853V22.2248H39.8742C40.1227 22.2248 40.318 22.3152 40.4614 22.4945C40.5943 22.6579 40.6607 22.8559 40.6607 23.0884C40.6607 23.3209 40.5943 23.5188 40.4614 23.6822C40.318 23.8616 40.1213 23.9519 39.8742 23.9519H39.6258L40.4389 24.7902H40.4402Z" fill="#EBE71D"></path>
<path d="M44.5187 23.9785C44.5187 24.211 44.4311 24.4049 44.2544 24.559C44.079 24.7131 43.8651 24.7902 43.6127 24.7902H41.9852C41.7342 24.7902 41.5203 24.7131 41.3436 24.559C41.1669 24.4049 41.0792 24.211 41.0792 23.9785V23.0366C41.0792 22.8041 41.1669 22.6101 41.3436 22.456C41.5189 22.3019 41.7328 22.2248 41.9852 22.2248H43.6127C43.8638 22.2248 44.0777 22.3019 44.2544 22.456C44.4297 22.6101 44.5187 22.8041 44.5187 23.0366V23.9785ZM43.8731 23.9785V23.0392C43.8731 22.8971 43.7867 22.8253 43.614 22.8253H41.9866C41.8139 22.8253 41.7275 22.8971 41.7275 23.0392V23.9785C41.7275 24.1206 41.8139 24.1924 41.9866 24.1924H43.614C43.7867 24.1924 43.8731 24.1206 43.8731 23.9785Z" fill="#EBE71D"></path>
<path d="M47.7152 24.7902H44.9399V22.2248H45.5869V24.191H47.7152V24.7902Z" fill="#EBE71D"></path>
<path d="M53.821 23.9997C53.821 24.2149 53.7506 24.3996 53.6111 24.5524C53.4597 24.7118 53.2697 24.7915 53.0399 24.7915H50.6472V24.1924H53.0399C53.1302 24.1924 53.174 24.1286 53.174 23.9997C53.174 23.8709 53.1289 23.8071 53.0399 23.8071H51.2995C51.0697 23.8071 50.8797 23.7274 50.7282 23.568C50.5848 23.4178 50.513 23.2358 50.513 23.0193C50.513 22.8027 50.5861 22.6167 50.7336 22.46C50.881 22.3032 51.0697 22.2248 51.2995 22.2248H53.6922V22.824H51.2942C51.2039 22.824 51.1587 22.8891 51.1587 23.0193C51.1587 23.1495 51.2039 23.2093 51.2942 23.2093H53.0385C53.2684 23.2093 53.4597 23.289 53.6111 23.4484C53.752 23.6012 53.821 23.7845 53.821 24.0011V23.9997Z" fill="#EBE71D"></path>
<path d="M57.6472 23.9971C57.6472 24.2136 57.5741 24.3996 57.4266 24.5564C57.2792 24.7131 57.0905 24.7915 56.8607 24.7915H55.0287C54.7948 24.7915 54.6062 24.7131 54.4601 24.5564C54.3139 24.3996 54.2422 24.2136 54.2422 23.9971V22.2248H54.8892V23.9971C54.8892 24.1273 54.9357 24.1924 55.03 24.1924H56.8673C56.9577 24.1924 57.0028 24.1273 57.0028 23.9971V22.2248H57.6498V23.9971H57.6472Z" fill="#EBE71D"></path>
<path d="M61.375 23.9997C61.375 24.2149 61.3046 24.3996 61.1651 24.5524C61.0137 24.7118 60.8237 24.7915 60.5938 24.7915H58.2012V24.1924H60.5938C60.6842 24.1924 60.728 24.1286 60.728 23.9997C60.728 23.8709 60.6828 23.8071 60.5938 23.8071H58.8535C58.6236 23.8071 58.4337 23.7274 58.2822 23.568C58.1387 23.4178 58.067 23.2358 58.067 23.0193C58.067 22.8027 58.1401 22.6167 58.2875 22.46C58.435 22.3032 58.6236 22.2248 58.8535 22.2248H61.2461V22.824H58.8482C58.7578 22.824 58.7127 22.8891 58.7127 23.0193C58.7127 23.1495 58.7578 23.2093 58.8482 23.2093H60.5925C60.8223 23.2093 61.0137 23.289 61.1651 23.4484C61.3059 23.6012 61.375 23.7845 61.375 24.0011V23.9997Z" fill="#EBE71D"></path>
<path d="M65.2662 23.0937C65.2662 23.3235 65.1985 23.5201 65.0617 23.6822C64.9142 23.8655 64.7202 23.9572 64.4798 23.9572H62.4431V24.7902H61.7962V22.2248H64.4798C64.7202 22.2248 64.9142 22.3165 65.0617 22.4998C65.1985 22.6659 65.2662 22.8638 65.2662 23.0937ZM64.6193 23.0937C64.6193 22.9143 64.5728 22.824 64.4798 22.824H62.4431V23.3581H64.4798C64.5728 23.3581 64.6193 23.2704 64.6193 23.0937Z" fill="#EBE71D"></path>
<path d="M68.6447 22.824H66.333V23.2079H68.4932V23.8071H66.333V24.191H68.6394V24.7902H65.6861V22.2248H68.6447V22.824Z" fill="#EBE71D"></path>
<path d="M72.0231 24.7902H71.3761L69.7115 23.0631V24.7902H69.0645V22.2248H69.7115L71.3761 23.9413V22.2248H72.0231V24.7902Z" fill="#EBE71D"></path>
<path d="M75.731 23.9997C75.731 24.2149 75.6606 24.3996 75.5211 24.5524C75.3697 24.7118 75.1797 24.7915 74.9498 24.7915H72.5572V24.1924H74.9498C75.0402 24.1924 75.084 24.1286 75.084 23.9997C75.084 23.8709 75.0388 23.8071 74.9498 23.8071H73.2095C72.9796 23.8071 72.7897 23.7274 72.6382 23.568C72.4947 23.4178 72.423 23.2358 72.423 23.0193C72.423 22.8027 72.4961 22.6167 72.6435 22.46C72.791 22.3032 72.9796 22.2248 73.2095 22.2248H75.6021V22.824H73.2042C73.1138 22.824 73.0686 22.8891 73.0686 23.0193C73.0686 23.1495 73.1138 23.2093 73.2042 23.2093H74.9485C75.1783 23.2093 75.3697 23.289 75.5211 23.4484C75.6619 23.6012 75.731 23.7845 75.731 24.0011V23.9997Z" fill="#EBE71D"></path>
<path d="M76.7766 24.7902H76.1296V22.2248H76.7766V24.7902Z" fill="#EBE71D"></path>
<path d="M80.5801 23.9785C80.5801 24.211 80.4924 24.4049 80.3157 24.559C80.1404 24.7131 79.9265 24.7902 79.674 24.7902H78.0466C77.7955 24.7902 77.5816 24.7131 77.4049 24.559C77.2282 24.4049 77.1406 24.211 77.1406 23.9785V23.0366C77.1406 22.8041 77.2282 22.6101 77.4049 22.456C77.5803 22.3019 77.7942 22.2248 78.0466 22.2248H79.674C79.9251 22.2248 80.139 22.3019 80.3157 22.456C80.4911 22.6101 80.5801 22.8041 80.5801 23.0366V23.9785ZM79.9344 23.9785V23.0392C79.9344 22.8971 79.8481 22.8253 79.6754 22.8253H78.0479C77.8752 22.8253 77.7889 22.8971 77.7889 23.0392V23.9785C77.7889 24.1206 77.8752 24.1924 78.0479 24.1924H79.6754C79.8481 24.1924 79.9344 24.1206 79.9344 23.9785Z" fill="#EBE71D"></path>
<path d="M83.9054 24.7902H83.2584L81.5938 23.0631V24.7902H80.9468V22.2248H81.5938L83.2584 23.9413V22.2248H83.9054V24.7902Z" fill="#EBE71D"></path>
</svg>