<svg width="100%" height="100%" viewBox="0 0 146 24" fill="none" xmlns="http://www.w3.org/2000/svg">
<g clip-path="url(#clip0_22_92)">
<path d="M31.8139 20.0434H29.9136V4.14978H37.4016C40.7039 4.14978 42.4686 6.26228 42.4686 8.8038C42.4686 12.0285 40.2055 13.7526 37.4016 13.7526H31.8139V20.0413V20.0434ZM31.8139 5.89834V12.0061H37.4928C39.462 12.0061 40.5236 10.5747 40.5236 8.8038C40.5236 6.91901 39.1662 5.89834 37.4928 5.89834H31.8139Z" fill="currentColor"></path>
<path d="M46.4679 20.0434H44.5898V4.14978H46.4679V20.0434Z" fill="currentColor"></path>
<path d="M53.2467 20.2243C50.5319 20.2243 48.7896 18.8174 48.7896 16.6134C48.7896 13.8441 51.4598 13.3216 53.8565 13.0715C55.69 12.8905 57.2723 12.9129 57.2946 11.937C57.2723 10.4161 56.0284 9.3487 54.2171 9.3487C52.4059 9.3487 51.1174 10.3246 50.9148 11.756H49.059C49.2859 9.39546 51.4112 7.73636 54.2617 7.73636C57.1123 7.73636 59.1261 9.50729 59.1261 12.0508V20.0434H57.3837V17.9776C56.6828 19.3623 55.3253 20.2264 53.2447 20.2264L53.2467 20.2243ZM53.5182 18.612C55.7569 18.612 57.2966 17.1806 57.2966 15.184V13.6164C56.7759 14.3199 55.4408 14.4561 53.97 14.6147C52.3188 14.7957 50.6676 15.0234 50.6676 16.5666C50.6676 17.815 51.7981 18.61 53.5182 18.61V18.612Z" fill="currentColor"></path>
<path d="M66.0936 20.2935C63.243 20.2935 61.138 18.795 60.98 16.2514H62.8115C62.9472 17.819 64.3735 18.6811 66.1827 18.6811C67.8805 18.6811 68.6929 18.0224 68.6929 16.8187C68.6929 15.6842 67.8116 15.4341 66.5656 15.003L64.8233 14.4134C63.0586 13.8238 61.294 13.2789 61.294 11.0993C61.294 9.05591 62.8783 7.73839 65.502 7.73839C68.1256 7.73839 69.9814 9.16977 70.2752 11.8475H68.4417C68.2391 10.1681 67.062 9.35073 65.4331 9.35073C63.9622 9.35073 63.1032 10.0095 63.1032 11.0546C63.1032 12.3029 64.416 12.553 65.4108 12.8946L67.0397 13.4395C69.2338 14.1654 70.5466 14.9156 70.5466 16.9143C70.5466 19.0268 69.0089 20.2975 66.0895 20.2975L66.0936 20.2935Z" fill="currentColor"></path>
<path d="M74.3756 20.0434H72.4976V8.01084H73.9907L74.171 9.87326C74.9855 8.57811 76.5475 7.73839 78.2655 7.73839C80.0747 7.73839 81.4321 8.6696 82.044 10.1233C82.8138 8.71637 84.465 7.73839 86.2965 7.73839C88.831 7.73839 90.4599 9.53168 90.4599 11.9837V20.0434H88.5818V12.0508C88.5818 10.4385 87.587 9.39343 85.9804 9.39343C83.7397 9.39343 82.4289 10.8919 82.4066 12.732V20.0434H80.5508V12.0508C80.5508 10.4385 79.5561 9.39343 77.9495 9.39343C75.7087 9.39343 74.3979 10.8919 74.3756 12.732V20.0434Z" fill="currentColor"></path>
<path d="M96.5277 20.2243C93.8129 20.2243 92.0706 18.8174 92.0706 16.6134C92.0706 13.8441 94.7408 13.3216 97.1375 13.0715C98.971 12.8905 100.553 12.9129 100.576 11.937C100.553 10.4161 99.3094 9.3487 97.4981 9.3487C95.6869 9.3487 94.3984 10.3246 94.1958 11.756H92.34C92.5669 9.39546 94.6922 7.73636 97.5427 7.73636C100.393 7.73636 102.407 9.50729 102.407 12.0508V20.0434H100.665V17.9776C99.9638 19.3623 98.6064 20.2264 96.5236 20.2264L96.5277 20.2243ZM96.7992 18.612C99.0379 18.612 100.578 17.1806 100.578 15.184V13.6164C100.057 14.3199 98.7218 14.4561 97.251 14.6147C95.5998 14.7957 93.9486 15.0234 93.9486 16.5666C93.9486 17.815 95.0791 18.61 96.7992 18.61V18.612Z" fill="currentColor"></path>
<path d="M23.8255 12.0651C23.8255 12.1871 23.8255 12.309 23.8194 12.431H18.0251V12.1647H12.4476C12.4476 12.1098 12.4476 12.0529 12.4476 12C12.4476 11.9471 12.4476 11.8882 12.4476 11.8353H18.0251V11.571H23.8154C23.8214 11.7357 23.8255 11.9004 23.8255 12.0671V12.0651ZM12.3524 10.8675L17.8104 10.1904L17.8428 10.4548L23.6067 9.7411C23.552 9.45646 23.4851 9.17384 23.4122 8.89732L17.7395 9.60081L17.7719 9.86513L12.2875 10.5442C12.3119 10.652 12.3341 10.7597 12.3524 10.8695V10.8655V10.8675ZM12.0667 9.80413L17.2836 8.49271L17.3484 8.75093L22.8834 7.35818C22.77 7.08777 22.6464 6.82345 22.5167 6.5632L17.1438 7.91528L17.2086 8.1735L11.9492 9.49712C11.9918 9.59878 12.0323 9.70247 12.0708 9.80617L12.0667 9.80413ZM11.6048 8.80786L16.4813 6.95358L16.5745 7.20163L21.7347 5.23958C21.5665 4.99356 21.3923 4.75364 21.2059 4.51982L16.2747 6.39444L16.3679 6.64249L11.4326 8.51915C11.4934 8.61267 11.5521 8.70823 11.6068 8.80583L11.6048 8.80786ZM10.9646 7.88682L15.2718 5.62589L15.3934 5.86174L20.1564 3.36089C19.9376 3.14741 19.7087 2.94409 19.4757 2.74687L15.0003 5.09726L15.1219 5.33311L10.7417 7.63267C10.8187 7.71603 10.8937 7.79939 10.9666 7.88682H10.9646ZM9.92526 6.89258L13.8253 4.3958L13.9671 4.61945L18.2703 1.86242C17.9988 1.6896 17.7232 1.52694 17.4376 1.37648L13.5092 3.8936L13.651 4.11725L9.6396 6.68722C9.73887 6.75229 9.83207 6.82345 9.92729 6.89461L9.92526 6.89258ZM9.00344 6.31108L12.2713 3.61098L12.4395 3.81633L16.1207 0.774653C15.8087 0.654693 15.4866 0.546933 15.1624 0.453406L11.8986 3.15147L12.0667 3.35683L8.67928 6.15452C8.79071 6.20332 8.89809 6.25618 9.00547 6.31108H9.00344ZM7.7838 5.83328L10.3649 3.245L10.5493 3.43206L13.8293 0.150457C13.4748 0.0914944 13.1141 0.048797 12.7474 0.0203321L9.94957 2.82413L10.1339 3.01118L7.40697 5.74382C7.53258 5.77025 7.65819 5.79871 7.78178 5.83328H7.7838ZM6.35751 5.61572L8.41591 3.10268L8.62053 3.27143L11.2989 0C10.8917 0.0182989 10.4905 0.0589631 10.0954 0.117926L7.96006 2.72247L8.16469 2.89122L5.93611 5.61369C5.99892 5.61369 6.06172 5.60962 6.12453 5.60962C6.20354 5.60962 6.28255 5.60962 6.35954 5.61369L6.35751 5.61572ZM5.1237 5.69095L6.71003 3.21857L6.93087 3.36293L8.84744 0.37411C8.40983 0.48797 7.98032 0.628262 7.56297 0.788885L6.21367 2.89326L6.4345 3.03761L4.67798 5.77635C4.82385 5.74178 4.97377 5.71128 5.1237 5.68689V5.69095ZM3.75211 6.07523L4.89273 3.92206L5.1237 4.04812L6.63305 1.19959C6.14884 1.43748 5.68287 1.7079 5.23715 2.00678L4.37003 3.64351L4.60302 3.76957L3.2598 6.30295C3.41782 6.22162 3.58193 6.14639 3.75008 6.0793L3.75211 6.07523ZM2.76951 6.5815L3.25372 5.19485L3.50291 5.28431L4.44499 2.59031C3.96686 2.97255 3.51912 3.38936 3.10177 3.84073L2.69658 4.99966L2.94577 5.08912L2.31164 6.90274C2.45954 6.78889 2.61148 6.68316 2.76951 6.58556V6.5815ZM1.56 7.5737L1.77476 6.56523L2.03205 6.62013L2.46359 4.59099C2.00977 5.17248 1.60863 5.79465 1.26421 6.45341L1.45668 6.4961L1.06364 8.16537C1.21761 7.95798 1.38374 7.76076 1.56203 7.5737H1.56ZM0.670598 8.75093V7.41511C0.350494 8.26906 0.121559 9.3304 0 10.3714C0.149922 9.79397 0.378858 9.2511 0.670598 8.7489V8.75093ZM0.00810391 13.6591C0.133714 14.5476 0.354546 15.4036 0.662494 16.2189V15.2328C0.378858 14.7469 0.156 14.2182 0.00810391 13.6571V13.6591ZM1.10213 15.8916L1.44452 17.5039L1.25205 17.5466C1.59444 18.2074 1.99761 18.8295 2.45143 19.409L2.0199 17.3799L1.7626 17.4348L1.54582 16.4141C1.38779 16.2474 1.23787 16.0725 1.10011 15.8895L1.10213 15.8916ZM2.29746 17.0912L2.93564 18.917L2.68645 19.0064L3.09164 20.1654C3.50697 20.6147 3.95673 21.0335 4.43486 21.4158L3.49278 18.7218L3.24359 18.8112L2.75735 17.4165C2.59933 17.3148 2.44738 17.2091 2.29746 17.0973V17.0932V17.0912ZM3.25169 17.695L4.59694 20.2365L4.36395 20.3626L5.23107 21.9993C5.67679 22.2982 6.14276 22.5686 6.62697 22.8065L5.11762 19.958L4.88463 20.084L3.73995 17.9248C3.5718 17.8577 3.40769 17.7804 3.24764 17.6991L3.25169 17.695ZM4.66785 18.2196L6.4264 20.9624L6.20557 21.1067L7.55487 23.2111C7.97222 23.3717 8.3997 23.512 8.83934 23.6259L6.92276 20.6371L6.70193 20.7814L5.11357 18.307C4.96364 18.2826 4.81372 18.2521 4.66582 18.2176L4.66785 18.2196ZM5.92396 18.3863L8.15253 21.1088L7.94791 21.2775L10.0833 23.8821C10.4784 23.941 10.8815 23.9817 11.2867 24L8.60635 20.7265L8.40173 20.8953L6.34333 18.3822C6.26837 18.3863 6.19341 18.3863 6.11642 18.3863C6.05159 18.3863 5.98271 18.3863 5.91788 18.3822V18.3863H5.92396ZM7.40292 18.2582L10.1279 20.9888L9.94349 21.1759L12.7414 23.9797C13.1081 23.9512 13.4687 23.9085 13.8232 23.8495L10.5452 20.5639L10.3588 20.753L7.77975 18.1667C7.65819 18.1993 7.53056 18.2318 7.40494 18.2562L7.40292 18.2582ZM8.67321 17.8495L12.0566 20.6452L11.8884 20.8506L15.1523 23.5486C15.4764 23.4551 15.7986 23.3473 16.1106 23.2274L12.4273 20.1857L12.2592 20.3911L8.99534 17.693C8.88796 17.7479 8.78058 17.8007 8.66916 17.8495H8.67321ZM9.63149 17.3168L13.6389 19.8848L13.4971 20.1084L17.4254 22.6255C17.7111 22.4751 17.9886 22.3104 18.2581 22.1396L13.9549 19.3826L13.8131 19.6062L9.91918 17.1115C9.82396 17.1826 9.72874 17.2518 9.63149 17.3189V17.3168ZM10.7357 16.3714L15.1097 18.6669L14.9882 18.9027L19.4636 21.2531C19.6986 21.0559 19.9255 20.8526 20.1443 20.6391L15.3812 18.1383L15.2597 18.3741L10.9585 16.1172C10.8856 16.2047 10.8126 16.2901 10.7336 16.3714H10.7357ZM11.4285 15.4809L16.3557 17.3555L16.2625 17.6035L21.1937 19.4781C21.3781 19.2443 21.5544 19.0044 21.7225 18.7584L16.5624 16.7963L16.4692 17.0444L11.5987 15.1921C11.544 15.2897 11.4853 15.3853 11.4245 15.4788L11.4285 15.4809ZM11.9452 14.509L17.1965 15.8306L17.1317 16.0888L22.5046 17.4409C22.6383 17.1826 22.7598 16.9163 22.8733 16.6459L17.3383 15.2531L17.2755 15.5114L12.0667 14.1999C12.0282 14.3036 11.9877 14.4073 11.9452 14.509ZM12.2855 13.4578L17.7597 14.1349L17.7273 14.3992L23.4 15.1027C23.475 14.8241 23.5398 14.5435 23.5945 14.2589L17.8306 13.5452L17.7982 13.8096L12.3483 13.1325C12.3301 13.2423 12.3078 13.3501 12.2835 13.4578H12.2855Z" fill="currentColor"></path>
<path d="M110.09 19.3033C108.977 18.6161 108.116 17.6401 107.51 16.3755C106.903 15.1108 106.601 13.6347 106.601 11.9471C106.601 10.2596 106.901 8.78143 107.5 7.50864C108.1 6.23585 108.955 5.25178 110.067 4.55642C111.18 3.86106 112.474 3.51339 113.953 3.51339C115.432 3.51339 116.727 3.857 117.839 4.54422C118.951 5.23145 119.814 6.20332 120.43 7.45984C121.044 8.71637 121.352 10.1884 121.352 11.876C121.352 13.5635 121.048 15.0457 120.442 16.3267C119.835 17.6076 118.971 18.5957 117.851 19.2891C116.731 19.9844 115.432 20.3321 113.953 20.3321C112.474 20.3321 111.202 19.9885 110.09 19.3013V19.3033ZM118.376 17.207C119.441 15.9343 119.974 14.1572 119.974 11.878C119.974 9.59878 119.446 7.87665 118.388 6.6181C117.33 5.36157 115.851 4.73331 113.953 4.73331C112.055 4.73331 110.6 5.36157 109.541 6.6181C108.483 7.87462 107.954 9.62725 107.954 11.878C107.954 14.1288 108.483 15.916 109.541 17.1949C110.598 18.4758 112.069 19.1162 113.953 19.1162C115.837 19.1162 117.31 18.4798 118.376 17.207Z" fill="currentColor"></path>
<path d="M123.382 7.7079H124.527L124.667 10.284C125.072 9.40969 125.661 8.72247 126.441 8.2223C127.219 7.72213 128.074 7.47204 129.008 7.47204C130.238 7.47204 131.202 7.85835 131.903 8.63097C132.604 9.40359 132.961 10.4629 132.977 11.8048V20.1206H131.67V11.9919C131.67 10.9143 131.421 10.0868 130.923 9.50932C130.424 8.93189 129.671 8.63504 128.658 8.61877C127.88 8.61877 127.191 8.8099 126.591 9.19214C125.992 9.57438 125.526 10.103 125.191 10.774C124.857 11.4449 124.689 12.1952 124.689 13.0227V20.1206H123.382V7.70586V7.7079Z" fill="currentColor"></path>
<path d="M137.479 19.5147C136.608 18.9678 135.939 18.2115 135.471 17.2416C135.005 16.2738 134.77 15.1657 134.77 13.9153C134.77 12.6649 135.019 11.573 135.518 10.589C136.016 9.60488 136.705 8.84039 137.584 8.29346C138.463 7.74653 139.448 7.47408 140.536 7.47408C141.624 7.47408 142.651 7.74043 143.478 8.2711C144.302 8.80176 144.932 9.56422 145.368 10.5544C145.803 11.5466 146.014 12.7055 145.998 14.0332H136.077C136.107 15.5947 136.52 16.8451 137.315 17.7804C138.109 18.7177 139.183 19.1854 140.536 19.1854C141.517 19.1854 142.345 18.9393 143.022 18.4473C143.698 17.9553 144.193 17.2558 144.505 16.3511H145.743C145.431 17.569 144.809 18.5368 143.875 19.2565C142.941 19.9742 141.829 20.3341 140.536 20.3341C139.369 20.3341 138.35 20.0617 137.479 19.5147ZM144.693 12.9312C144.568 11.573 144.144 10.5158 143.421 9.75737C142.698 9.00102 141.735 8.61267 140.538 8.59844C139.355 8.59844 138.364 8.98882 137.562 9.76957C136.76 10.5503 136.281 11.6056 136.125 12.9312H144.691H144.693Z" fill="currentColor"></path>
</g>
<defs>
<clipPath id="clip0_22_92">
<rect width="146" height="24" fill="white"></rect>
</clipPath>
</defs>
</svg>