<svg width="100%" height="100%" viewBox="0 0 33 33" fill="none" xmlns="http://www.w3.org/2000/svg">
<path fill-rule="evenodd" clip-rule="evenodd" d="M0 12.5C0 18.6312 2.91578 23.7711 11.553 25.1415L11.4983 25.188C9.33162 27.3547 3.49829 31.688 1.99829 32.188H19.4983C25.114 28.6002 34.9347 19.4642 32.2339 10.1096C30.8906 4.17052 24.5682 0 16.5 0C7.3873 0 0.498291 5.18799 0 12.5ZM16.9983 17.5C18.6551 17.5 19.9983 16.1569 19.9983 14.5C19.9983 12.8431 18.6551 11.5 16.9983 11.5C15.3414 11.5 13.9983 12.8431 13.9983 14.5C13.9983 16.1569 15.3414 17.5 16.9983 17.5Z" fill="currentColor"></path>
</svg>